<?xml version="1.0" standalone="no"?>
<!DOCTYPE svg PUBLIC "-//W3C//DTD SVG 20010904//EN"
 "http://www.w3.org/TR/2001/REC-SVG-20010904/DTD/svg10.dtd">
<svg version="1.0" xmlns="http://www.w3.org/2000/svg"
 width="345.000000pt" height="367.000000pt" viewBox="0 0 345.000000 367.000000"
 preserveAspectRatio="xMidYMid meet">
<metadata>
Created by potrace 1.16, written by Peter Selinger 2001-2019
</metadata>
<g transform="translate(0.000000,367.000000) scale(0.100000,-0.100000)"
fill="#000000" stroke="none">
<path d="M1577 3605 c-84 -98 -217 -305 -217 -338 0 -5 -32 -43 -70 -84 -123
-132 -185 -290 -178 -457 3 -75 9 -102 33 -153 16 -35 35 -63 42 -63 7 0 13
-6 13 -13 0 -23 67 -100 119 -137 28 -19 50 -39 51 -44 0 -6 -10 -21 -22 -35
l-23 -25 32 22 c38 27 54 29 22 3 l-24 -19 38 -15 c20 -9 37 -21 37 -27 0 -17
36 -61 43 -53 4 3 3 -8 -2 -24 -5 -17 -7 -42 -4 -57 8 -38 -7 -31 -46 20 l-33
46 -29 -28 c-30 -29 -64 -92 -55 -101 3 -3 10 7 16 23 6 16 23 44 37 63 25 32
27 33 40 16 7 -11 13 -29 13 -42 0 -15 5 -21 14 -17 24 9 28 -15 11 -67 -10
-28 -15 -52 -12 -55 6 -6 173 -31 267 -39 l75 -7 -3 -182 -4 -181 47 -13 c99
-26 168 -116 168 -219 0 -45 -5 -59 -27 -82 -15 -16 -26 -38 -26 -55 0 -26 2
-27 38 -20 75 15 72 17 108 -88 36 -107 37 -104 -33 -99 -38 3 -137 -24 -170
-45 -14 -9 -23 -24 -23 -40 0 -41 -19 -24 -57 49 -20 37 -37 66 -40 63 -4 -4
39 -91 91 -185 14 -24 35 -54 48 -68 12 -13 28 -43 34 -66 7 -23 33 -98 58
-166 35 -93 46 -137 46 -180 0 -76 23 -120 80 -149 36 -19 56 -22 96 -19 67 7
104 26 170 91 63 61 64 70 35 211 -31 146 -79 295 -105 325 -13 16 -43 79 -67
141 -29 74 -50 114 -61 117 -10 2 -18 9 -18 14 0 5 5 6 10 3 16 -10 11 21 -15
90 l-24 66 40 36 c25 22 38 42 34 51 -3 8 0 22 7 31 9 11 5 10 -9 -3 -13 -10
-20 -23 -17 -28 8 -12 -35 -58 -54 -58 -8 0 -12 6 -9 14 4 9 -8 6 -36 -9 -23
-13 -58 -26 -77 -29 -34 -6 -33 -5 7 10 44 16 291 236 304 271 7 17 8 17 8 0
1 -11 -7 -31 -17 -45 -29 -42 -36 -56 -25 -49 5 3 22 24 37 46 27 38 28 44 21
113 -4 40 -18 131 -31 201 -24 125 -25 128 -6 145 18 16 71 83 86 110 16 27
-4 9 -47 -44 l-46 -55 -22 50 c-21 49 -23 51 -63 53 -37 1 -38 2 -8 5 17 2 32
9 32 15 0 6 -29 38 -65 71 l-65 60 65 39 c61 37 84 58 49 44 -13 -5 -15 -2
-10 14 3 11 9 29 12 40 4 12 2 20 -5 20 -7 0 -5 9 5 25 10 16 26 25 41 25 46
0 143 60 183 115 48 64 64 97 80 164 21 90 -4 194 -63 259 l-21 22 22 38 c52
89 181 339 187 365 10 36 -4 35 -84 -9 -76 -42 -127 -80 -192 -142 l-47 -44
-47 51 c-114 122 -287 200 -462 208 -111 6 -193 -2 -193 -19 0 -6 9 -8 23 -4
45 13 183 17 222 7 l40 -10 -47 5 c-72 8 -164 -13 -252 -59 -44 -22 -75 -42
-68 -45 6 -2 20 1 31 7 27 15 36 14 22 -3 -7 -8 -25 -17 -41 -21 -38 -8 -101
-65 -125 -111 -11 -21 -29 -47 -40 -57 -20 -18 -20 -18 2 -8 53 26 259 2 313
-37 14 -10 33 -21 43 -25 27 -10 130 -82 151 -106 39 -43 5 -32 -51 17 -107
92 -219 132 -372 132 -109 0 -155 -18 -213 -83 l-38 -42 11 33 c8 24 25 41 64
63 53 30 71 51 58 71 -4 7 -1 8 7 3 10 -6 12 -4 7 8 -3 9 -1 20 6 24 7 5 19
17 27 28 11 15 7 14 -15 -5 -115 -95 -181 -180 -221 -283 -18 -46 -24 -82 -25
-146 -1 -59 -4 -78 -9 -61 -24 76 4 225 66 348 44 87 133 186 223 249 102 72
101 81 -2 16 -22 -14 -41 -23 -43 -21 -2 3 19 45 47 94 55 96 139 211 188 258
l31 30 0 -30 c0 -29 -31 -163 -44 -196 -5 -12 -2 -16 11 -15 18 2 22 17 49
210 9 67 -11 62 -79 -18z m1032 -302 c-31 -75 -149 -304 -172 -335 l-21 -28
22 -23 c32 -34 27 -38 -17 -14 -37 21 -39 21 -86 3 -176 -68 -251 -382 -112
-466 18 -11 42 -20 55 -20 28 0 79 25 110 53 17 16 22 17 17 5 -4 -9 -25 -29
-48 -45 -36 -24 -51 -28 -113 -28 -81 0 -101 11 -137 80 -18 33 -22 57 -22
135 0 106 12 159 51 216 15 21 27 43 28 49 1 5 16 37 34 71 78 145 207 277
347 355 39 21 73 39 77 39 4 0 -2 -21 -13 -47z m-683 -48 c-11 -8 -25 -15 -30
-15 -6 1 0 7 14 15 32 19 40 18 16 0z m374 -118 c0 -6 -10 3 -22 19 -37 50
-41 60 -9 24 17 -19 31 -38 31 -43z m-290 20 c0 -2 -10 -12 -22 -23 l-23 -19
19 23 c18 21 26 27 26 19z m-746 -214 c-51 -77 -80 -186 -70 -258 9 -67 44
-151 86 -204 21 -27 36 -51 33 -54 -8 -9 100 -75 154 -94 34 -13 79 -18 159
-18 l111 0 1 -27 c1 -27 -2 -28 -46 -28 -108 0 -283 45 -312 79 -8 10 -36 32
-62 49 -104 70 -143 151 -147 305 -3 115 14 176 67 238 39 45 52 51 26 12z
m216 -14 c0 -17 -4 -28 -10 -24 -5 3 -10 17 -10 31 0 13 5 24 10 24 6 0 10
-14 10 -31z m-209 -82 c-8 -8 -11 -7 -11 4 0 20 13 34 18 19 3 -7 -1 -17 -7
-23z m1089 18 c0 -8 -4 -15 -10 -15 -5 0 -10 7 -10 15 0 8 5 15 10 15 6 0 10
-7 10 -15z m30 -5 c0 -5 -4 -10 -10 -10 -5 0 -10 5 -10 10 0 6 5 10 10 10 6 0
10 -4 10 -10z m-880 -17 c0 -10 20 -103 45 -208 33 -142 41 -191 32 -197 -24
-15 -40 -2 -53 42 -19 62 -61 253 -72 323 l-9 57 29 0 c20 0 28 -5 28 -17z
m279 -55 c24 -122 42 -230 39 -233 -2 -2 -14 -5 -28 -7 -25 -3 -25 -1 -47 122
-29 165 -29 170 1 170 22 0 26 -6 35 -52z m-370 -90 c26 -161 26 -158 1 -158
-11 0 -20 1 -20 3 0 1 -11 58 -25 127 -31 157 -31 160 -2 160 23 0 25 -6 46
-132z m1040 103 c22 -22 35 -98 26 -144 -10 -48 -55 -124 -83 -143 -87 -57
-159 22 -131 144 12 56 22 74 66 123 28 31 43 39 69 39 20 0 42 -8 53 -19z
m-221 -90 c-15 -24 -30 -28 -23 -6 3 8 7 23 10 32 4 11 9 13 16 6 7 -7 7 -17
-3 -32z m-864 -163 c3 -17 2 -36 -3 -41 -14 -14 -48 9 -53 37 -6 30 -2 36 27
36 17 0 24 -8 29 -32z m368 0 c7 -38 -2 -56 -30 -61 -34 -7 -41 0 -49 46 l-6
37 41 0 c33 0 40 -4 44 -22z m482 -64 c10 -25 -1 -29 -14 -5 -6 12 -7 21 -1
21 5 0 12 -7 15 -16z m-283 -32 c-5 -9 -19 -26 -32 -37 -17 -15 -15 -10 7 17
32 41 40 48 25 20z m170 -4 c6 -13 20 -32 31 -44 19 -21 19 -21 -16 -51 -19
-17 -58 -39 -88 -48 -74 -24 -131 -59 -148 -89 -17 -33 -54 -58 -75 -50 -9 4
-21 21 -29 38 -14 35 -40 146 -34 150 1 2 46 13 98 25 52 12 127 37 165 56 39
18 73 34 77 34 4 1 13 -9 19 -21z m79 -165 c-29 -49 -66 -83 -90 -83 -26 0
-100 -25 -190 -66 -113 -50 -312 -126 -317 -121 -9 9 27 182 41 196 8 8 39 16
68 18 l53 5 17 -41 c15 -37 20 -41 50 -41 36 0 88 42 88 71 0 18 106 63 195
82 110 24 111 24 85 -20z m-157 -241 c-8 -5 -2 -14 17 -27 36 -24 38 -33 6
-31 -17 1 -21 5 -15 12 6 8 2 10 -17 6 -16 -3 -21 -7 -14 -12 19 -12 12 -24
-25 -42 -36 -19 -80 -70 -88 -103 -4 -15 -5 -13 -6 8 -1 19 10 38 39 67 22 22
45 40 50 40 6 0 10 9 10 21 0 35 35 87 49 73 3 -3 0 -8 -6 -12z m-277 -109
c-10 -10 -19 5 -10 18 6 11 8 11 12 0 2 -7 1 -15 -2 -18z m258 -23 c-6 -29 -6
-30 35 -30 35 0 43 -4 51 -26 19 -49 6 -99 -15 -63 -5 7 -15 3 -29 -10 -17
-16 -33 -20 -70 -19 -55 3 -69 19 -64 76 3 32 7 37 31 40 20 3 27 9 27 26 0
26 8 36 26 36 10 0 12 -9 8 -30z m96 0 c0 -9 -19 -24 -24 -19 -2 2 -7 15 -11
27 -6 22 -5 23 14 13 12 -7 21 -16 21 -21z m37 -17 c2 -6 -5 -13 -17 -16 -22
-6 -23 -5 -14 18 7 17 25 16 31 -2z m23 -73 c0 -5 -2 -10 -4 -10 -3 0 -8 5
-11 10 -3 6 -1 10 4 10 6 0 11 -4 11 -10z m-23 -36 c-3 -3 -12 -4 -19 -1 -8 3
-5 6 6 6 11 1 17 -2 13 -5z m-150 -40 c-3 -3 -12 -4 -19 -1 -8 3 -5 6 6 6 11
1 17 -2 13 -5z m64 -37 c-8 -8 -11 -7 -11 4 0 9 3 19 7 23 4 4 9 2 11 -4 3 -7
-1 -17 -7 -23z m-21 13 c0 -5 -7 -10 -15 -10 -8 0 -15 5 -15 10 0 6 7 10 15
10 8 0 15 -4 15 -10z m-104 -182 c14 2 24 0 24 -7 0 -6 -9 -11 -20 -11 -14 0
-20 -7 -20 -22 0 -21 0 -21 -23 3 -12 13 -20 26 -16 29 3 3 10 19 15 35 l8 30
4 -31 c3 -27 6 -30 28 -26z m203 -428 c0 -8 -7 1 -14 20 -18 46 -17 64 0 25 8
-16 14 -37 14 -45z m-220 -219 c-29 -24 -39 -26 -39 -7 0 13 50 38 59 30 2 -2
-7 -12 -20 -23z m36 -61 c22 18 18 6 -4 -14 -19 -17 -20 -17 -32 6 -11 21 -11
22 4 9 14 -11 20 -11 32 -1z m384 -197 c30 -105 31 -115 20 -177 -12 -70 -23
-80 -54 -46 -10 11 -26 22 -36 25 -17 6 -19 17 -19 105 0 86 3 105 24 145 14
25 22 54 19 63 -4 11 -3 14 4 7 5 -5 24 -60 42 -122z m-389 5 c0 -6 23 -59 51
-118 39 -82 49 -112 41 -125 -8 -14 -13 -7 -30 41 -11 33 -34 96 -51 142 -16
45 -26 80 -21 77 6 -4 10 -11 10 -17z m405 -374 c-26 -30 -50 -53 -52 -50 -3
3 13 26 36 52 23 26 45 59 48 73 7 26 8 26 11 3 2 -16 -11 -40 -43 -78z m-165
21 c0 -19 -13 -25 -29 -15 -19 11 -6 41 14 34 8 -3 15 -12 15 -19z m30 -52 c0
-15 -61 -27 -89 -18 -42 13 -22 30 34 30 36 0 55 -4 55 -12z"/>
<path d="M1180 2605 c0 -5 5 -17 10 -25 5 -8 10 -10 10 -5 0 6 -5 17 -10 25
-5 8 -10 11 -10 5z"/>
<path d="M1200 2554 c0 -15 52 -85 81 -109 15 -12 12 -6 -8 15 -17 19 -40 51
-52 70 -11 19 -21 30 -21 24z"/>
<path d="M1688 2283 c7 -3 16 -2 19 1 4 3 -2 6 -13 5 -11 0 -14 -3 -6 -6z"/>
<path d="M2365 2768 c-81 -63 -87 -238 -8 -238 34 0 88 56 102 105 33 121 -18
193 -94 133z"/>
<path d="M1795 2252 c8 -46 12 -49 30 -31 19 19 9 56 -17 62 -18 5 -19 2 -13
-31z"/>
<path d="M2387 2327 c18 -20 40 -63 49 -94 18 -62 12 -99 -28 -155 -11 -16
-15 -28 -9 -28 15 0 61 94 61 123 0 13 -9 51 -21 85 -15 45 -30 68 -52 84
l-32 22 32 -37z"/>
<path d="M1330 2242 c0 -7 11 -30 25 -50 32 -47 32 -37 0 19 -14 24 -25 38
-25 31z"/>
<path d="M2275 2210 c-8 -13 14 -42 25 -35 5 3 11 1 15 -5 10 -16 25 -12 25 8
0 34 -49 58 -65 32z"/>
<path d="M647 2113 c-4 -3 -7 -9 -7 -13 0 -8 70 -30 95 -30 17 0 17 1 -1 21
-12 13 -27 19 -41 16 -13 -2 -23 0 -23 4 0 11 -14 12 -23 2z"/>
<path d="M881 2086 c-9 -11 -3 -16 35 -25 54 -14 59 -12 39 15 -12 16 -16 17
-24 4 -9 -12 -11 -12 -17 3 -8 21 -18 22 -33 3z"/>
<path d="M655 2040 c9 -16 18 -30 21 -30 2 0 1 8 -4 18 -5 9 -7 23 -5 30 3 6
-3 12 -11 12 -15 0 -15 -3 -1 -30z"/>
<path d="M685 2028 c4 -18 17 -44 29 -57 l21 -24 -25 5 c-14 3 -32 9 -41 12
-12 5 -18 1 -22 -14 -4 -16 2 -23 30 -35 60 -25 63 -23 63 59 0 76 -6 86 -47
86 -11 0 -13 -7 -8 -32z"/>
<path d="M759 2049 c0 -2 -3 -35 -5 -73 -4 -50 -1 -72 8 -78 10 -6 10 -10 -1
-17 -10 -6 -27 -5 -49 5 -48 20 -59 18 -65 -12 -3 -19 0 -27 16 -33 14 -5 17
-10 9 -15 -34 -21 15 -86 64 -86 18 0 24 -6 24 -22 0 -21 0 -21 -15 -2 -20 27
-19 4 2 -26 18 -26 33 -40 46 -40 13 0 8 108 -5 114 -7 3 -4 5 6 3 18 -2 20
-9 17 -60 l-3 -58 32 16 c31 16 33 16 56 -6 l24 -22 1 34 2 34 6 -39 c6 -38 7
-39 51 -41 25 -1 62 -5 82 -10 l38 -8 -6 144 c-5 124 -9 148 -28 176 -24 38
-48 51 -44 25 2 -10 -3 -17 -12 -17 -11 0 -16 13 -18 48 -5 84 -18 50 -17 -48
0 -88 1 -95 20 -95 11 -1 31 -7 45 -15 24 -14 24 -14 -15 -9 -67 9 -67 9 -63
64 3 27 2 53 -1 58 -3 6 -27 17 -52 25 -26 9 -59 28 -75 42 -15 14 -29 23 -32
20 -3 -3 -14 2 -24 12 -10 9 -18 14 -19 12z m61 -50 c0 -5 -7 -9 -15 -9 -9 0
-12 6 -9 15 6 15 24 11 24 -6z m74 -55 c23 -9 20 -23 -4 -17 -11 3 -20 9 -20
14 0 11 3 11 24 3z m-57 -42 c-26 -3 -28 -6 -22 -34 5 -21 4 -28 -4 -24 -7 4
-11 -1 -11 -13 0 -12 -7 -21 -15 -21 -20 0 -19 26 0 34 11 4 14 13 9 30 -8 35
0 43 38 37 33 -5 33 -6 5 -9z m83 -32 c21 -21 27 -50 10 -50 -5 0 -10 -15 -10
-32 0 -18 -5 -40 -10 -48 -7 -11 -10 -2 -10 32 0 52 -11 66 -34 43 -8 -8 -17
-12 -20 -7 -2 4 8 18 24 31 17 13 27 28 23 37 -7 20 4 17 27 -6z m-174 -65
c-4 -14 -11 -25 -16 -25 -5 0 -7 8 -3 18 6 15 4 15 -16 -2 -16 -15 -24 -17
-33 -8 -16 16 6 40 40 44 35 4 36 4 28 -27z m78 -17 c-9 -14 -23 2 -17 18 4
12 8 13 14 3 4 -7 5 -17 3 -21z m38 -30 c-7 -7 -12 -8 -12 -2 0 14 12 26 19
19 2 -3 -1 -11 -7 -17z m111 -69 c-5 -5 -6 11 -3 34 4 41 5 41 8 8 2 -18 0
-37 -5 -42z m107 22 c0 -12 -51 -61 -63 -61 -5 0 5 15 24 34 38 39 39 40 39
27z"/>
<path d="M860 2034 c0 -27 19 -51 44 -58 13 -3 31 -9 40 -12 13 -5 16 1 16 34
0 38 -1 40 -37 46 -56 9 -63 8 -63 -10z"/>
<path d="M1280 1999 c0 -5 5 -7 10 -4 6 3 10 8 10 11 0 2 -4 4 -10 4 -5 0 -10
-5 -10 -11z"/>
<path d="M1310 1978 c0 -18 18 -34 28 -24 3 4 -2 14 -11 23 -16 16 -17 16 -17
1z"/>
<path d="M602 1968 c-17 -17 -15 -25 8 -31 16 -4 19 0 18 19 -3 27 -8 30 -26
12z"/>
<path d="M1070 1955 c0 -8 5 -15 10 -15 6 0 10 7 10 15 0 8 -4 15 -10 15 -5 0
-10 -7 -10 -15z"/>
<path d="M1118 1926 c3 -33 9 -45 23 -49 10 -3 19 -10 19 -17 0 -7 -8 -9 -20
-5 -18 6 -20 1 -22 -52 -2 -75 3 -177 9 -183 2 -2 13 1 23 8 26 16 35 15 21
-2 -9 -11 -8 -15 5 -20 25 -10 30 -7 42 19 6 14 16 25 22 25 16 0 12 -30 -5
-36 -13 -5 -13 -8 1 -21 12 -13 20 -13 40 -5 13 7 24 9 24 6 0 -3 -19 -14 -42
-24 -24 -11 -35 -20 -25 -20 10 0 31 7 46 15 28 14 29 13 35 -9 3 -13 -1 -43
-9 -66 -20 -56 -19 -60 9 -60 30 0 56 -9 56 -20 0 -4 -21 -5 -46 -2 l-47 5 7
-28 c6 -24 5 -27 -7 -16 -16 13 -33 -1 -23 -18 3 -5 -3 -34 -13 -64 l-19 -56
56 -16 c31 -10 70 -21 86 -26 16 -5 31 -9 32 -9 2 0 4 74 4 165 l0 166 -32 14
-33 13 30 4 30 3 3 103 c2 79 0 102 -10 102 -8 0 -19 -14 -25 -31 -10 -27 -15
-30 -27 -20 -8 7 -20 28 -26 47 -8 23 -18 34 -31 34 -10 0 -19 5 -19 11 0 6 8
8 19 4 20 -6 23 -1 36 62 3 17 13 37 21 44 21 17 17 29 -11 29 -15 0 -25 -6
-25 -14 0 -11 -7 -12 -35 -4 -19 6 -31 16 -28 21 3 6 -4 3 -17 -6 -20 -14 -26
-14 -51 -1 -16 8 -29 17 -29 20 0 2 14 -2 30 -11 17 -9 30 -13 30 -10 0 4 -74
45 -82 45 -2 0 -2 -20 0 -44z m107 -125 c3 -5 1 -12 -5 -16 -5 -3 -10 1 -10 9
0 18 6 21 15 7z"/>
<path d="M595 1900 c21 -41 37 -48 33 -15 -2 18 -11 31 -26 36 -22 8 -22 8 -7
-21z"/>
<path d="M1414 1873 c3 -21 6 -54 6 -74 l0 -36 98 -17 c53 -9 125 -20 160 -25
l62 -8 0 78 0 78 -32 5 c-18 3 -73 10 -121 17 -101 13 -104 12 -132 -73 -9
-27 -19 -48 -22 -48 -9 0 9 65 28 98 10 18 19 35 19 38 0 2 -16 4 -36 4 l-37
0 7 -37z m240 -62 c-16 -13 -20 -25 -17 -44 3 -16 1 -27 -6 -27 -6 0 -11 11
-11 24 0 13 -3 32 -6 40 -4 11 -2 15 8 11 8 -3 21 1 28 10 7 8 16 13 19 9 3
-3 -4 -14 -15 -23z m-97 -28 c-9 -9 -20 -13 -24 -9 -4 4 -1 11 7 16 25 16 35
11 17 -7z"/>
<path d="M1380 1840 c0 -11 5 -20 10 -20 6 0 10 9 10 20 0 11 -4 20 -10 20 -5
0 -10 -9 -10 -20z"/>
<path d="M1420 1694 c0 -25 4 -43 8 -40 5 3 66 -15 136 -39 70 -25 129 -45
131 -45 3 0 13 -10 25 -22 l20 -22 0 82 0 81 -47 6 c-27 4 -97 15 -157 26 -60
10 -111 19 -113 19 -2 0 -3 -21 -3 -46z m195 -4 c-4 -6 -16 -8 -28 -5 -16 5
-18 4 -8 -3 15 -11 -2 -27 -19 -17 -18 11 2 35 32 35 18 0 27 -4 23 -10z"/>
<path d="M1450 1617 c0 -10 120 -67 140 -67 40 0 18 18 -47 40 -38 13 -74 25
-80 27 -7 3 -13 3 -13 0z"/>
<path d="M990 1605 c0 -2 23 -16 50 -30 62 -31 65 -26 6 9 -44 26 -56 30 -56
21z"/>
<path d="M1420 1580 c0 -16 7 -20 38 -20 l37 0 -30 20 c-38 25 -45 25 -45 0z"/>
<path d="M1120 1548 c0 -4 16 -8 35 -8 19 0 35 2 35 4 0 2 -16 6 -35 8 -19 2
-35 0 -35 -4z"/>
<path d="M1630 1546 c0 -9 8 -16 18 -16 9 0 27 -3 40 -6 12 -4 22 -2 22 4 0 6
-10 14 -22 17 -13 4 -31 9 -40 11 -12 4 -18 0 -18 -10z"/>
<path d="M1276 1494 c-15 -31 -24 -59 -22 -62 3 -2 17 22 31 53 14 32 23 60
21 62 -2 2 -16 -21 -30 -53z"/>
<path d="M1420 1489 l0 -47 63 -11 c83 -14 246 -41 252 -41 3 0 5 18 5 40 0
39 -6 45 -39 41 -7 -2 -10 2 -7 7 6 10 -106 36 -211 50 l-63 9 0 -48z m77 -22
c12 0 19 -5 16 -10 -6 -10 -64 1 -78 15 -6 6 -1 7 15 3 14 -3 35 -7 47 -8z
m111 -13 c39 -11 24 -19 -28 -16 -27 2 -50 8 -50 13 0 10 44 12 78 3z"/>
<path d="M1762 1428 c3 -41 5 -43 36 -45 22 -1 32 3 29 10 -3 7 -8 11 -13 10
-5 0 -18 10 -28 25 -18 24 -18 25 -1 19 15 -6 16 -5 5 8 -22 26 -31 17 -28
-27z"/>
<path d="M1840 1429 c0 -6 10 -20 22 -31 24 -20 42 -12 36 18 -4 21 -58 33
-58 13z"/>
<path d="M1420 1296 c0 -124 0 -126 23 -126 12 0 33 -3 47 -6 21 -6 23 -4 13
7 -7 7 -13 23 -13 36 0 27 25 31 55 9 15 -10 25 -11 39 -4 15 8 18 7 13 -5 -9
-25 43 -64 96 -71 l47 -7 0 119 0 120 -31 6 c-17 3 -43 6 -58 6 -20 0 -23 -2
-11 -10 12 -8 11 -10 -7 -10 -13 0 -23 6 -23 13 0 8 -27 17 -72 26 -40 7 -83
15 -95 18 -23 5 -23 5 -23 -121z m130 54 c17 -11 16 -12 -22 -14 -27 -2 -35 4
-21 17 9 10 25 8 43 -3z m157 4 c-3 -3 -12 -4 -19 -1 -8 3 -5 6 6 6 11 1 17
-2 13 -5z m-92 -64 c4 -6 -6 -10 -22 -10 l-28 -1 30 -14 30 -13 -42 -1 c-31
-1 -43 3 -43 14 0 27 61 47 75 25z m55 -16 c0 -16 -9 -18 -30 -4 -13 9 -13 11
0 19 17 12 30 5 30 -15z m55 -83 c-3 -6 -14 -11 -23 -11 -13 0 -13 2 4 14 21
15 30 14 19 -3z"/>
<path d="M1235 1395 c-4 -11 -21 -50 -36 -87 -15 -38 -25 -68 -21 -68 11 0 74
148 69 162 -3 9 -7 6 -12 -7z"/>
<path d="M1760 1250 c0 -89 3 -122 13 -126 7 -2 37 -1 67 3 50 7 55 11 58 36
3 25 2 26 -22 17 -17 -6 -26 -6 -26 1 0 5 7 12 15 15 8 4 12 10 9 15 -3 5 2 9
10 9 13 0 16 14 16 75 0 47 -4 75 -11 75 -7 0 -8 -14 -4 -42 8 -47 2 -46 -23
4 -15 28 -23 33 -59 36 l-43 3 0 -121z"/>
<path d="M1145 1145 c-11 -50 -13 -80 -7 -92 6 -10 8 -31 5 -46 -7 -36 49
-208 63 -194 2 2 -5 24 -15 48 -11 24 -25 66 -31 93 -12 56 -3 75 27 56 17
-11 17 -11 -1 -6 -17 6 -18 2 -12 -36 4 -24 12 -48 19 -54 7 -6 44 -16 82 -23
39 -7 82 -15 98 -17 l27 -6 0 70 c0 64 -2 70 -22 76 -35 9 -38 8 -38 -13 0
-26 -18 -37 -27 -16 -3 10 0 21 7 25 9 6 -6 14 -46 26 -45 13 -54 19 -40 24
17 6 15 8 -14 18 -42 15 -40 16 -40 -8 0 -11 -4 -20 -10 -20 -19 0 -22 51 -7
110 8 33 11 60 7 60 -4 0 -15 -34 -25 -75z m149 -155 c5 -27 10 -30 41 -30 30
0 35 -3 35 -24 0 -34 -18 -42 -26 -12 -3 15 -14 26 -27 28 -20 3 -57 68 -38
68 5 0 11 -13 15 -30z"/>
<path d="M1201 1158 c-6 -28 -10 -52 -9 -54 2 -1 15 -5 29 -9 24 -6 25 -4 21
29 -2 21 0 36 6 36 6 0 12 -17 14 -37 3 -41 23 -55 33 -24 3 12 12 21 18 21
12 0 77 -62 77 -73 0 -3 -17 -1 -37 4 -40 9 -89 12 -82 5 2 -3 32 -11 67 -19
l63 -15 -3 71 -3 71 -65 17 c-130 32 -115 35 -129 -23z"/>
<path d="M1420 1103 l0 -60 81 -10 81 -9 -6 35 c-3 20 -6 43 -6 52 0 11 -16
19 -52 28 -29 6 -63 14 -75 17 -22 6 -23 4 -23 -53z"/>
<path d="M1697 1065 c31 -55 41 -60 13 -6 l-20 40 23 4 c16 3 13 5 -10 6 l-32
1 26 -45z"/>
<path d="M1306 1091 c-3 -5 5 -11 19 -13 28 -6 34 6 9 16 -20 8 -22 8 -28 -3z"/>
<path d="M1420 937 l0 -95 -82 19 c-46 11 -98 22 -116 26 l-33 6 15 -37 c8
-20 13 -43 10 -50 -6 -16 19 -71 37 -82 6 -3 3 5 -6 20 -10 15 -16 28 -14 30
2 2 14 -12 26 -30 12 -19 18 -34 13 -34 -13 0 -13 -47 1 -110 l11 -50 -50 -68
c-27 -37 -57 -82 -67 -101 -16 -33 -16 -35 0 -47 31 -23 117 -27 203 -9 84 17
216 61 281 94 35 18 37 21 33 63 -5 54 -16 67 -40 45 -10 -9 -22 -17 -27 -17
-4 0 -27 -10 -52 -22 l-43 -22 -34 33 -34 33 33 80 c30 74 36 82 83 110 29 16
52 34 52 39 0 5 4 9 9 9 5 0 16 -42 25 -92 15 -92 15 -92 10 -23 -4 59 -65
322 -79 346 -3 4 -23 10 -45 13 -22 3 -58 9 -80 12 l-40 6 0 -95z m170 -3 c0
-14 4 -33 9 -42 5 -9 11 -37 15 -62 4 -31 3 -39 -3 -25 -5 11 -10 33 -10 48
-1 19 -7 31 -19 34 -14 3 -17 12 -14 39 5 39 22 46 22 8z m-41 -535 c-65 -42
-303 -85 -344 -62 -12 7 5 10 57 10 91 1 169 18 239 52 30 14 56 22 58 17 2
-4 -3 -12 -10 -17z"/>
</g>
</svg>
