<?xml version="1.0" standalone="no"?>
<!DOCTYPE svg PUBLIC "-//W3C//DTD SVG 20010904//EN"
 "http://www.w3.org/TR/2001/REC-SVG-20010904/DTD/svg10.dtd">
<svg version="1.0" xmlns="http://www.w3.org/2000/svg"
 width="401.000000pt" height="379.000000pt" viewBox="0 0 401.000000 379.000000"
 preserveAspectRatio="xMidYMid meet">
<metadata>
Created by potrace 1.16, written by Peter Selinger 2001-2019
</metadata>
<g transform="translate(0.000000,379.000000) scale(0.100000,-0.100000)"
fill="#000000" stroke="none">
<path d="M1810 3615 c-118 -88 -232 -205 -412 -422 -21 -25 -52 -75 -70 -112
-18 -36 -44 -81 -60 -98 -55 -65 -76 -221 -42 -320 23 -67 67 -127 106 -146
18 -9 44 -28 58 -42 24 -25 24 -27 6 -37 -41 -23 -56 -48 -56 -91 0 -41 -2
-44 -46 -65 -26 -13 -44 -25 -42 -28 3 -2 28 7 56 22 33 17 58 24 71 19 12 -3
19 -10 16 -15 -3 -4 3 -14 13 -21 15 -13 16 -12 3 4 -17 21 -13 21 35 1 179
-74 192 -86 156 -141 -8 -13 -12 -23 -9 -23 2 0 17 19 32 42 26 39 27 42 9 55
-10 7 -22 13 -26 13 -8 0 -203 90 -238 109 -15 9 -16 59 -1 74 5 4 26 1 47 -7
39 -14 207 -63 252 -73 30 -7 88 -95 120 -183 31 -83 42 -287 22 -419 -29
-204 -82 -310 -253 -513 -43 -51 -152 -193 -242 -315 -91 -123 -169 -223 -173
-223 -5 0 -44 23 -87 51 -232 151 -394 330 -442 489 -19 61 -21 65 -28 59 -9
-10 24 -110 55 -164 82 -144 254 -309 442 -423 l67 -41 53 67 c61 76 207 258
224 278 6 8 25 14 43 14 29 0 31 -2 31 -38 0 -21 -4 -42 -9 -48 -6 -5 -19 -36
-30 -69 -10 -33 -28 -82 -38 -110 -33 -87 -98 -342 -124 -488 -13 -68 -12 -68
14 -95 24 -24 36 -27 106 -30 97 -5 173 15 232 61 40 30 69 71 38 51 -12 -6
-12 -5 0 9 8 10 11 21 7 24 -4 4 -11 1 -16 -7 -6 -8 -10 -10 -10 -5 0 6 6 17
13 24 10 10 8 12 -7 9 -10 -2 -21 4 -23 12 -4 12 -3 12 5 2 7 -10 11 -7 15 15
4 19 1 32 -10 40 -16 12 -12 35 14 87 11 21 18 25 26 17 6 -6 19 -11 28 -11
10 0 19 -8 22 -17 2 -11 8 -2 16 24 10 36 9 48 -4 73 -12 23 -13 35 -5 50 6
11 9 20 6 20 -8 0 -96 -148 -122 -204 -19 -42 -23 -60 -15 -70 6 -7 9 -15 6
-18 -3 -3 2 -21 10 -41 8 -20 15 -39 15 -42 0 -16 -113 -55 -181 -62 -66 -8
-80 -6 -110 10 -56 32 -64 63 -26 106 l22 26 -23 -20 -23 -19 5 24 c21 98 79
327 90 358 8 20 19 56 25 79 11 39 31 59 31 31 0 -7 11 -23 24 -37 22 -25 23
-29 15 -121 -13 -148 -4 -167 82 -172 l43 -3 51 87 c58 99 81 128 103 128 12
0 12 -3 -4 -15 -14 -11 -15 -14 -4 -14 22 1 59 17 40 18 -13 1 -13 2 0 11 29
19 29 10 -1 -77 -50 -148 -16 -108 41 48 16 46 30 91 30 101 0 11 7 32 15 48
l15 29 90 -42 c84 -40 90 -44 90 -73 0 -39 35 -177 55 -217 8 -16 15 -32 15
-35 0 -7 -83 8 -95 18 -31 26 -197 51 -209 31 -15 -24 125 -78 239 -90 74 -9
91 -14 111 -36 l24 -26 42 23 c23 13 54 42 70 68 26 41 27 46 12 57 -9 7 -37
15 -63 18 -25 4 -51 8 -57 10 -15 4 -46 117 -52 191 -5 71 6 214 17 214 11 0
83 -228 77 -239 -6 -10 67 -43 132 -61 33 -8 57 -8 100 1 63 12 100 28 69 29
-10 0 -15 4 -12 10 9 14 -14 52 -27 44 -6 -4 -8 -3 -5 4 8 12 -64 142 -104
189 -16 18 -31 28 -34 23 -11 -17 -41 -11 -64 14 l-22 24 30 4 c16 2 37 0 46
-5 12 -6 10 4 -10 43 -39 76 -49 106 -32 92 9 -8 17 -8 24 -1 10 10 32 -13 68
-72 32 -52 81 -119 86 -119 4 0 5 -8 2 -19 -3 -11 12 -45 37 -85 l43 -67 28
27 c31 30 32 26 -18 99 -27 40 -12 37 17 -3 34 -47 41 -50 61 -24 13 15 12 16
-4 3 -25 -20 -44 0 -22 23 22 22 2 49 -29 41 -20 -6 -20 -5 -2 6 17 11 23 8
47 -21 15 -18 32 -29 38 -26 19 12 12 -17 -10 -40 -17 -18 -19 -26 -10 -42 14
-27 14 -42 0 -22 -9 13 -10 12 -5 -2 4 -12 -6 -26 -32 -45 -53 -39 -58 -43
-45 -43 6 0 32 15 57 34 l45 35 42 -21 c23 -11 84 -35 135 -53 105 -39 89 -45
165 65 72 104 159 248 159 265 0 20 -23 19 -42 -2 -24 -28 -158 -242 -181
-290 -12 -24 -25 -43 -30 -43 -4 0 -6 4 -2 9 3 5 0 13 -6 17 -8 4 -9 3 -5 -4
4 -7 1 -12 -7 -12 -15 0 -110 36 -169 64 l-38 18 25 30 c14 17 33 44 41 60 13
24 18 27 30 17 13 -11 14 -9 4 13 -10 21 -8 34 9 73 16 36 23 78 28 168 l6
119 39 -6 c111 -18 186 -18 235 -2 64 21 103 56 103 92 0 27 0 27 -20 9 -18
-16 -47 -20 -198 -27 -105 -4 -197 -4 -227 2 -27 5 -61 9 -75 9 -14 0 -86 3
-161 7 -134 7 -137 6 -195 -20 -32 -15 -66 -34 -76 -43 -10 -9 -21 -14 -24
-11 -10 11 112 79 181 101 61 19 91 22 232 21 154 0 161 0 152 18 -12 22 -21
24 -13 3 12 -31 -7 -13 -46 45 -22 33 -72 85 -110 116 -91 73 -93 90 -5 59 48
-17 45 -17 45 -7 0 5 -10 14 -22 20 -20 9 -18 10 12 5 19 -3 40 -9 46 -14 5
-5 23 0 40 10 l29 19 41 -40 c41 -40 42 -40 73 -24 20 11 33 27 39 49 6 25 17
35 48 47 75 29 84 37 84 80 0 39 1 40 35 40 41 0 71 35 61 74 -8 33 -29 38
-98 26 -57 -11 -60 -10 -109 22 -46 29 -49 33 -33 45 29 21 41 15 48 -21 7
-38 20 -46 58 -39 l26 5 -13 56 c-8 31 -13 57 -12 58 1 1 27 14 57 29 193 96
308 241 340 427 9 51 8 78 -4 138 -24 113 -63 186 -167 309 -11 13 -18 26 -15
28 3 3 -8 32 -25 64 -16 33 -27 59 -25 59 2 0 43 -19 90 -41 94 -45 97 -53 29
-87 l-33 -18 23 -31 23 -32 35 21 c108 65 195 167 240 282 35 89 50 206 27
206 -51 0 -76 -13 -80 -40 -2 -16 -2 -29 1 -28 17 1 18 -6 10 -44 -6 -24 -12
-51 -15 -62 -5 -14 -3 -16 7 -10 43 27 49 3 18 -66 -31 -69 -65 -109 -88 -103
-23 6 -35 31 -22 47 14 17 41 87 32 82 -15 -10 -152 47 -162 66 -7 13 -14 16
-22 9 -15 -12 -81 14 -72 29 4 6 -1 7 -11 3 -11 -4 -15 -3 -11 4 5 7 -1 9 -15
6 -17 -3 -19 -2 -10 5 11 7 11 10 -2 15 -12 5 -14 14 -9 39 12 68 16 70 84 42
34 -14 63 -23 65 -21 2 2 -25 18 -60 35 l-64 32 11 36 c8 28 8 37 -2 43 -22
14 -91 35 -96 29 -3 -3 -15 -32 -27 -64 -29 -82 -36 -228 -14 -312 20 -78 82
-206 118 -241 14 -14 51 -75 82 -136 30 -60 56 -102 56 -93 0 10 9 22 19 28
13 7 17 16 14 31 -4 15 -2 20 5 15 7 -4 21 -39 33 -77 17 -57 21 -89 17 -164
-3 -85 -7 -100 -46 -178 -33 -66 -57 -99 -116 -155 -63 -59 -96 -81 -219 -141
-80 -39 -150 -71 -156 -71 -19 0 -12 -17 9 -23 11 -3 20 -10 20 -16 0 -6 -14
-3 -32 7 -45 23 -44 22 -32 30 6 4 16 17 23 30 16 31 -5 64 -58 92 -22 11 -42
24 -46 30 -8 12 -25 13 -25 2 0 -5 18 -17 39 -27 57 -25 85 -58 77 -89 -3 -15
-11 -26 -17 -26 -6 0 -6 7 1 21 16 28 7 33 -27 16 -75 -40 -161 -180 -171
-278 -4 -42 -8 -49 -34 -58 -36 -13 -43 -9 -64 32 -13 24 -15 50 -12 121 3 50
2 82 -3 71 -14 -36 -10 -164 6 -198 l16 -32 -27 30 c-66 76 -148 310 -126 361
8 17 8 23 1 21 -12 -2 -40 78 -31 88 3 3 0 5 -6 5 -18 0 -14 -43 12 -160 31
-137 56 -205 98 -271 43 -68 60 -99 53 -99 -2 0 -51 69 -107 153 -56 83 -122
184 -148 222 -26 39 -69 107 -95 153 l-48 82 37 77 c21 42 40 89 43 105 5 25
10 28 43 28 26 0 43 -7 60 -25 26 -28 28 -23 -48 -109 -60 -69 -67 -84 -39
-83 12 0 31 -3 42 -7 11 -4 7 0 -8 9 l-28 16 47 54 c43 51 48 54 69 42 39 -20
83 -83 78 -110 -7 -34 29 -65 73 -65 19 0 34 4 34 9 0 5 -6 9 -12 9 -7 0 -35
28 -63 62 -27 34 -65 76 -84 94 -23 23 -32 38 -27 50 4 11 -1 26 -15 40 l-22
23 27 11 c112 42 207 207 208 361 0 94 -16 142 -64 191 l-41 43 22 60 c23 67
25 75 12 75 -4 0 -14 -21 -21 -47 -18 -67 -21 -70 -36 -34 -12 28 -11 36 3 59
9 15 26 35 37 44 20 16 21 16 28 0 4 -9 7 9 7 41 l1 58 -124 -2 c-119 -1 -125
0 -167 27 -123 77 -277 120 -406 112 -40 -3 -73 -1 -73 3 0 4 27 53 61 109 80
132 76 147 -21 75z m38 -12 c-8 -10 -29 -45 -47 -78 -19 -33 -44 -74 -57 -92
l-24 -31 118 5 c194 9 346 -43 462 -156 57 -56 120 -162 120 -202 0 -9 -15
-23 -32 -30 -120 -50 -222 -267 -205 -436 l6 -53 -70 -63 c-100 -89 -144 -111
-274 -136 -59 -11 -179 1 -227 24 -18 8 -24 13 -13 10 10 -3 53 -10 94 -15
216 -28 401 82 455 272 71 248 -117 532 -384 578 -122 22 -229 -12 -323 -100
-70 -65 -109 -134 -134 -235 -31 -128 9 -274 104 -376 26 -29 38 -47 26 -41
-57 31 -121 135 -149 242 -36 140 8 345 100 475 58 80 120 131 227 185 45 22
74 40 65 40 -21 0 -126 -47 -150 -68 -29 -24 94 115 141 160 21 20 70 61 108
91 68 54 94 65 63 30z m1372 -149 c32 -13 39 -20 34 -33 -29 -65 -45 -163 -42
-254 2 -72 0 -97 -9 -97 -7 0 -16 12 -19 28 -4 15 -20 56 -36 91 -28 62 -28
68 -18 133 9 61 36 148 46 148 2 0 22 -7 44 -16z m-700 -181 c0 -15 -55 -81
-63 -76 -5 3 -7 2 -4 -4 4 -6 -4 -20 -18 -33 l-23 -22 -26 38 c-14 22 -34 50
-45 64 l-20 25 37 6 c39 7 162 8 162 2z m728 -83 c27 -15 173 -80 217 -98 56
-21 60 -27 41 -57 -9 -14 -14 -31 -10 -37 4 -6 3 -8 -3 -5 -5 3 -20 -7 -32
-24 -13 -17 -25 -28 -28 -25 -3 3 0 12 7 21 7 9 11 17 9 19 -2 2 -55 29 -116
60 l-113 56 0 50 c0 54 1 55 28 40z m-1513 -50 c3 -5 1 -10 -4 -10 -6 0 -11 5
-11 10 0 6 2 10 4 10 3 0 8 -4 11 -10z m109 -30 c13 -13 -18 -24 -49 -16 -14
4 -25 14 -25 22 0 13 7 15 32 10 18 -3 37 -11 42 -16z m-274 -54 c0 -2 -7 -7
-16 -10 -8 -3 -12 -2 -9 4 6 10 25 14 25 6z m870 -61 c0 -7 7 -18 15 -23 13
-7 9 -13 -21 -33 -21 -13 -53 -46 -72 -74 -19 -27 -37 -49 -41 -48 -3 1 -7 -8
-8 -20 0 -12 -6 -43 -13 -69 l-11 -46 -37 15 c-20 8 -38 16 -39 17 -6 5 31
114 52 156 23 45 81 107 120 128 28 16 55 15 55 -3z m-1160 -55 c-13 -47 -14
-240 -1 -273 19 -48 12 -44 -13 6 -14 27 -21 57 -18 69 3 14 1 19 -6 14 -18
-11 -15 102 3 154 25 70 54 95 35 30z m230 -46 c19 -36 20 -218 1 -251 -18
-34 -49 -29 -65 10 -32 77 -27 198 10 255 19 29 34 25 54 -14z m1043 -44 c50
-96 -33 -303 -134 -335 -49 -16 -86 75 -69 167 20 105 103 213 158 206 19 -2
32 -13 45 -38z m-613 -57 c19 -24 22 -37 18 -99 -6 -86 -38 -153 -82 -169 -24
-8 -31 -6 -48 15 -18 22 -20 35 -15 95 6 83 27 135 63 164 34 27 38 27 64 -6z
m-190 -299 c0 -19 -33 -34 -72 -34 -35 0 -98 32 -98 51 0 6 14 -1 31 -15 44
-38 74 -34 98 12 10 19 15 21 27 11 8 -6 14 -17 14 -25z m-330 -78 c0 -2 -7
-7 -16 -10 -8 -3 -12 -2 -9 4 6 10 25 14 25 6z m1120 -260 c0 -5 -13 3 -30 19
-16 16 -30 33 -30 39 0 5 14 -3 30 -19 17 -16 30 -33 30 -39z m-384 -111 c37
-49 43 -117 15 -173 -12 -23 -30 -46 -41 -52 -16 -8 -18 -15 -10 -35 6 -16 6
-25 0 -25 -6 0 -10 8 -10 19 0 15 -9 19 -53 23 -68 6 -110 35 -141 96 -37 76
-12 161 60 204 19 11 34 24 34 28 0 19 120 -51 146 -85z m844 -200 c17 -9 30
-20 30 -26 0 -8 -5 -7 -15 1 -8 7 -24 10 -35 7 -15 -4 -20 0 -20 14 0 23 3 23
40 4z m137 -21 c-3 -3 -12 -4 -19 -1 -8 3 -5 6 6 6 11 1 17 -2 13 -5z m-137
-14 c0 -5 -5 -10 -11 -10 -5 0 -7 5 -4 10 3 6 8 10 11 10 2 0 4 -4 4 -10z
m-90 -81 c-18 -8 -21 -12 -11 -18 10 -6 10 -10 1 -16 -6 -4 -17 -2 -23 4 -13
13 17 41 43 40 8 0 4 -5 -10 -10z m-83 -65 c-3 -3 -12 -4 -19 -1 -8 3 -5 6 6
6 11 1 17 -2 13 -5z m-287 -104 c0 -12 -27 -12 -55 0 -16 7 -13 9 18 9 20 1
37 -3 37 -9z m-342 -342 c7 -25 8 -60 4 -83 -7 -37 -9 -39 -20 -19 -6 12 -24
24 -40 27 -24 5 -31 13 -36 41 -10 50 7 76 48 76 31 0 34 -3 44 -42z m532 -35
c23 -27 55 -62 71 -79 31 -33 42 -67 14 -44 -12 10 -15 10 -15 -4 0 -27 -14
-18 -38 24 -12 22 -27 39 -34 37 -6 -1 -13 4 -16 12 -3 10 0 11 9 5 12 -7 12
-5 0 9 -7 9 -17 15 -21 12 -4 -3 -20 11 -34 29 -27 35 -26 37 15 45 4 0 26
-20 49 -46z m-104 -95 c38 -57 86 -124 107 -150 38 -45 41 -68 11 -68 -8 0
-12 -4 -9 -10 3 -5 2 -10 -4 -10 -11 0 -47 60 -43 73 3 12 -37 86 -59 108 -11
11 -18 26 -16 33 3 7 -3 18 -13 24 -30 18 -82 100 -67 105 18 7 20 5 93 -105z
m-882 18 c-3 -15 -8 -25 -11 -23 -2 3 -1 17 3 31 3 15 8 25 11 23 2 -3 1 -17
-3 -31z m618 1 c4 -22 -3 -26 -41 -18 -4 1 30 41 34 41 2 0 5 -10 7 -23z
m-269 -123 c33 -16 38 -22 33 -44 -4 -14 -11 -53 -18 -87 l-11 -62 -76 41
c-42 23 -77 42 -79 43 -1 1 7 29 18 61 12 33 23 64 25 71 4 14 54 4 108 -23z
m-348 -14 c74 -26 105 -46 104 -68 0 -11 -2 -13 -6 -4 -6 15 -85 52 -112 52
-11 0 -21 -14 -29 -43 -20 -66 -22 -67 -71 -55 -23 6 -39 14 -34 17 8 5 33 78
33 96 0 4 -7 2 -15 -5 -8 -7 -12 -17 -8 -23 4 -6 1 -7 -7 -2 -10 6 -7 14 14
32 33 28 56 29 131 3z m765 -31 c0 -6 -4 -7 -10 -4 -5 3 -10 11 -10 16 0 6 5
7 10 4 6 -3 10 -11 10 -16z m-970 -64 c0 -1 -9 -5 -20 -8 -12 -3 -20 0 -20 8
0 8 8 11 20 8 11 -3 20 -7 20 -8z m317 -32 c-3 -10 -5 -4 -5 12 0 17 2 24 5
18 2 -7 2 -21 0 -30z m-167 -33 c18 -12 2 -12 -25 0 -13 6 -15 9 -5 9 8 0 22
-4 30 -9z m210 0 c0 -5 -5 -10 -11 -10 -5 0 -7 5 -4 10 3 6 8 10 11 10 2 0 4
-4 4 -10z m456 -45 c9 -25 21 -48 25 -51 5 -3 4 7 -1 21 -17 44 -11 42 20 -7
34 -55 35 -58 15 -58 -8 0 -15 -4 -15 -10 0 -14 27 -12 33 3 3 7 9 2 15 -13
11 -28 6 -42 -8 -20 -8 13 -10 12 -10 -2 0 -19 -18 -22 -58 -12 -17 5 -20 10
-12 19 8 10 4 34 -14 91 -30 90 -29 84 -17 84 5 0 17 -20 27 -45z m119 -103
c-6 -7 -35 18 -35 31 0 5 9 2 20 -8 11 -10 18 -20 15 -23z m-245 -182 c0 -5
-16 -10 -35 -10 -19 0 -35 5 -35 10 0 6 16 10 35 10 19 0 35 -4 35 -10z"/>
<path d="M1674 3458 c-22 -18 -52 -48 -69 -68 -18 -21 -1 -9 43 29 39 35 72
66 72 67 0 8 -10 2 -46 -28z"/>
<path d="M2059 2433 c-13 -16 -12 -17 4 -4 9 7 17 15 17 17 0 8 -8 3 -21 -13z"/>
<path d="M2005 2071 c-40 -17 -60 -51 -59 -101 1 -58 24 -97 69 -116 50 -20
71 -18 107 15 28 25 32 35 32 77 0 93 -74 155 -149 125z m90 -56 c34 -33 34
-83 0 -115 -22 -21 -27 -22 -56 -10 -20 9 -37 26 -45 46 -18 43 -18 46 7 78
26 33 62 34 94 1z"/>
<path d="M2026 1982 c-10 -30 4 -52 30 -52 46 0 42 61 -4 68 -13 2 -22 -4 -26
-16z"/>
<path d="M1648 955 c-3 -13 -1 -22 3 -19 5 3 9 -7 9 -23 1 -26 2 -25 15 12 11
30 11 41 2 47 -19 12 -24 9 -29 -17z"/>
<path d="M1027 3364 c-4 -4 -7 -16 -7 -26 0 -14 6 -19 23 -16 14 2 22 10 22
23 0 20 -25 32 -38 19z"/>
<path d="M3427 3279 c7 -7 15 -10 18 -7 3 3 -2 9 -12 12 -14 6 -15 5 -6 -5z"/>
<path d="M3548 3234 c18 -8 37 -12 43 -9 19 12 8 20 -34 22 l-42 2 33 -15z"/>
<path d="M950 3220 c-14 -27 4 -52 34 -48 31 4 30 62 -1 66 -14 2 -26 -4 -33
-18z"/>
<path d="M752 3168 c-16 -16 -15 -63 1 -75 16 -13 57 -2 71 19 15 25 -8 68
-37 68 -13 0 -28 -5 -35 -12z"/>
<path d="M1100 3146 c-18 -22 -5 -46 25 -46 23 0 26 4 23 27 -3 32 -29 41 -48
19z"/>
<path d="M296 2991 c-3 -5 2 -8 12 -7 9 0 17 -6 17 -14 0 -8 -8 -14 -17 -14
-10 1 -15 -2 -12 -7 16 -27 50 5 38 36 -7 16 -30 20 -38 6z"/>
<path d="M3750 2941 c0 -25 18 -37 33 -22 9 9 8 11 -5 6 -13 -5 -18 -2 -18 10
0 11 5 15 16 11 8 -3 12 -2 9 4 -11 17 -35 11 -35 -9z"/>
<path d="M418 2919 c-30 -17 -41 -47 -28 -79 23 -55 99 -56 118 -2 21 61 -37
112 -90 81z"/>
<path d="M664 2922 c-32 -21 -17 -72 21 -72 18 0 26 7 31 25 10 39 -22 68 -52
47z"/>
<path d="M3185 2798 c-78 -47 -123 -87 -181 -157 -92 -111 -124 -239 -98 -389
12 -71 67 -232 79 -232 2 0 16 5 30 12 24 11 26 16 20 47 l-7 36 22 -27 c12
-16 26 -28 32 -28 6 0 -5 19 -24 43 -19 23 -39 51 -45 62 -13 25 -26 95 -18
95 4 0 47 -31 97 -70 50 -38 94 -67 99 -64 18 11 29 43 17 50 -7 4 -8 3 -4 -4
10 -17 -6 -15 -32 4 -12 8 -20 19 -17 24 3 5 -36 37 -86 72 l-91 63 7 39 c7
50 10 53 32 34 19 -15 186 -114 240 -142 41 -20 46 -20 60 4 11 17 10 21 -10
31 -20 11 -21 11 -8 -5 13 -15 12 -16 -15 -6 -47 18 -124 63 -124 72 0 5 14 2
30 -7 17 -9 30 -13 30 -11 0 3 -14 13 -31 22 -24 12 -33 13 -39 4 -8 -13 -22
-8 -97 39 -45 27 -59 50 -20 31 22 -11 22 -11 -1 7 -18 15 -22 25 -17 46 4 14
12 30 18 35 8 6 67 -16 170 -64 87 -41 163 -74 169 -74 5 0 8 7 6 16 -3 14
-169 95 -187 92 -3 -1 -28 9 -56 21 -27 13 -60 27 -72 32 -26 9 -31 29 -9 29
8 0 17 9 21 20 3 11 17 28 30 38 13 11 22 22 18 25 -9 10 18 38 29 31 5 -3 19
3 31 13 12 11 39 30 60 42 21 13 35 28 32 35 -3 6 -8 19 -11 29 -8 23 -20 21
-79 -15z m-178 -187 c-33 -49 -48 -61 -27 -19 11 21 50 68 56 68 1 0 -12 -22
-29 -49z m103 -382 c22 -19 26 -25 9 -15 -14 9 -28 14 -30 11 -3 -3 -21 12
-40 32 l-34 36 30 -17 c17 -10 46 -31 65 -47z m-93 -136 c5 -15 -36 -28 -49
-15 -6 6 -7 15 -3 22 9 14 47 9 52 -7z"/>
<path d="M3807 2807 c-3 -9 -2 -19 4 -23 15 -9 18 -2 9 20 -6 17 -7 18 -13 3z"/>
<path d="M750 2724 l-31 -36 -24 22 c-17 16 -31 21 -49 16 -30 -7 -41 -40 -33
-93 5 -30 2 -40 -18 -59 -28 -26 -34 -84 -11 -103 7 -6 16 -29 20 -51 3 -21
16 -51 29 -66 22 -26 23 -29 9 -78 -7 -28 -14 -96 -15 -151 -1 -119 23 -195
80 -251 53 -53 221 -128 347 -154 48 -10 65 -9 130 9 41 11 113 38 160 60 46
21 87 36 90 33 16 -15 -31 -176 -71 -247 -15 -27 -40 -53 -63 -66 -22 -12 -37
-26 -34 -31 3 -5 15 -2 25 8 27 25 37 8 11 -19 l-22 -23 31 -37 c19 -23 59
-50 105 -73 42 -20 71 -40 68 -46 -4 -7 -9 -6 -14 2 -6 9 -21 -1 -53 -35 l-44
-48 -56 37 c-55 36 -107 93 -107 117 0 7 11 27 25 45 36 47 31 64 -6 18 -54
-68 -54 -67 -1 -123 48 -52 153 -122 181 -120 14 0 121 119 121 133 0 3 -25
20 -55 37 -31 17 -77 50 -103 74 l-47 43 31 58 c45 84 82 182 89 234 4 25 17
70 30 100 30 69 40 110 28 110 -5 0 -17 -24 -26 -54 l-17 -53 -98 -46 c-145
-68 -223 -91 -284 -83 -71 10 -199 52 -239 79 -19 12 -49 29 -67 36 -67 28
-120 122 -129 232 -3 37 -2 84 3 105 7 34 9 28 15 -56 7 -104 42 -212 70 -218
44 -8 171 133 220 245 29 66 38 213 16 266 l-16 37 30 16 c25 13 30 20 27 47
-2 23 -12 36 -37 51 -32 18 -34 18 -63 2 -36 -22 -52 -16 -73 24 -12 23 -13
35 -5 50 13 23 17 24 50 5 39 -22 69 -19 82 10 9 21 8 28 -8 46 -33 36 -53 42
-80 24 -18 -11 -29 -13 -42 -6 -13 8 -14 10 -2 11 13 0 13 1 0 10 -27 17 -47
11 -80 -26z m-130 -164 c0 -5 -5 -10 -11 -10 -5 0 -7 5 -4 10 3 6 8 10 11 10
2 0 4 -4 4 -10z m360 -5 c11 -13 10 -14 -4 -9 -9 3 -16 10 -16 15 0 13 6 11
20 -6z m415 -1175 c3 -5 1 -10 -4 -10 -6 0 -11 5 -11 10 0 6 2 10 4 10 3 0 8
-4 11 -10z m70 -40 c3 -5 2 -10 -4 -10 -5 0 -13 5 -16 10 -3 6 -2 10 4 10 5 0
13 -4 16 -10z"/>
<path d="M3734 2665 c-4 -9 -2 -21 4 -27 8 -8 9 -5 5 11 -5 21 11 30 20 11 3
-6 4 -5 3 2 -4 19 -25 21 -32 3z"/>
<path d="M3245 2621 c-3 -6 0 -13 7 -16 32 -12 131 -45 135 -45 1 0 3 9 3 20
0 23 -10 26 -28 8 -9 -9 -12 -9 -12 1 0 7 -4 9 -10 6 -5 -3 -10 -2 -10 3 0 6
-11 13 -24 16 -13 3 -31 8 -39 12 -8 3 -18 1 -22 -5z"/>
<path d="M425 2604 c-20 -20 -16 -53 8 -68 39 -24 79 44 41 71 -23 17 -29 16
-49 -3z"/>
<path d="M3794 2535 c-3 -8 -3 -19 1 -25 8 -13 35 -13 35 0 0 5 -7 7 -15 4 -9
-4 -15 0 -15 9 0 9 8 18 18 20 16 4 16 5 -1 6 -10 0 -20 -6 -23 -14z"/>
<path d="M202 2528 c-24 -24 -8 -78 24 -78 17 0 44 28 44 45 0 17 -27 45 -44
45 -6 0 -17 -5 -24 -12z"/>
<path d="M3210 2512 c0 -8 61 -34 67 -29 1 2 -13 11 -32 20 -19 9 -35 13 -35
9z"/>
<path d="M3685 2470 c-8 -13 4 -32 16 -25 12 8 12 35 0 35 -6 0 -13 -4 -16
-10z"/>
<path d="M980 2457 c0 -2 15 -14 33 -27 20 -15 27 -17 18 -6 -13 16 -51 41
-51 33z"/>
<path d="M1058 2370 c13 -19 28 -44 33 -55 13 -25 69 -70 69 -56 0 6 -9 15
-19 20 -10 6 -30 30 -44 54 -14 24 -34 50 -44 58 -13 11 -12 6 5 -21z"/>
<path d="M3673 2274 c-7 -18 11 -39 26 -30 17 11 13 46 -4 46 -9 0 -18 -7 -22
-16z m27 -9 c0 -8 -4 -15 -10 -15 -5 0 -10 7 -10 15 0 8 5 15 10 15 6 0 10 -7
10 -15z"/>
<path d="M286 2258 c-21 -30 -20 -61 2 -89 22 -26 75 -30 98 -7 21 21 21 74
-1 98 -25 28 -79 27 -99 -2z"/>
<path d="M1101 2255 c0 -11 4 -27 9 -35 9 -13 10 -13 9 0 0 8 -4 24 -9 35 l-9
20 0 -20z"/>
<path d="M1193 2243 c9 -2 25 -2 35 0 9 3 1 5 -18 5 -19 0 -27 -2 -17 -5z"/>
<path d="M3165 2190 c3 -5 11 -10 16 -10 6 0 7 5 4 10 -3 6 -11 10 -16 10 -6
0 -7 -4 -4 -10z"/>
<path d="M2605 2131 c66 -29 130 -51 149 -51 11 0 -9 11 -45 24 -70 25 -141
43 -104 27z"/>
<path d="M452 2121 c-23 -14 -10 -46 18 -46 16 0 26 6 28 19 3 16 -12 36 -28
36 -3 0 -11 -4 -18 -9z"/>
<path d="M2320 2106 c0 -9 7 -16 16 -16 9 0 14 5 12 12 -6 18 -28 21 -28 4z"/>
<path d="M2440 2115 c0 -5 5 -17 10 -25 5 -8 10 -10 10 -5 0 6 -5 17 -10 25
-5 8 -10 11 -10 5z"/>
<path d="M3586 2085 c-8 -22 1 -35 25 -35 15 0 20 6 17 22 -4 27 -33 36 -42
13z"/>
<path d="M1327 2059 c7 -7 15 -10 18 -7 3 3 -2 9 -12 12 -14 6 -15 5 -6 -5z"/>
<path d="M1656 2039 c4 -7 -4 -20 -17 -31 -20 -16 -17 -15 23 4 32 14 44 25
35 30 -19 12 -49 10 -41 -3z"/>
<path d="M2628 1973 c-16 -20 -43 -82 -37 -87 2 -2 16 21 30 51 14 29 25 53
24 53 -1 0 -9 -8 -17 -17z"/>
<path d="M1601 1953 c-1 -6 12 -40 27 -75 36 -80 72 -186 88 -263 l13 -60 -4
57 c-3 31 -19 96 -36 145 -35 98 -87 214 -88 196z"/>
<path d="M1407 1902 c-33 -34 -34 -42 -4 -35 31 8 47 23 47 44 0 26 -12 24
-43 -9z"/>
<path d="M1506 1895 c-21 -81 -27 -107 -23 -111 9 -9 38 87 35 113 l-4 28 -8
-30z"/>
<path d="M3506 1877 c-23 -17 -17 -52 8 -52 29 0 44 31 25 50 -12 13 -18 13
-33 2z"/>
<path d="M396 1871 c-4 -5 -2 -12 3 -15 5 -4 12 -2 15 3 4 5 2 12 -3 15 -5 4
-12 2 -15 -3z"/>
<path d="M885 1865 c-16 -7 -39 -16 -49 -19 -10 -4 -16 -9 -13 -12 8 -9 74 15
87 32 15 17 14 17 -25 -1z"/>
<path d="M446 1773 c-13 -14 -5 -53 13 -63 15 -7 23 -6 35 6 18 17 19 24 8 42
-9 14 -47 24 -56 15z"/>
<path d="M3461 1732 c-15 -28 8 -57 38 -47 17 5 21 13 19 33 -4 34 -42 43 -57
14z"/>
<path d="M3550 1681 c0 -6 5 -13 10 -16 6 -3 10 1 10 9 0 9 -4 16 -10 16 -5 0
-10 -4 -10 -9z"/>
<path d="M403 1660 c-33 -13 -31 -50 2 -50 22 0 25 4 23 30 -1 17 -2 30 -3 29
0 0 -10 -4 -22 -9z"/>
<path d="M648 1649 c-11 -6 -18 -22 -18 -39 0 -23 5 -31 25 -36 37 -9 55 2 55
34 0 45 -26 62 -62 41z"/>
<path d="M3302 1644 c-32 -22 -43 -57 -31 -94 19 -52 67 -65 113 -29 26 21 35
65 20 103 -6 15 -8 15 -20 -1 -14 -17 -14 -16 -12 7 2 20 -2 26 -22 28 -14 1
-35 -5 -48 -14z m8 -38 c0 -11 -19 -15 -25 -6 -3 5 1 10 9 10 9 0 16 -2 16 -4z"/>
<path d="M3052 1606 c-18 -13 -35 -26 -38 -29 -5 -5 92 -285 102 -296 2 -2 13
4 25 15 18 16 20 27 16 66 -3 26 -15 65 -26 87 -12 22 -22 60 -25 86 -4 59
-10 64 -41 35 -33 -31 -32 -10 1 29 31 37 29 37 -14 7z"/>
<path d="M3532 1588 c-26 -26 -2 -75 31 -62 17 6 28 39 20 60 -6 17 -35 18
-51 2z"/>
<path d="M853 1573 c-17 -6 -17 -28 0 -41 17 -14 40 1 35 23 -3 20 -16 26 -35
18z"/>
<path d="M527 1516 c-8 -20 20 -43 35 -28 14 14 3 42 -16 42 -7 0 -16 -6 -19
-14z"/>
<path d="M2855 1520 c-3 -5 -1 -10 4 -10 6 0 11 5 11 10 0 6 -2 10 -4 10 -3 0
-8 -4 -11 -10z"/>
<path d="M2780 1501 c24 -14 66 -25 55 -13 -5 5 -23 12 -40 16 -20 4 -25 3
-15 -3z"/>
<path d="M1085 1440 l-30 -8 35 -1 c19 0 42 4 50 9 12 8 11 10 -5 9 -11 -1
-33 -5 -50 -9z"/>
<path d="M3273 1433 c-15 -6 -17 -59 -3 -68 20 -12 51 15 48 43 -3 26 -20 36
-45 25z"/>
<path d="M1018 1423 c6 -2 18 -2 25 0 6 3 1 5 -13 5 -14 0 -19 -2 -12 -5z"/>
<path d="M918 1403 c7 -3 16 -2 19 1 4 3 -2 6 -13 5 -11 0 -14 -3 -6 -6z"/>
<path d="M2810 1396 c0 -2 8 -10 18 -17 15 -13 16 -12 3 4 -13 16 -21 21 -21
13z"/>
<path d="M582 1290 c0 -14 2 -19 5 -12 2 6 2 18 0 25 -3 6 -5 1 -5 -13z"/>
<path d="M2920 1165 c1 -6 7 -21 16 -35 l15 -25 -7 25 c-7 26 -24 52 -24 35z"/>
<path d="M3142 1135 c0 -16 2 -22 5 -12 2 9 2 23 0 30 -3 6 -5 -1 -5 -18z"/>
<path d="M2913 725 c9 -16 23 -39 32 -50 9 -11 7 -2 -6 20 -27 49 -47 72 -26
30z"/>
<path d="M682 665 c-13 -9 -34 -35 -48 -57 l-26 -40 34 -37 c18 -20 37 -40 42
-46 5 -5 3 0 -3 13 -6 12 -10 22 -8 22 2 0 28 -22 58 -50 107 -98 290 -168
413 -157 48 4 64 11 89 35 l30 30 -26 26 c-20 20 -36 26 -70 26 -23 0 -48 -5
-55 -12 -6 -6 -26 -13 -44 -15 -41 -5 -143 17 -127 28 10 6 10 16 0 48 -15 52
-27 52 -36 1 -4 -22 -12 -40 -19 -40 -26 0 -184 115 -174 126 13 12 107 6 156
-10 29 -10 55 -16 57 -14 6 5 -58 100 -79 117 -26 22 -137 26 -164 6z m18 -9
c0 -2 -8 -10 -17 -17 -16 -13 -17 -12 -4 4 13 16 21 21 21 13z"/>
<path d="M1776 424 c-4 -14 -5 -28 -3 -31 3 -2 8 8 11 23 4 14 5 28 3 31 -3 2
-8 -8 -11 -23z"/>
<path d="M1406 332 c-20 -14 -34 -27 -32 -30 3 -2 17 5 32 17 21 16 41 21 88
21 34 0 67 -5 73 -11 6 -6 17 -9 25 -7 24 8 -24 25 -89 31 -54 4 -65 2 -97
-21z"/>
</g>
</svg>
