<?xml version="1.0" standalone="no"?>
<!DOCTYPE svg PUBLIC "-//W3C//DTD SVG 20010904//EN"
 "http://www.w3.org/TR/2001/REC-SVG-20010904/DTD/svg10.dtd">
<svg version="1.0" xmlns="http://www.w3.org/2000/svg"
 width="341.000000pt" height="369.000000pt" viewBox="0 0 341.000000 369.000000"
 preserveAspectRatio="xMidYMid meet">
<metadata>
Created by potrace 1.16, written by Peter Selinger 2001-2019
</metadata>
<g transform="translate(0.000000,369.000000) scale(0.100000,-0.100000)"
fill="#000000" stroke="none">
<path d="M2491 3436 l-44 -23 48 -27 c41 -22 46 -23 30 -6 -23 25 -17 31 35
34 33 2 40 -1 35 -13 -4 -13 -3 -13 8 1 9 12 18 14 30 7 38 -22 14 2 -26 26
-53 30 -60 30 -116 1z"/>
<path d="M2430 3343 l0 -72 61 -34 62 -35 51 33 c50 32 51 34 58 91 3 33 5 60
3 62 -2 2 -26 -11 -53 -28 -51 -31 -51 -32 -55 -88 -2 -43 -5 -52 -11 -34 -5
12 -14 22 -22 22 -7 0 -25 10 -39 23 -21 18 -25 28 -20 50 9 33 13 34 48 1 16
-14 31 -24 34 -21 9 10 -6 25 -55 53 -26 15 -50 32 -54 38 -4 6 -8 -21 -8 -61z"/>
<path d="M983 3318 c-20 -24 -43 -77 -87 -195 -24 -65 -65 -161 -90 -214 -59
-123 -59 -139 0 -29 95 178 286 319 501 371 93 23 249 30 353 17 46 -6 50 -5
25 4 -16 6 -95 11 -175 11 -129 0 -155 -3 -233 -27 -97 -29 -168 -62 -237
-110 -25 -17 -55 -36 -67 -43 -21 -11 -23 -10 -23 16 0 15 5 42 11 60 6 18 9
34 6 37 -5 6 -39 -96 -41 -124 -1 -16 -56 -95 -56 -80 0 10 87 223 104 255 14
27 15 24 11 -56 -3 -47 -3 -82 0 -79 3 2 10 41 16 86 11 84 3 127 -18 100z
m-122 -331 c-10 -9 -11 -8 -5 6 3 10 9 15 12 12 3 -3 0 -11 -7 -18z"/>
<path d="M1716 3251 c-3 -5 -25 -12 -49 -15 -48 -7 -114 -43 -101 -55 5 -4 40
-20 78 -35 86 -34 142 -72 229 -155 85 -81 129 -141 156 -210 l21 -52 -53 -49
c-59 -54 -106 -134 -133 -225 -20 -69 -24 -220 -7 -249 10 -17 6 -23 -32 -47
-23 -15 -57 -30 -76 -34 -19 -4 -92 -27 -164 -51 -150 -50 -229 -60 -336 -45
-262 37 -434 168 -501 384 -26 82 -30 222 -9 296 7 23 10 45 8 47 -3 3 -13
-28 -23 -68 -14 -55 -19 -109 -19 -218 0 -133 2 -149 24 -194 25 -50 90 -106
122 -106 11 0 38 -15 62 -32 23 -18 72 -46 107 -63 36 -16 67 -31 69 -32 2 -1
-2 -9 -9 -18 -8 -10 -9 -15 -1 -15 6 0 11 -6 11 -13 0 -8 10 -19 23 -25 12 -6
16 -11 9 -11 -10 -1 -10 -6 -2 -23 10 -20 9 -20 -12 3 -13 14 -29 35 -35 45
-10 16 -11 14 -2 -11 5 -16 24 -47 40 -68 l30 -38 -56 -96 -56 -96 22 -30 22
-30 -22 6 c-20 5 -31 -8 -12 -15 5 -1 3 -8 -4 -15 -10 -9 -22 -3 -58 31 -24
24 -100 94 -168 156 -68 61 -152 141 -186 177 l-61 65 -149 -26 c-200 -37
-283 -57 -283 -70 0 -16 61 -88 68 -81 7 6 52 -35 52 -47 0 -5 -6 -6 -12 -2
-7 4 -2 -5 11 -19 30 -33 42 -36 15 -4 l-19 22 24 -20 c13 -11 33 -33 44 -50
l21 -30 -25 20 c-13 11 -7 1 15 -22 l39 -42 -28 -24 c-22 -18 -27 -29 -22 -49
9 -35 42 -74 77 -91 27 -14 30 -14 35 4 5 16 15 19 55 18 41 -2 46 -4 34 -16
-10 -11 -18 -11 -35 -3 -47 26 -67 -24 -29 -73 11 -14 19 -32 18 -39 -4 -18
81 -58 112 -53 14 2 28 4 33 4 4 1 7 9 8 19 0 14 2 14 9 -3 13 -31 12 -35 -16
-35 -14 0 -23 -4 -19 -10 3 -5 -1 -10 -9 -10 -8 0 -18 5 -21 10 -3 6 -12 10
-18 10 -7 0 1 -12 16 -25 21 -19 40 -25 73 -25 38 0 49 -5 71 -30 14 -17 35
-35 47 -41 12 -6 6 3 -14 20 -32 29 -33 31 -10 25 32 -8 74 -46 60 -54 -13 -8
41 -33 106 -50 46 -12 58 -11 119 8 l68 21 18 -22 c10 -12 18 -36 19 -53 0
-19 6 -34 15 -38 8 -3 15 -13 15 -23 0 -9 6 -35 14 -58 25 -70 86 -272 86
-284 0 -6 -7 -11 -15 -11 -28 0 -27 -26 3 -103 16 -42 27 -77 23 -79 -14 -7
-81 -98 -98 -132 -17 -37 -17 -38 2 -52 21 -15 57 -17 131 -7 38 5 44 8 29 15
-13 5 -6 6 20 2 22 -3 52 0 65 6 23 9 22 10 -7 4 -47 -8 -41 3 8 16 22 6 48
13 57 16 9 3 6 -2 -8 -10 -25 -16 -25 -16 13 -10 121 20 144 42 112 103 -8 17
-12 31 -7 31 13 0 24 131 12 144 -12 16 -18 217 -5 213 18 -6 225 -289 225
-307 0 -10 6 -23 14 -29 7 -6 23 -43 36 -83 17 -54 21 -84 16 -125 -4 -32 -2
-62 5 -74 30 -56 171 -70 262 -26 68 34 131 100 124 130 -3 12 -15 77 -28 145
-13 67 -27 122 -31 122 -5 0 -6 -15 -3 -32 3 -18 7 -44 8 -58 0 -14 4 -27 7
-30 3 -3 11 -34 18 -70 9 -50 9 -66 -1 -72 -17 -11 -57 37 -57 68 0 24 -25 84
-36 84 -2 0 0 -9 6 -20 6 -12 10 -34 8 -51 -3 -28 -4 -29 -23 -15 -28 20 -28
96 1 128 40 45 64 97 54 116 -6 9 -32 82 -60 161 l-50 143 24 29 c13 16 27 46
31 68 3 21 17 49 30 61 23 21 28 22 82 11 48 -9 69 -8 118 4 80 21 165 56 230
96 51 31 55 36 61 79 5 41 11 49 51 75 58 36 68 59 57 132 l-8 58 -7 -55 c-5
-50 -6 -47 -7 30 0 60 2 79 9 65 13 -27 2 115 -11 150 -6 15 -24 32 -45 41
-26 11 -35 20 -35 39 0 13 5 27 10 30 30 19 -24 186 -92 280 -48 68 -207 190
-292 225 -40 17 -55 28 -51 38 13 34 25 156 18 195 -9 57 -46 114 -88 134 -19
9 -35 20 -35 25 0 4 39 70 87 145 140 223 173 282 162 289 -22 13 -220 -173
-302 -284 l-46 -62 -29 42 c-44 64 -208 217 -298 279 -24 16 -45 33 -49 38 -6
11 55 51 77 51 8 0 20 -15 26 -32 7 -23 10 -27 11 -13 1 22 -25 65 -39 65 -5
0 -11 -4 -14 -9z m641 -108 c-58 -111 -246 -400 -263 -407 -9 -3 -17 1 -20 12
-3 9 -11 29 -16 45 -9 23 -6 34 17 70 42 64 308 327 282 280z m-173 -461 c49
-46 56 -77 47 -190 -10 -107 -29 -163 -81 -235 -57 -80 -111 -94 -123 -31 l-4
25 19 -21 c10 -11 22 -20 25 -20 3 0 -2 9 -13 21 -15 17 -19 35 -18 85 1 54 7
77 39 140 34 67 85 124 110 124 5 0 17 -7 27 -17 10 -9 18 -11 18 -6 0 19 -29
35 -53 30 -35 -9 -83 -65 -121 -142 l-35 -70 4 60 4 60 -19 -42 c-37 -83 -50
-199 -26 -244 l13 -26 -51 5 c-28 2 -55 8 -60 13 -17 15 -24 104 -15 183 14
132 102 286 184 322 41 19 94 8 129 -24z m-1438 -316 c22 -67 51 -125 78 -155
l21 -24 -26 16 c-32 21 -67 68 -73 99 -2 14 -11 46 -20 72 -9 26 -16 66 -15
89 l1 42 9 -44 c5 -25 16 -67 25 -95z m1647 -95 c10 -12 8 -13 -13 -6 -14 4
-27 10 -30 14 -7 9 -33 7 -50 -4 -13 -8 -13 -6 -1 8 7 9 11 24 7 32 -4 13 3
11 35 -7 22 -12 45 -29 52 -37z m-375 -86 c-3 -3 -9 2 -12 12 -6 14 -5 15 5 6
7 -7 10 -15 7 -18z m510 -18 c16 -18 44 -57 61 -87 28 -51 29 -56 11 -56 -13
0 -16 4 -10 11 12 15 -47 103 -96 143 -26 21 -31 29 -17 26 12 -3 34 -20 51
-37z m-248 -83 c-25 -7 -49 -13 -55 -13 -18 1 59 27 80 28 11 0 0 -7 -25 -15z
m30 -28 c0 -2 -17 -15 -37 -27 -21 -13 -41 -27 -44 -32 -4 -5 -9 -5 -12 0 -4
6 15 22 41 36 51 29 52 29 52 23z m-738 -68 c-7 -7 -12 -8 -12 -2 0 6 3 14 7
17 3 4 9 5 12 2 2 -3 -1 -11 -7 -17z m618 12 c0 -5 -10 -15 -22 -21 -23 -12
-23 -12 -4 10 21 23 26 26 26 11z m-1505 -121 c72 -67 169 -158 217 -203 48
-44 88 -84 88 -88 0 -4 -71 -29 -157 -57 l-158 -50 -27 26 c-22 21 -25 30 -17
50 26 70 -5 126 -72 127 -35 1 -45 -3 -54 -21 -10 -20 -20 -13 -161 128 -105
104 -145 150 -135 154 9 2 63 13 121 24 58 11 114 22 125 24 11 3 38 5 60 6
38 1 47 -6 170 -120z m-420 -30 c34 -37 31 -35 -20 11 -80 72 -85 77 -50 52
17 -11 48 -40 70 -63z m1632 75 c-3 -3 -12 -4 -19 -1 -8 3 -5 6 6 6 11 1 17
-2 13 -5z m613 -59 c13 -71 13 -75 3 -75 -5 0 -11 13 -16 29 l-7 29 -73 -22
c-71 -22 -72 -23 -73 -56 0 -42 -21 -51 -30 -13 -3 15 -10 45 -16 67 -5 21 -8
39 -6 41 3 3 188 62 199 64 4 1 12 -28 19 -64z m-675 15 c-3 -5 -10 -10 -16
-10 -5 0 -9 5 -9 10 0 6 7 10 16 10 8 0 12 -4 9 -10z m282 -37 c-3 -10 -5 -2
-5 17 0 19 2 27 5 18 2 -10 2 -26 0 -35z m-1926 20 c13 -16 12 -17 -3 -4 -10
7 -18 15 -18 17 0 8 8 3 21 -13z m1223 -73 c-25 -163 -25 -160 -12 -160 9 0
13 15 12 45 -1 49 17 61 36 25 8 -14 8 -26 0 -41 -9 -16 -8 -28 4 -54 9 -18
16 -50 16 -71 0 -48 -38 -130 -53 -115 -21 21 -48 12 -60 -20 -12 -30 -14 -31
-56 -25 -55 8 -58 10 -41 41 16 30 36 27 33 -4 -3 -26 25 -40 38 -20 12 19 11
32 -1 24 -5 -3 -10 -2 -10 3 0 4 14 15 32 23 18 8 39 28 47 46 11 23 23 33 41
34 l25 1 -24 7 c-16 4 -28 17 -33 36 -4 16 -14 33 -23 37 -8 5 -15 18 -15 29
0 21 37 213 46 238 11 33 11 0 -2 -79z m713 -22 c-2 -13 -4 -5 -4 17 -1 22 1
32 4 23 2 -10 2 -28 0 -40z m-509 25 c-10 -2 -26 -2 -35 0 -10 3 -2 5 17 5 19
0 27 -2 18 -5z m497 -83 c29 -90 29 -87 16 -70 -6 8 -17 35 -25 60 -8 25 -17
54 -21 65 -6 14 -5 17 2 10 6 -5 19 -35 28 -65z m-923 18 c-2 -21 -8 -38 -13
-38 -12 0 -11 22 1 56 14 35 18 28 12 -18z m1298 18 c0 -9 -15 -17 -40 -21
-38 -6 -45 -13 -41 -42 3 -24 -17 -13 -23 13 -8 31 -12 28 44 46 59 20 60 20
60 4z m205 -21 c-16 -7 -34 -10 -40 -7 -5 4 4 10 20 13 47 10 53 9 20 -6z
m-2233 -77 c32 -46 15 -32 -37 30 -31 36 -37 46 -16 27 18 -16 42 -42 53 -57z
m1600 64 c7 -7 14 -51 16 -99 4 -78 2 -90 -16 -106 -17 -16 -30 -17 -98 -11
-108 10 -124 26 -124 128 0 113 -4 109 112 104 54 -3 104 -10 110 -16z m-692
-31 c0 -6 -4 -12 -10 -16 -5 -3 -6 -13 -3 -22 5 -12 2 -15 -10 -10 -25 10 -74
-12 -93 -40 -21 -33 -22 -95 -1 -126 14 -21 13 -25 -3 -48 l-19 -24 -21 48
c-12 27 -19 56 -16 64 5 13 4 13 -7 4 -19 -15 -40 9 -35 41 2 17 9 23 26 22
14 0 22 5 22 15 0 21 37 81 50 81 5 0 10 -7 10 -15 0 -8 5 -15 11 -15 6 0 8 7
5 16 -3 9 -4 20 0 25 7 12 94 12 94 0z m-195 -11 c3 -5 1 -10 -4 -10 -6 0 -11
5 -11 10 0 6 2 10 4 10 3 0 8 -4 11 -10z m-601 -46 c9 -24 7 -28 -9 -14 -17
14 -20 30 -6 30 5 0 12 -7 15 -16z m1051 6 c-28 -12 -37 -12 -30 0 3 6 16 10
28 9 21 0 21 -1 2 -9z m840 0 c-3 -5 -10 -10 -16 -10 -5 0 -9 5 -9 10 0 6 7
10 16 10 8 0 12 -4 9 -10z m-2129 -47 c-11 -11 -17 4 -9 23 7 18 8 18 11 1 2
-10 1 -21 -2 -24z m2380 -30 c-10 -10 -19 5 -10 18 6 11 8 11 12 0 2 -7 1 -15
-2 -18z m-2326 -50 c0 -7 -39 17 -46 28 -3 6 5 3 20 -6 14 -10 26 -19 26 -22z
m2187 -15 c-3 -8 -6 -5 -6 6 -1 11 2 17 5 13 3 -3 4 -12 1 -19z m-357 -118 c6
-36 14 -74 17 -85 3 -11 2 -17 -1 -14 -6 6 -46 160 -46 177 0 3 4 2 9 -3 4 -6
14 -39 21 -75z m-1629 43 c12 -16 12 -17 -1 -7 -8 6 -22 14 -30 17 -13 5 -12
6 1 6 9 1 23 -7 30 -16z m-51 3 c0 -2 -9 -6 -20 -9 -11 -3 -20 -1 -20 4 0 5 9
9 20 9 11 0 20 -2 20 -4z m330 -10 c0 -20 -16 -36 -36 -36 -26 0 -27 1 -18 24
5 14 54 24 54 12z m554 -18 c13 -22 -2 -51 -29 -56 -20 -5 -35 14 -35 45 0 35
44 43 64 11z m1316 18 c0 -2 -8 -10 -17 -17 -16 -13 -17 -12 -4 4 13 16 21 21
21 13z m-2160 -22 c0 -9 -5 -14 -12 -12 -18 6 -21 28 -4 28 9 0 16 -7 16 -16z
m930 -114 c0 -5 -7 -7 -15 -4 -8 4 -12 10 -9 15 6 11 24 2 24 -11z m705 -79
c-21 -43 -29 -39 -8 4 9 19 18 33 21 31 2 -2 -4 -18 -13 -35z m-1155 -20 c0
-9 -110 -44 -117 -37 -7 7 100 55 110 49 4 -2 7 -8 7 -12z m1100 -67 c-8 -8
-23 -20 -34 -25 -13 -6 -10 0 9 15 34 29 43 33 25 10z m-47 -101 c-25 -50 -43
-54 -43 -9 0 24 5 36 14 36 7 0 20 7 27 16 21 26 23 -2 2 -43z m-413 17 c0
-35 57 -85 158 -138 97 -51 211 -88 237 -78 9 3 24 -28 51 -101 32 -92 35
-107 22 -117 -8 -6 -18 -23 -22 -38 -9 -37 -18 -35 -40 6 -10 19 -24 37 -30
39 -14 5 -169 -17 -184 -27 -7 -4 -12 -25 -12 -47 0 -38 -1 -40 -20 -26 -12 8
-34 36 -51 61 -46 73 -164 228 -206 272 -21 21 -77 65 -124 96 -128 85 -129
84 11 85 66 0 126 5 132 11 13 10 40 18 66 21 6 0 12 -8 12 -19z m-376 -137
l95 -97 62 12 c35 6 66 16 69 22 4 6 10 -34 14 -90 4 -56 4 -105 1 -108 -3 -4
-20 -11 -37 -17 -17 -5 -36 -19 -42 -30 -24 -44 -54 -47 -63 -5 -7 36 -46 70
-79 70 -57 0 -69 14 -102 117 -48 154 -56 187 -43 191 6 2 11 10 11 18 0 27
20 13 114 -83z m533 65 c-3 -7 -5 -2 -5 12 0 14 2 19 5 13 2 -7 2 -19 0 -25z
m159 -25 l-15 -28 0 35 c-1 26 2 31 9 20 8 -12 10 -12 11 5 0 11 3 15 5 8 3
-6 -2 -24 -10 -40z m-125 23 c15 9 10 -6 -6 -23 -20 -20 -26 -14 -18 17 4 14
8 19 11 12 2 -7 8 -10 13 -6z m99 8 c0 -18 -24 -45 -36 -40 -8 3 -14 -1 -14
-9 0 -20 -19 -19 -26 0 -7 18 32 54 59 55 9 0 17 -3 17 -6z m-145 -24 c3 -5 1
-10 -4 -10 -6 0 -11 5 -11 10 0 6 2 10 4 10 3 0 8 -4 11 -10z m255 -101 c0 -6
-4 -7 -10 -4 -5 3 -10 11 -10 16 0 6 5 7 10 4 6 -3 10 -11 10 -16z m-523 -261
c-3 -7 -5 -2 -5 12 0 14 2 19 5 13 2 -7 2 -19 0 -25z m-247 18 c0 -11 -19 -15
-25 -6 -3 5 1 10 9 10 9 0 16 -2 16 -4z m698 -45 c-24 -31 -39 -34 -46 -11 -3
9 1 11 12 7 9 -4 16 -2 16 4 0 6 -8 9 -17 8 -10 -1 -27 0 -38 1 -17 3 28 12
83 18 9 1 5 -9 -10 -27z m72 -25 c0 -12 -5 -7 -19 24 -11 24 -11 24 3 6 9 -11
16 -24 16 -30z m-610 -5 c0 -28 -21 -37 -36 -16 -16 22 -10 35 17 35 12 0 19
-7 19 -19z m399 -105 c0 -26 -2 -28 -8 -11 -4 11 -11 34 -15 50 -6 28 -5 29 9
11 8 -11 15 -34 14 -50z m-312 -8 c-3 -7 -5 -2 -5 12 0 14 2 19 5 13 2 -7 2
-19 0 -25z m563 -47 c0 -6 -4 -13 -10 -16 -5 -3 -10 -16 -10 -29 0 -42 -56
-76 -113 -68 -45 5 -45 29 0 24 17 -2 46 3 66 11 27 12 36 22 41 51 4 20 11
36 16 36 6 0 10 -4 10 -9z m73 -96 c-37 -44 -53 -55 -53 -35 0 15 63 80 78 80
7 0 -4 -20 -25 -45z"/>
<path d="M1908 1692 c-28 -3 -28 -4 -28 -77 l0 -73 74 -7 c41 -4 80 -4 86 0
13 8 9 129 -4 142 -9 9 -95 19 -128 15z m51 -39 c9 -15 12 -15 20 -4 7 11 12
10 30 -5 27 -23 27 -38 -1 -64 -29 -27 -42 -26 -24 3 9 13 12 28 7 36 -6 9
-11 10 -15 3 -4 -6 -14 -8 -23 -5 -11 4 -14 2 -11 -8 3 -8 10 -13 16 -12 6 2
9 -4 6 -12 -9 -22 -26 -18 -50 12 l-22 28 22 22 c25 27 32 28 45 6z"/>
<path d="M1205 2941 c-131 -38 -234 -100 -318 -191 -130 -140 -147 -256 -60
-423 118 -224 484 -331 724 -211 67 33 155 109 184 157 13 24 39 88 57 143 56
169 41 265 -58 381 -52 60 -152 124 -233 147 -73 21 -218 20 -296 -3z m-155
-139 c-11 -2 -29 3 -41 11 -19 14 -20 16 -3 25 14 8 23 5 41 -11 21 -21 21
-22 3 -25z m527 -3 c15 -14 47 -38 70 -53 23 -15 44 -34 47 -42 3 -9 -13 0
-37 20 -24 20 -63 40 -92 47 -52 12 -95 34 -95 48 0 4 18 7 39 7 28 -1 48 -9
68 -27z m-117 -3 c0 -3 -4 -8 -10 -11 -5 -3 -10 -1 -10 4 0 6 5 11 10 11 6 0
10 -2 10 -4z m-374 -102 c21 -32 23 -150 4 -218 -16 -57 -48 -83 -79 -66 -55
29 -44 226 16 292 22 25 40 23 59 -8z m480 -35 c16 -17 19 -37 19 -108 0 -72
-4 -94 -25 -136 -23 -45 -29 -50 -63 -53 -35 -3 -39 -1 -53 35 -27 64 -3 209
42 258 28 31 55 32 80 4z m-666 -299 c-18 -12 -30 -13 -30 -2 0 4 10 9 22 9
18 2 20 0 8 -7z m397 -54 l143 -11 -35 -38 c-36 -39 -104 -76 -140 -77 -66 0
-150 51 -181 111 -20 40 -19 42 29 34 23 -4 106 -12 184 -19z m356 -63 c-14
-11 -20 -10 -35 4 -17 15 -17 17 -1 35 17 19 17 19 35 -4 16 -21 16 -24 1 -35z
m22 -23 c-10 -11 -21 -17 -24 -14 -3 3 3 12 13 20 28 20 32 17 11 -6z"/>
<path d="M428 2898 l-68 -21 -2 -58 c-1 -33 -2 -66 -2 -75 -1 -8 22 -28 51
-45 l52 -30 5 23 c21 103 19 113 -28 108 -13 -1 -17 3 -13 14 4 9 -4 23 -21
35 -39 29 -12 26 32 -4 43 -29 75 -31 117 -9 17 8 36 13 42 11 7 -2 -3 -11
-21 -21 -27 -14 -31 -21 -26 -41 8 -31 -9 -33 -30 -3 -12 16 -16 18 -20 7 -7
-17 -24 -129 -20 -129 1 0 27 9 57 21 54 21 55 22 61 68 4 25 9 58 12 72 4 22
-3 30 -49 62 -29 20 -55 37 -58 36 -2 0 -34 -10 -71 -21z m96 -59 c-7 -12 -61
-11 -69 0 -3 5 5 17 17 25 20 14 24 14 40 -1 10 -8 15 -20 12 -24z"/>
<path d="M2617 2762 l-87 -46 0 -41 c0 -23 -3 -69 -6 -103 l-7 -60 94 -47 c76
-39 98 -46 119 -38 14 4 25 14 25 21 0 7 16 22 35 33 l35 21 -25 -21 c-14 -11
-29 -21 -34 -21 -5 0 -7 -3 -3 -6 10 -10 78 37 71 48 -4 6 -2 8 4 5 5 -4 17
-4 26 -1 13 5 16 25 16 120 l0 114 -27 11 c-16 6 -55 22 -89 34 l-60 23 -87
-46z m39 0 c-3 -5 14 -7 37 -6 27 1 48 -4 60 -14 14 -13 20 -13 30 -2 10 10 9
11 -3 5 -12 -6 -13 -5 -3 6 11 11 20 10 54 -7 l41 -20 -76 -57 -75 -57 -4 -92
-3 -93 -2 97 -2 98 -86 42 -86 41 59 34 c63 35 67 37 59 25z m199 -226 c11 -8
16 -15 10 -16 -5 0 -23 12 -40 26 -31 26 -6 18 30 -10z"/>
<path d="M2809 2703 c-13 -16 -12 -17 4 -4 16 13 21 21 13 21 -2 0 -10 -8 -17
-17z"/>
<path d="M1044 1765 c-14 -25 -24 -48 -21 -51 3 -3 17 17 31 45 33 63 26 67
-10 6z"/>
<path d="M421 1430 c14 -31 19 -36 19 -24 0 6 -7 19 -16 30 -14 18 -14 18 -3
-6z"/>
<path d="M2558 933 c7 -3 16 -2 19 1 4 3 -2 6 -13 5 -11 0 -14 -3 -6 -6z"/>
<path d="M2608 923 c7 -3 16 -2 19 1 4 3 -2 6 -13 5 -11 0 -14 -3 -6 -6z"/>
<path d="M2658 913 c6 -2 18 -2 25 0 6 3 1 5 -13 5 -14 0 -19 -2 -12 -5z"/>
<path d="M2723 903 c9 -2 23 -2 30 0 6 3 -1 5 -18 5 -16 0 -22 -2 -12 -5z"/>
<path d="M2782 892 c15 -6 12 -15 -28 -67 -26 -33 -72 -86 -102 -117 l-56 -58
17 -34 c9 -20 34 -65 57 -102 22 -36 40 -69 40 -73 0 -4 -21 -19 -47 -33 l-47
-26 40 -10 c132 -35 168 -43 178 -39 7 3 39 39 71 81 53 70 57 79 46 102 -6
14 -16 22 -21 19 -22 -13 6 32 47 79 24 26 43 51 43 55 0 10 -110 116 -118
114 -4 -2 -7 1 -7 6 0 18 -95 111 -112 110 -17 0 -17 -1 -1 -7z m59 -152 c6
-16 15 -28 19 -25 4 3 11 -2 14 -11 4 -10 2 -13 -7 -8 -8 5 -8 2 2 -9 16 -20
7 -25 -54 -29 -34 -3 -40 0 -38 17 1 10 -2 27 -7 36 -12 21 15 59 41 59 13 0
24 -10 30 -30z"/>
<path d="M2176 531 c-4 -7 -5 -15 -2 -18 9 -9 19 4 14 18 -4 11 -6 11 -12 0z"/>
<path d="M2430 435 c28 -41 53 -75 56 -75 6 0 1 9 -54 88 -24 34 -46 62 -48
62 -3 0 18 -34 46 -75z"/>
<path d="M2184 478 c3 -13 6 -27 6 -31 0 -5 4 -6 9 -3 11 7 2 56 -11 56 -6 0
-8 -10 -4 -22z"/>
</g>
</svg>
