<?xml version="1.0" standalone="no"?>
<!DOCTYPE svg PUBLIC "-//W3C//DTD SVG 20010904//EN"
 "http://www.w3.org/TR/2001/REC-SVG-20010904/DTD/svg10.dtd">
<svg version="1.0" xmlns="http://www.w3.org/2000/svg"
 width="402.000000pt" height="422.000000pt" viewBox="0 0 402.000000 422.000000"
 preserveAspectRatio="xMidYMid meet">
<metadata>
Created by potrace 1.16, written by Peter Selinger 2001-2019
</metadata>
<g transform="translate(0.000000,422.000000) scale(0.100000,-0.100000)"
fill="#000000" stroke="none">
<path d="M719 4048 l-67 -30 -7 -98 c-6 -90 -9 -99 -31 -109 -22 -9 -33 -4
-106 49 -45 33 -85 60 -89 60 -9 0 -196 -128 -247 -170 -20 -16 -47 -38 -60
-47 -19 -15 -25 -35 -37 -127 -8 -60 -12 -113 -10 -117 3 -4 38 -24 77 -44 40
-21 76 -40 80 -44 4 -3 4 -46 0 -95 l-7 -89 -85 -36 c-123 -52 -114 -37 -106
-163 8 -129 31 -287 43 -298 10 -9 135 -40 161 -40 16 0 19 -7 18 -46 -1 -48
6 -58 92 -124 l32 -26 -21 -51 c-12 -28 -19 -57 -16 -66 6 -15 190 -150 265
-195 l44 -25 56 18 c66 20 81 30 93 64 12 30 22 21 47 -44 15 -39 27 -54 56
-68 51 -25 71 -23 163 11 142 53 138 49 141 115 l3 57 35 0 c19 0 50 7 69 14
32 14 35 18 35 58 0 39 3 45 29 55 27 10 32 7 72 -34 67 -70 161 -126 273
-167 15 -5 11 -13 -33 -52 -55 -50 -58 -60 -36 -123 8 -23 10 -41 4 -41 -5 0
-62 -80 -125 -177 -149 -228 -179 -262 -283 -330 -127 -83 -239 -170 -246
-192 -3 -11 -3 -35 0 -53 6 -33 5 -34 -43 -51 -87 -32 -139 -109 -117 -176 4
-13 -6 -48 -26 -93 -42 -96 -49 -158 -20 -187 29 -29 53 -15 75 44 10 25 21
45 26 45 5 0 11 -18 15 -40 19 -110 134 -167 143 -71 2 18 -1 38 -7 44 -6 8
-6 18 -1 27 8 12 14 10 32 -12 47 -57 128 -57 128 -1 0 17 -8 33 -20 41 -11 7
-20 16 -20 21 0 4 25 27 56 50 46 35 58 39 75 30 12 -6 37 -8 58 -4 l38 6 -25
-73 c-29 -86 -26 -135 12 -230 l25 -62 -39 -43 c-22 -23 -40 -51 -40 -62 0
-10 -7 -24 -15 -31 -25 -21 -56 -120 -53 -169 l3 -46 71 -3 c120 -5 606 71
642 100 14 12 16 96 2 147 -5 20 -15 83 -21 140 -10 92 -15 107 -41 137 -17
19 -41 37 -54 40 -34 9 -32 60 5 122 16 27 32 59 36 70 10 34 28 27 93 -37 57
-57 114 -91 151 -91 10 0 35 -26 58 -59 34 -50 41 -69 47 -131 6 -58 24 -169
37 -226 1 -5 -1 -17 -6 -27 -4 -11 -3 -57 3 -105 9 -81 12 -87 48 -119 22 -19
57 -43 79 -53 124 -57 488 -49 527 13 22 35 -8 216 -43 262 -11 14 -27 25 -35
25 -10 0 -13 7 -8 25 4 17 -3 52 -21 100 l-27 75 30 30 c17 16 42 61 58 100
43 110 54 72 28 -102 -5 -40 -4 -47 14 -57 14 -8 29 -8 51 0 34 12 59 56 88
156 10 35 23 61 28 59 6 -2 9 -7 9 -12 -1 -5 -5 -39 -9 -76 l-7 -68 30 0 c49
0 81 36 140 159 54 114 55 118 53 199 -1 71 2 88 20 114 50 69 37 132 -72 366
l-48 102 39 0 c31 0 44 6 70 36 32 37 34 51 15 110 -9 30 40 87 70 80 32 -8
61 18 79 71 22 63 20 80 -9 99 -34 22 -32 33 15 82 22 23 45 53 50 67 15 38
53 34 79 -10 24 -41 40 -43 107 -14 72 31 73 33 60 79 -9 37 -8 42 16 67 24
24 30 25 53 15 49 -23 64 -16 90 40 31 67 31 82 0 106 -37 29 -33 64 10 85 39
19 44 42 24 123 -12 47 -34 61 -84 52 -16 -3 -30 1 -41 13 -15 17 -16 24 -5
60 12 40 12 43 -16 70 -15 15 -51 37 -79 48 -57 22 -64 19 -93 -37 -15 -28
-41 -23 -89 20 -32 28 -34 28 -62 12 -17 -10 -30 -29 -34 -46 -7 -35 -25 -36
-56 -3 -13 14 -31 25 -41 25 -20 0 -109 -95 -109 -116 0 -8 7 -25 15 -38 13
-19 13 -28 4 -50 -10 -22 -19 -26 -51 -26 -46 0 -52 -11 -53 -95 0 -58 1 -59
32 -68 25 -8 32 -16 38 -44 3 -19 5 -36 3 -37 -2 -1 -15 -10 -30 -19 -30 -19
-37 -52 -18 -87 8 -16 7 -18 -4 -14 -8 3 -30 1 -50 -4 -36 -10 -36 -10 -36 20
0 39 -55 92 -158 153 -62 37 -85 44 -168 55 l-96 13 49 49 c26 27 65 58 85 69
88 45 146 133 172 263 33 159 -17 360 -130 519 -19 26 -34 52 -34 58 0 6 38
102 85 214 47 111 85 208 85 214 0 20 -16 11 -55 -31 l-40 -43 43 40 c23 21
42 35 42 31 0 -4 -34 -56 -76 -115 -42 -58 -111 -163 -155 -233 -71 -114 -97
-165 -155 -293 -23 -53 -31 -23 -14 55 10 45 14 51 21 35 7 -15 8 -12 6 14 -5
41 61 154 195 336 49 66 75 104 57 85 -23 -26 -127 -159 -154 -198 -2 -2 -29
13 -61 31 -72 42 -177 80 -265 97 l-66 12 -6 76 c-4 53 -11 80 -21 88 -19 14
-137 34 -261 44 l-90 8 -87 -44 c-75 -37 -87 -48 -93 -74 -4 -19 -16 -36 -31
-42 -18 -8 -25 -21 -29 -57 -15 -117 -14 -114 -68 -149 l-51 -33 -22 29 c-13
16 -55 53 -93 82 -69 53 -71 55 -72 99 0 26 -4 67 -7 94 -7 47 -7 48 -76 79
l-68 32 -37 -42 -36 -42 -31 19 c-22 13 -33 30 -38 54 -4 20 -13 58 -22 86
-17 60 -37 71 -166 96 -108 20 -132 18 -209 -17z m234 -5 c18 -5 18 -6 -2 -24
-24 -23 -39 -25 -21 -4 14 17 11 19 -65 34 l-50 10 60 -5 c33 -3 68 -8 78 -11z
m-136 -18 c1 -16 1 -16 -3 -2 -6 20 -11 21 -53 6 -33 -12 -35 -17 -25 -68 6
-31 7 -31 24 -11 10 11 27 20 39 20 13 0 21 6 21 18 0 14 2 15 10 2 15 -23 12
-28 -19 -35 -41 -9 -63 -37 -55 -69 3 -14 10 -26 14 -26 4 0 5 -11 2 -25 -2
-14 -6 -24 -8 -23 -1 2 -12 39 -22 83 -36 141 -36 131 1 143 46 15 71 10 74
-13z m250 -47 c-3 -8 -6 -5 -6 6 -1 11 2 17 5 13 3 -3 4 -12 1 -19z m-13 -24
c3 -9 6 -28 6 -44 0 -24 -3 -27 -22 -23 -36 9 -48 23 -48 54 0 25 4 29 29 29
17 0 31 -6 35 -16z m34 -59 l1 -20 -9 20 c-5 11 -8 31 -8 45 l0 25 8 -25 c4
-14 8 -34 8 -45z m-640 -11 c12 -8 20 -19 17 -24 -3 -5 0 -12 6 -16 8 -4 7 -9
-2 -16 -11 -8 -10 -9 3 -5 9 3 24 0 35 -8 17 -13 17 -14 -4 -35 -13 -11 -23
-32 -23 -45 0 -13 -3 -26 -7 -28 -13 -8 -7 51 5 66 7 8 8 18 4 22 -4 5 -1 5 6
1 6 -4 12 -2 12 3 0 14 -37 14 -45 1 -3 -5 -14 -10 -23 -9 -14 0 -13 2 3 9 11
5 14 9 8 9 -7 1 -13 8 -13 17 0 18 -22 14 -28 -6 -3 -8 0 -10 8 -5 8 5 11 4 6
-3 -9 -15 -36 -3 -36 17 -1 11 -13 3 -37 -24 -20 -22 -32 -33 -28 -25 13 22
98 120 105 120 3 0 16 -7 28 -16z m67 -49 c17 -13 26 -24 20 -25 -5 0 -23 11
-40 25 -16 13 -25 24 -20 25 6 0 24 -11 40 -25z m488 -3 c39 -12 57 -22 57
-34 0 -11 -6 -15 -20 -11 -18 5 -20 1 -19 -53 1 -33 4 -83 7 -113 l7 -53 55
-17 c30 -10 73 -27 96 -39 25 -13 45 -17 50 -12 6 6 20 0 37 -15 20 -19 25
-32 21 -53 -3 -18 2 -36 15 -52 17 -21 23 -23 40 -13 17 11 22 8 40 -23 23
-39 26 -60 11 -69 -12 -8 -53 -85 -48 -91 2 -2 26 31 54 72 111 171 304 304
533 366 63 18 106 21 256 22 207 1 267 -10 399 -73 131 -63 128 -56 74 -142
-85 -138 -105 -198 -87 -262 9 -33 7 -40 -25 -81 -51 -67 -70 -134 -71 -246 0
-81 4 -103 26 -150 50 -106 133 -169 209 -158 16 3 30 1 30 -3 0 -17 -134
-116 -202 -151 -40 -20 -122 -53 -183 -74 -60 -20 -141 -48 -180 -61 -114 -39
-195 -55 -280 -56 -108 0 -171 16 -291 73 -87 42 -111 59 -168 121 -118 128
-170 273 -167 467 2 102 26 224 56 282 16 32 9 100 -10 100 -7 0 -18 -7 -26
-16 -11 -14 -14 -12 -27 13 -8 15 -23 38 -34 50 l-20 22 22 31 22 32 -33 34
c-18 19 -36 34 -41 34 -4 0 -15 -15 -24 -32 -9 -18 -17 -34 -18 -35 -2 -2 -21
5 -44 13 -38 15 -41 20 -44 58 l-3 41 -50 0 -50 0 3 -40 c2 -40 2 -40 -47 -55
l-49 -16 -16 33 c-9 18 -19 33 -24 33 -5 0 -26 -15 -47 -33 l-39 -34 21 -34
21 -34 -25 -42 c-27 -47 -29 -48 -68 -33 -29 11 -37 -1 -48 -72 -5 -36 -4 -38
26 -46 31 -8 32 -11 35 -64 l3 -56 -36 -12 c-19 -6 -35 -13 -35 -14 0 -19 33
-106 41 -106 5 0 23 7 39 15 28 15 28 14 55 -30 l26 -45 -21 -30 c-19 -27 -20
-31 -5 -36 16 -7 22 -2 44 35 7 11 14 9 40 -10 33 -24 37 -39 21 -69 -9 -16
-5 -22 19 -35 55 -28 81 -16 81 36 0 16 7 19 48 19 45 0 48 -2 57 -32 8 -25
15 -32 30 -30 19 3 19 3 1 -11 -16 -11 -18 -23 -14 -65 6 -57 7 -55 -69 -67
l-41 -6 -7 40 c-6 38 -8 40 -56 50 -60 13 -59 13 -59 2 0 -5 -4 -21 -10 -36
l-10 -25 -49 25 c-61 30 -63 34 -48 74 11 29 9 33 -20 62 l-31 32 -32 -23
c-36 -26 -37 -25 -85 63 -21 37 -24 51 -15 62 9 11 6 37 -14 116 -14 56 -26
117 -26 135 0 33 6 38 40 35 27 -2 36 13 47 74 12 63 7 75 -46 104 -13 8 -13
13 0 47 9 22 28 59 43 83 l28 43 23 -22 24 -22 41 33 c28 23 40 39 36 51 -3
13 4 23 22 32 33 16 149 46 182 46 22 0 23 2 17 68 -4 37 -7 86 -7 108 0 40
-2 42 -34 48 -33 6 -46 21 -46 52 0 16 19 14 113 -14z m1147 7 c25 -6 16 -7
-30 -2 -56 5 -63 4 -52 -9 6 -8 9 -18 5 -22 -11 -11 20 -26 40 -20 24 8 21
-12 -5 -30 -29 -20 -48 -20 -48 0 0 8 4 13 9 10 5 -4 4 7 -2 23 -7 20 -15 27
-29 23 -10 -2 -29 3 -43 12 -25 17 -26 17 -19 -9 5 -18 1 -30 -11 -38 -11 -9
-18 -33 -22 -75 -3 -34 -9 -62 -13 -62 -5 0 -7 8 -5 18 2 9 9 58 16 109 l12
92 81 -6 c44 -3 97 -9 116 -14z m-841 -82 l1 -37 -41 20 c-37 20 -48 43 -21
46 7 1 19 2 27 3 8 0 15 11 16 24 0 21 1 21 9 2 5 -11 9 -37 9 -58z m954 67
l37 -7 -2 -76 -2 -76 -3 72 -4 72 -52 9 c-29 5 -43 10 -32 11 11 0 37 -2 58
-5z m-1993 -58 c0 -2 -17 -13 -37 -23 -21 -11 -56 -30 -78 -42 -36 -21 -38
-21 -15 -2 14 11 47 32 74 46 52 26 56 28 56 21z m171 -79 c19 -14 20 -19 9
-32 -7 -8 -17 -15 -22 -15 -6 0 -5 7 2 15 8 10 9 15 1 15 -6 0 -13 -11 -17
-25 -10 -39 -31 -51 -54 -30 -26 23 -26 23 12 80 28 42 32 45 39 27 4 -11 18
-27 30 -35z m939 -31 c9 -15 3 -12 -19 8 -17 17 -31 31 -31 33 0 9 39 -23 50
-41z m869 20 c-2 -2 -56 -5 -119 -8 -63 -3 -99 -2 -80 2 36 8 207 13 199 6z
m-807 -73 c31 -37 31 -47 1 -23 -18 14 -32 28 -32 33 -1 13 16 7 31 -10z
m1446 -299 c73 -118 113 -257 111 -382 l-1 -67 -8 52 c-4 29 -18 72 -30 97
-27 56 -112 142 -157 158 -18 7 -33 19 -33 27 0 32 54 191 64 188 6 -2 30 -35
54 -73z m-1802 -33 c49 -23 107 -88 122 -140 36 -118 -14 -257 -110 -307 -35
-18 -116 -18 -159 0 -40 17 -90 67 -114 115 -23 46 -31 140 -15 195 34 123
164 188 276 137z m-843 -331 c2 -19 1 -44 -4 -55 -7 -19 -8 -19 -8 3 -1 27
-17 28 -90 6 -29 -8 -55 -13 -58 -10 -3 2 15 10 38 16 80 21 111 39 105 63 -5
22 -9 182 -5 202 1 6 5 -35 10 -90 4 -55 10 -116 12 -135z m-72 194 c-19 -8
-39 -21 -45 -28 -7 -9 -18 -11 -31 -6 -18 7 -17 9 10 19 17 6 39 15 50 20 11
6 27 10 35 10 8 0 0 -6 -19 -15z m195 -17 c1 -1 4 -40 5 -87 l4 -85 -37 -6
c-46 -7 -48 -3 -55 113 l-6 87 44 -10 c24 -6 44 -11 45 -12z m2504 -24 c60
-35 99 -125 100 -231 0 -81 -8 -103 -53 -141 -46 -39 -54 -42 -112 -42 -69 0
-93 13 -116 66 -18 40 -22 43 -43 35 -13 -5 -27 -6 -30 -3 -3 4 -6 43 -6 87 0
126 48 210 137 242 41 15 83 10 123 -13z m-2460 3 c0 -3 -4 -8 -10 -11 -5 -3
-10 -1 -10 4 0 6 5 11 10 11 6 0 10 -2 10 -4z m90 -17 c0 -5 -4 -9 -8 -9 -5 0
-9 7 -9 15 0 8 4 12 9 9 4 -3 8 -9 8 -15z m-86 -23 c-10 -8 -21 -12 -24 -10
-5 6 21 24 34 24 6 0 1 -6 -10 -14z m2199 -43 c4 -3 2 -12 -3 -18 -8 -10 -16
-10 -35 -1 -14 6 -25 14 -25 19 0 9 54 10 63 0z m1147 -193 c22 -11 40 -23 40
-26 0 -17 -33 -64 -45 -64 -8 0 -16 -10 -16 -22 l-2 -23 -4 22 c-3 16 -16 26
-44 34 -21 7 -39 14 -39 16 0 12 52 83 61 83 5 0 28 -9 49 -20z m-231 -22 c-5
-18 -9 -34 -9 -35 0 -2 -20 -12 -45 -24 -40 -19 -44 -23 -34 -43 10 -20 10
-20 -5 -2 -23 28 -20 33 19 47 20 8 35 20 35 29 0 19 27 60 40 60 5 0 4 -14
-1 -32z m-149 -19 c0 -5 -4 -7 -10 -4 -6 4 -10 -6 -10 -24 0 -16 -4 -33 -10
-36 -5 -3 -10 2 -10 11 0 16 -1 16 -20 -1 -30 -27 -24 -10 11 30 31 35 49 44
49 24z m243 -16 c-13 -2 -35 -2 -50 0 -16 2 -5 4 22 4 28 0 40 -2 28 -4z m101
-177 c38 -65 32 -69 -9 -7 -19 29 -35 55 -35 57 0 13 21 -11 44 -50z m191 34
c-11 -5 -31 -9 -44 -9 -17 -1 -22 -5 -17 -17 3 -9 8 -34 11 -57 l5 -42 -14 45
c-7 25 -17 52 -21 62 -7 18 9 25 65 26 28 1 31 -1 15 -8z m-1055 -15 c-7 -8
-18 -15 -24 -15 -6 0 -2 7 8 15 25 19 32 19 16 0z m627 4 c-10 -6 -32 -32 -48
-57 -16 -25 -29 -40 -29 -33 0 33 54 101 79 101 13 -1 13 -3 -2 -11z m-139
-73 c16 -18 16 -19 -1 -12 -10 3 -47 6 -82 6 -56 0 -63 2 -58 18 4 15 12 17
64 12 39 -4 65 -12 77 -24z m329 19 c51 -36 29 -149 -36 -188 -114 -67 -194
90 -90 178 35 29 92 34 126 10z m-3107 -127 c0 -5 -5 -17 -12 -28 -10 -16 -9
-23 7 -40 11 -12 32 -29 47 -38 29 -17 38 -42 14 -42 -18 0 -38 25 -28 35 4 5
1 5 -6 1 -13 -8 -202 128 -202 146 0 9 19 -3 99 -64 39 -29 45 -21 13 20 -38
48 -64 100 -57 112 6 10 125 -88 125 -102z m2905 -86 c-5 -5 -45 74 -45 89 0
7 11 -10 25 -36 13 -27 23 -51 20 -53z m441 40 c-6 -5 -76 32 -76 40 0 5 18
-2 39 -14 22 -12 38 -24 37 -26z m-197 4 c-7 -14 -16 -26 -20 -26 -5 0 0 13 9
29 20 36 27 34 11 -3z m-2542 -71 c10 -28 9 -30 -18 -32 -16 -1 -29 0 -29 3 0
7 33 64 35 61 1 -1 7 -15 12 -32z m2513 31 c0 -15 -99 -66 -127 -66 -25 0 -33
-4 -33 -18 0 -10 -6 -27 -14 -37 -13 -18 -14 -18 -21 6 -4 13 -14 32 -23 42
-12 14 -13 17 -1 18 8 0 4 4 -8 9 -13 5 -23 14 -23 20 0 6 15 4 38 -6 20 -9
44 -18 53 -21 24 -7 94 14 121 37 22 18 38 25 38 16z m-2601 -20 c-2 -2 -26
-6 -54 -10 -34 -4 -43 -3 -30 3 19 9 93 15 84 7z m2468 -22 c-3 -3 -12 -4 -19
-1 -8 3 -5 6 6 6 11 1 17 -2 13 -5z m-2595 -24 c8 -12 24 -20 43 -21 l30 -1
-34 -8 c-29 -7 -40 -4 -68 17 -40 30 -40 33 -8 33 14 0 30 -9 37 -20z m1748
-45 c56 -29 116 -89 181 -182 47 -68 55 -98 15 -54 -10 11 -26 19 -37 18 -18
-1 -19 -15 -3 -65 5 -16 -40 -34 -63 -25 -27 9 -102 57 -103 65 0 13 45 55 66
62 11 3 28 0 40 -9 26 -20 31 -19 29 6 -2 25 -30 45 -40 28 -5 -7 -15 -3 -30
11 -28 27 -70 24 -71 -5 -3 -55 -3 -56 -31 -53 -24 3 -28 -1 -28 -22 0 -20 6
-26 30 -28 43 -5 52 -18 30 -42 -18 -20 -18 -21 2 -42 21 -20 32 -20 65 4 14
10 21 9 37 -6 12 -11 21 -25 21 -33 0 -8 13 -13 36 -13 32 0 36 3 30 20 -21
68 -22 63 17 56 33 -6 37 -5 37 14 0 11 3 20 8 20 19 -1 271 -425 259 -436 -3
-3 -13 8 -21 24 -18 35 -39 53 -29 25 3 -10 11 -24 16 -31 5 -7 7 -15 4 -18
-15 -15 -35 9 -55 64 -24 64 -60 123 -79 130 -9 2 -13 -8 -13 -33 0 -32 -3
-36 -17 -29 -10 4 -57 8 -105 9 l-87 2 -39 49 c-33 42 -61 61 -169 117 -72 37
-136 73 -143 82 -19 22 -24 91 -10 127 19 46 74 112 115 138 34 21 34 22 20
50 -8 16 -15 32 -15 35 0 11 87 -9 130 -30z m980 -35 c0 -5 -5 -10 -11 -10 -5
0 -7 5 -4 10 3 6 8 10 11 10 2 0 4 -4 4 -10z m-533 -75 l3 -60 -20 55 c-24 66
-25 72 -2 68 14 -3 17 -15 19 -63z m96 -66 c65 -30 59 -135 -11 -202 -29 -28
-30 -28 -44 -9 -7 11 -29 29 -48 40 -34 19 -35 21 -32 73 2 45 7 58 32 82 32
29 64 34 103 16z m-1313 -118 c0 -23 5 -30 27 -36 21 -5 31 -1 45 17 l17 23
33 -32 32 -32 -22 -24 c-19 -20 -21 -28 -13 -50 8 -21 17 -27 41 -27 27 0 30
-3 30 -32 0 -41 -8 -53 -41 -61 -17 -4 -31 -18 -39 -37 -11 -27 -10 -33 5 -50
18 -20 18 -21 -15 -55 -34 -35 -34 -35 -53 -16 -28 28 -65 10 -69 -33 -3 -29
-6 -31 -47 -34 -42 -3 -43 -2 -39 23 4 19 0 29 -15 37 -17 9 -24 7 -39 -12
l-19 -24 -26 26 -26 26 21 27 c25 31 15 65 -18 65 -17 0 -20 7 -20 45 0 39 3
45 20 45 28 0 45 46 29 77 -10 19 -8 28 12 58 26 38 37 43 45 20 7 -18 14 -18
38 0 10 8 21 29 25 47 5 23 14 34 31 39 44 12 50 10 50 -20z m-300 -84 c0 -10
-82 -190 -110 -240 -40 -75 -86 -138 -93 -130 -4 3 -13 0 -22 -7 -13 -11 -15
-7 -15 34 0 27 -5 46 -11 46 -6 0 3 16 21 36 17 20 36 47 42 60 6 13 17 24 24
24 17 0 76 76 72 94 -2 8 15 30 37 50 35 31 55 43 55 33z m720 -60 c0 -2 -10
-12 -22 -23 l-23 -19 19 23 c18 21 26 27 26 19z m-98 -114 c-21 -27 -49 -68
-61 -91 -12 -24 -25 -41 -28 -38 -8 8 44 92 84 137 49 55 53 49 5 -8z m434 2
c-11 -8 -22 -12 -25 -9 -6 6 19 24 34 24 6 -1 1 -7 -9 -15z m494 -60 c0 -5 -5
-3 -10 5 -5 8 -10 20 -10 25 0 6 5 3 10 -5 5 -8 10 -19 10 -25z m-267 4 c-8
-8 -19 -8 -40 -1 -28 10 -28 10 12 11 28 1 36 -2 28 -10z m-571 -76 c-58 -4
-61 -5 -52 -23 6 -11 9 -25 8 -32 -2 -6 11 -15 27 -18 29 -6 28 -7 -15 -14
-25 -4 -68 -6 -97 -4 l-52 3 19 40 c22 47 39 53 150 52 73 -1 74 -1 12 -4z
m125 -9 c-3 -3 -12 -4 -19 -1 -8 3 -5 6 6 6 11 1 17 -2 13 -5z m340 -26 c-3
-8 -6 -5 -6 6 -1 11 2 17 5 13 3 -3 4 -12 1 -19z m-660 -38 c-6 -16 -13 -27
-15 -25 -7 7 8 55 17 55 5 0 4 -13 -2 -30z m685 -45 c-3 -5 -9 1 -13 15 -12
42 -8 57 6 25 7 -16 10 -34 7 -40z m318 -23 c102 -40 174 -129 179 -221 3 -68
-32 -138 -37 -73 -1 21 0 24 9 12 17 -24 1 40 -19 74 -9 16 -39 44 -66 63 -26
18 -44 33 -39 33 30 0 119 -85 136 -130 4 -11 6 -9 6 6 1 11 -2 24 -6 28 -4 4
-8 15 -8 24 0 10 -33 33 -88 61 l-89 46 -121 0 c-141 0 -202 -19 -287 -86 -57
-45 -80 -76 -90 -122 l-7 -32 -12 28 c-6 16 -11 42 -11 58 0 93 141 221 274
249 71 15 215 6 276 -18z m-2064 -99 c-3 -8 -2 -12 3 -9 4 3 32 -25 62 -62 29
-37 76 -93 104 -125 l50 -59 -29 -25 c-15 -13 -31 -21 -34 -18 -3 3 4 12 16
21 12 8 22 20 22 26 0 12 -59 88 -68 87 -4 0 -18 -14 -31 -30 l-23 -30 27 -42
c44 -67 6 -22 -93 110 l-91 122 36 30 c36 30 59 32 49 4z m512 -58 c-3 -3 -9
2 -12 12 -6 14 -5 15 5 6 7 -7 10 -15 7 -18z m1445 -10 l17 -35 -46 0 c-51 0
-153 -24 -196 -46 -27 -14 -28 -14 -28 11 0 41 17 62 62 79 56 20 74 23 129
25 42 1 46 -1 62 -34z m-315 -15 c-26 -23 -53 -56 -59 -75 -7 -19 -17 -35 -21
-35 -18 0 34 80 73 114 24 20 45 36 48 36 3 0 -15 -18 -41 -40z m-1053 -84
c23 -23 25 -26 8 -17 -13 6 -23 9 -23 5 0 -4 -9 1 -20 11 -11 10 -17 21 -14
26 3 5 0 19 -6 31 -9 20 -8 20 7 -2 10 -14 31 -38 48 -54z m585 66 c0 -5 -7
-9 -15 -9 -8 0 -15 4 -15 9 0 4 7 8 15 8 8 0 15 -4 15 -8z m172 -22 c39 -11
38 -10 74 -114 l24 -70 -21 -43 c-20 -42 -21 -42 -64 -36 -31 4 -49 1 -66 -11
-27 -19 -20 -21 16 -4 19 9 28 9 37 0 7 -7 20 -12 31 -12 14 0 17 -5 12 -19
-10 -33 34 -68 81 -62 13 1 34 -94 34 -154 0 -58 -17 -76 -86 -90 l-59 -13
-32 32 c-40 39 -70 122 -129 356 l-44 174 22 23 c12 13 42 30 68 38 56 17 57
17 102 5z m-1416 -55 c-11 -8 -27 -15 -35 -15 -10 1 -7 6 9 15 33 19 50 18 26
0z m1862 -7 c5 -7 12 -33 13 -58 l4 -45 -34 0 c-30 0 -36 4 -42 29 -6 21 -3
38 9 58 18 30 34 35 50 16z m-1438 -148 c-6 -11 -13 -20 -16 -20 -2 0 0 9 6
20 6 11 13 20 16 20 2 0 0 -9 -6 -20z m1432 -27 c12 -10 50 -20 108 -27 74 -8
90 -13 90 -27 0 -55 -16 -58 -157 -32 -86 16 -93 19 -93 41 0 25 16 62 27 62
4 0 15 -7 25 -17z m-135 -64 c11 -56 3 -173 -13 -188 -2 -3 -11 5 -20 17 -8
12 -21 22 -29 22 -9 0 -13 12 -12 38 1 20 -2 57 -6 82 -7 43 -5 46 25 68 18
12 35 22 38 22 3 0 11 -27 17 -61z m532 -3 c-9 -8 -10 -7 -5 8 5 15 3 17 -16
12 -13 -3 -42 -6 -65 -6 -34 0 -43 -4 -43 -17 0 -15 -2 -16 -10 -3 -8 13 -10
13 -10 -2 0 -14 12 -18 63 -21 l62 -3 -66 -2 -67 -2 -4 30 -5 30 66 1 c36 0
75 4 86 8 24 10 34 -14 14 -33z m-1809 -66 c-11 -28 -20 -54 -21 -58 0 -4 -4
5 -9 20 -7 22 -3 33 18 57 15 17 28 30 29 31 2 0 -6 -23 -17 -50z m320 -89
c-25 -36 -36 -41 -19 -8 16 31 31 48 37 43 2 -3 -6 -19 -18 -35z m-135 -51
c19 -8 19 -9 -2 -9 -12 -1 -25 4 -28 9 -7 12 2 12 30 0z m945 -237 c30 -8 59
-16 65 -17 5 -2 -26 -6 -70 -9 -60 -5 -84 -11 -95 -25 -15 -18 -17 -16 -43 30
l-28 50 58 -7 c32 -3 83 -13 113 -22z m-1152 -20 c-20 -21 -25 -36 -22 -58 4
-28 3 -28 -7 4 -10 31 -8 36 18 57 38 31 42 30 11 -3z m1273 -40 c13 -16 12
-17 -3 -4 -10 7 -18 15 -18 17 0 8 8 3 21 -13z m-8 -250 c-23 -2 -64 -2 -90 0
-26 2 -7 3 42 3 50 0 71 -1 48 -3z"/>
<path d="M394 3858 l-19 -23 23 19 c12 11 22 21 22 23 0 8 -8 2 -26 -19z"/>
<path d="M1654 3418 l-19 -23 23 19 c21 18 27 26 19 26 -2 0 -12 -10 -23 -22z"/>
<path d="M1702 3345 c-123 -28 -246 -109 -311 -205 -13 -19 6 -3 42 36 50 53
84 80 140 108 96 47 108 46 28 -3 -35 -22 -86 -61 -112 -87 -250 -246 -213
-685 70 -828 209 -106 510 -46 697 139 106 104 144 193 144 335 0 219 -131
408 -337 487 -85 32 -261 41 -361 18z m501 -203 c29 -31 34 -51 15 -70 -21
-21 -45 -13 -77 23 -34 40 -36 46 -19 63 20 20 53 14 81 -16z m-103 -70 c36
-36 51 -86 57 -187 5 -92 -14 -143 -58 -159 -63 -22 -113 42 -128 165 -11 89
-1 152 29 185 31 32 65 30 100 -4z m-620 -107 c-7 -8 -17 -15 -22 -15 -6 0 -5
7 2 15 7 8 17 15 22 15 6 0 5 -7 -2 -15z m89 -50 c26 -34 41 -108 41 -204 0
-64 -3 -81 -19 -95 -61 -55 -118 64 -109 225 5 97 43 129 87 74z m701 -239 c0
-15 -16 -23 -65 -36 -16 -4 -38 -11 -47 -15 -30 -12 -21 20 10 36 61 30 102
37 102 15z m-745 -162 c-21 -16 -45 -18 -45 -6 0 14 10 20 37 20 25 0 26 -1 8
-14z"/>
<path d="M911 2608 c-1 -10 6 -18 14 -18 8 0 15 5 15 11 0 5 -4 8 -9 5 -5 -4
-12 0 -14 6 -3 8 -6 6 -6 -4z"/>
<path d="M1400 2456 c0 -2 8 -10 18 -17 15 -13 16 -12 3 4 -13 16 -21 21 -21
13z"/>
<path d="M945 3158 c-39 -36 -52 -82 -41 -143 9 -45 58 -102 96 -110 46 -10
99 21 121 69 35 76 19 142 -44 190 -47 36 -89 34 -132 -6z"/>
<path d="M300 2978 c0 -9 5 -20 10 -23 13 -8 13 5 0 25 -8 13 -10 13 -10 -2z"/>
<path d="M2897 3026 c-4 -10 -1 -13 8 -9 8 3 12 9 9 14 -7 12 -11 11 -17 -5z"/>
<path d="M2913 2998 c-8 -10 -8 -20 2 -38 8 -14 15 -52 16 -85 2 -43 3 -50 6
-22 2 20 9 37 15 37 12 0 2 63 -16 98 -10 19 -14 21 -23 10z"/>
<path d="M2797 2989 c-46 -27 -62 -148 -27 -206 28 -46 53 -57 89 -39 26 14
40 37 56 94 11 37 -5 118 -26 141 -21 23 -63 27 -92 10z"/>
<path d="M2889 2750 c-14 -16 -24 -31 -22 -34 11 -11 -69 13 -84 26 -12 9 -15
9 -9 1 4 -7 3 -13 -1 -13 -5 0 -9 -9 -9 -20 0 -17 7 -20 47 -20 35 0 56 7 87
30 44 32 53 44 25 33 -12 -5 -15 -2 -10 10 8 22 7 21 -24 -13z m21 -4 c0 -2
-8 -10 -17 -17 -16 -13 -17 -12 -4 4 13 16 21 21 21 13z"/>
<path d="M3685 2799 c-19 -35 -20 -33 24 -48 48 -16 56 -14 69 14 16 34 18 31
-28 49 -51 20 -47 21 -65 -15z"/>
<path d="M540 2356 c0 -2 8 -10 18 -17 15 -13 16 -12 3 4 -13 16 -21 21 -21
13z"/>
<path d="M2755 2030 c-8 -13 14 -52 26 -45 5 4 8 1 7 -7 -4 -17 44 -18 49 -1
6 16 -41 63 -61 63 -8 0 -18 -4 -21 -10z"/>
<path d="M2975 1886 c10 -14 19 -26 22 -26 7 0 -17 39 -28 46 -6 3 -3 -5 6
-20z"/>
<path d="M3106 1667 c3 -10 9 -15 12 -12 3 3 0 11 -7 18 -10 9 -11 8 -5 -6z"/>
<path d="M1884 1819 c-109 -31 -121 -219 -14 -219 41 0 81 30 102 77 25 56 18
104 -19 133 -28 22 -26 22 -69 9z m16 -68 c0 -12 -68 -71 -82 -71 -6 0 -4 8 5
18 10 10 17 23 17 28 0 16 23 34 42 34 10 0 18 -4 18 -9z"/>
<path d="M2248 1533 c7 -3 16 -2 19 1 4 3 -2 6 -13 5 -11 0 -14 -3 -6 -6z"/>
<path d="M1135 1220 c-3 -6 1 -7 9 -4 18 7 21 14 7 14 -6 0 -13 -4 -16 -10z"/>
<path d="M1640 1166 c0 -2 8 -10 18 -17 15 -13 16 -12 3 4 -13 16 -21 21 -21
13z"/>
<path d="M2475 771 c-3 -5 -1 -12 5 -16 5 -3 10 1 10 9 0 18 -6 21 -15 7z"/>
<path d="M2522 720 c12 -16 23 -30 25 -30 2 0 -4 14 -14 30 -9 17 -21 30 -25
30 -5 0 1 -13 14 -30z"/>
<path d="M2887 913 c-4 -3 -7 -10 -7 -14 0 -9 99 -33 107 -25 4 3 1 6 -6 6 -7
0 -10 4 -7 9 4 5 -4 7 -16 4 -19 -4 -20 -3 -8 7 12 8 6 10 -25 5 -29 -4 -35
-3 -20 4 15 7 16 10 4 10 -9 1 -19 -2 -22 -6z"/>
<path d="M2463 435 c5 -13 97 -19 97 -7 0 6 -23 12 -50 14 -30 2 -49 -1 -47
-7z"/>
<path d="M3165 3370 c-7 -12 2 -12 30 0 19 8 19 9 -2 9 -12 1 -25 -3 -28 -9z"/>
<path d="M3308 3370 c17 -7 22 -17 22 -47 0 -21 5 -45 11 -53 7 -11 8 -1 3 35
-7 56 -19 75 -43 74 -11 0 -9 -3 7 -9z"/>
<path d="M3115 3336 c-28 -22 -30 -29 -31 -93 0 -39 -7 -83 -16 -103 -9 -19
-14 -39 -11 -43 14 -22 146 -97 172 -97 99 0 203 103 189 188 -2 13 -18 32
-38 43 l-35 21 28 -24 27 -24 -29 -22 -30 -22 -6 29 c-3 15 -5 34 -3 42 3 16
-20 14 -69 -6 -21 -9 -31 -19 -29 -32 2 -10 1 -12 -1 -5 -6 16 -7 16 -56 -14
l-42 -26 38 34 c32 28 36 37 31 63 -4 25 -49 115 -57 115 -1 0 -15 -11 -32
-24z m20 -16 c-10 -11 -20 -18 -23 -15 -7 6 18 35 31 35 5 0 2 -9 -8 -20z
m193 -212 c-3 -7 -13 -13 -23 -13 -10 0 -20 6 -22 13 -3 7 5 12 22 12 17 0 25
-5 23 -12z m-58 -8 c0 -5 -4 -10 -10 -10 -5 0 -10 5 -10 10 0 6 5 10 10 10 6
0 10 -4 10 -10z"/>
<path d="M947 1876 c-31 -36 -57 -69 -57 -75 0 -12 59 -111 66 -111 6 0 -14
38 -37 72 -11 14 -19 31 -19 37 0 20 34 51 55 50 17 0 17 -2 -5 -11 -20 -9
-22 -12 -8 -15 9 -2 28 3 42 12 36 24 54 16 76 -32 l19 -43 -50 -41 c-27 -23
-49 -46 -49 -51 0 -5 41 -7 90 -5 l90 4 30 39 c23 28 27 40 18 45 -15 8 -98
24 -113 21 -5 -1 -26 36 -45 83 -19 47 -38 85 -41 85 -3 0 -31 -29 -62 -64z"/>
<path d="M317 1893 c-7 -12 -97 -334 -97 -347 0 -6 20 -27 45 -46 24 -19 44
-38 45 -41 0 -3 27 -29 59 -57 l59 -52 93 33 c102 35 95 27 123 139 6 26 5 27
-18 17 -26 -12 -56 -7 -56 10 0 5 20 12 44 15 l44 7 22 82 c13 45 23 87 24 94
0 6 -39 43 -89 82 l-90 71 -102 0 c-56 0 -104 -3 -106 -7z m183 -22 c0 -6 -4
-12 -8 -15 -5 -3 -9 1 -9 9 0 8 4 15 9 15 4 0 8 -4 8 -9z m-51 -25 c7 -5 10
-14 7 -21 -2 -7 11 -27 29 -45 l34 -32 88 5 c53 4 76 2 58 -2 -16 -5 -50 -9
-75 -10 -25 -1 -50 -5 -56 -9 -13 -9 -65 -212 -53 -212 4 0 11 5 14 10 3 6 19
10 36 10 16 0 29 -4 29 -10 0 -5 -15 -10 -34 -10 -42 0 -57 -17 -78 -94 -17
-57 -17 -58 -13 -16 5 41 2 49 -25 75 -33 32 -34 34 -21 54 8 12 13 11 30 -10
11 -13 20 -18 21 -11 0 13 -48 61 -62 62 -5 0 -8 -8 -8 -17 -1 -14 -6 -11 -25
12 -13 17 -36 44 -50 61 -28 35 -33 56 -10 48 8 -4 13 -10 10 -14 -5 -7 131
-115 158 -125 8 -4 19 26 35 92 l23 98 -38 30 c-21 17 -56 46 -78 67 l-40 36
41 -7 c22 -4 46 -11 53 -15z"/>
<path d="M350 1584 c0 -8 5 -12 10 -9 6 4 8 11 5 16 -9 14 -15 11 -15 -7z"/>
<path d="M3510 1671 c0 -5 -3 -16 -6 -25 -3 -9 -1 -16 5 -16 6 0 11 9 11 19 0
11 6 22 13 24 7 3 5 6 -5 6 -10 1 -18 -3 -18 -8z"/>
<path d="M3587 1670 c19 -21 -12 -50 -54 -50 -44 0 -42 -14 5 -33 35 -15 38
-15 55 5 9 11 17 30 17 43 0 12 -8 29 -17 36 -15 11 -16 11 -6 -1z"/>
</g>
</svg>
