<?xml version="1.0" standalone="no"?>
<!DOCTYPE svg PUBLIC "-//W3C//DTD SVG 20010904//EN"
 "http://www.w3.org/TR/2001/REC-SVG-20010904/DTD/svg10.dtd">
<svg version="1.0" xmlns="http://www.w3.org/2000/svg"
 width="368.000000pt" height="436.000000pt" viewBox="0 0 368.000000 436.000000"
 preserveAspectRatio="xMidYMid meet">
<metadata>
Created by potrace 1.16, written by Peter Selinger 2001-2019
</metadata>
<g transform="translate(0.000000,436.000000) scale(0.100000,-0.100000)"
fill="#000000" stroke="none">
<path d="M2040 4019 c-117 -18 -274 -80 -374 -148 -31 -21 -59 -30 -111 -36
-128 -13 -215 -41 -257 -82 -65 -64 -72 -97 -64 -306 3 -100 9 -194 12 -208 6
-25 2 -28 -63 -49 -142 -46 -289 -143 -354 -233 -23 -32 -42 -45 -91 -61 l-62
-21 -27 -83 c-15 -46 -31 -103 -35 -127 -4 -32 -12 -46 -26 -51 -11 -3 -35
-19 -54 -36 -42 -37 -58 -90 -77 -248 l-14 -115 44 -110 c89 -223 199 -413
254 -435 42 -18 125 -6 291 41 77 22 142 38 144 36 6 -6 -74 -98 -220 -252
-77 -83 -161 -174 -186 -202 -44 -51 -52 -55 -200 -109 -85 -31 -161 -61 -167
-66 -16 -13 -89 -167 -114 -241 -22 -66 -36 -177 -23 -177 5 0 36 27 69 61 68
69 66 68 205 23 l75 -25 59 -85 c33 -47 69 -92 80 -100 22 -15 165 -19 263 -8
51 6 55 9 114 81 63 78 110 108 178 115 41 4 40 4 72 -174 l21 -118 -21 -28
c-11 -16 -25 -41 -30 -55 -6 -15 -27 -35 -48 -46 -76 -39 -124 -82 -145 -128
-11 -24 -17 -48 -13 -51 12 -12 491 -5 601 8 l107 13 -7 91 c-3 51 -22 153
-41 231 -21 80 -38 179 -42 232 l-6 92 26 6 c60 15 65 9 141 -155 109 -235
116 -255 129 -381 l12 -114 32 -15 c18 -8 33 -21 33 -27 0 -16 -12 -17 -28 -1
-9 9 -12 9 -12 -1 0 -16 109 -65 180 -81 83 -18 295 -10 339 14 33 18 33 19
27 69 -10 91 -35 168 -102 314 -35 79 -64 147 -64 153 0 8 8 8 23 3 63 -23
219 3 268 45 l31 25 108 -108 c100 -100 111 -108 154 -112 78 -9 291 42 303
73 3 8 -7 30 -21 48 -14 19 -26 41 -26 48 0 7 41 49 91 93 133 118 182 204
205 359 15 99 18 185 8 236 -6 28 -15 36 -63 58 -233 104 -362 175 -465 253
-60 46 -111 89 -112 94 -2 6 19 24 47 40 49 29 149 127 149 146 0 12 -75 65
-190 136 -96 58 -330 246 -330 264 0 6 13 29 29 52 15 23 43 69 60 102 l32 60
-32 27 c-41 34 -137 73 -220 89 -90 16 -99 21 -64 29 99 23 154 67 196 155 46
95 38 236 -17 296 -14 15 -9 21 53 65 131 93 253 241 253 307 0 32 -19 55 -57
68 -56 20 -260 17 -361 -5 -46 -10 -85 -16 -87 -14 -2 2 -19 45 -39 96 -56
147 -142 314 -178 349 -39 37 -85 45 -178 32z m460 -686 c19 -31 60 -135 60
-150 0 -2 -9 -1 -20 2 -30 9 -82 -47 -110 -120 -21 -51 -24 -78 -25 -180 0
-106 3 -124 22 -157 l22 -37 -52 -47 c-67 -60 -281 -165 -405 -198 -120 -32
-229 -41 -312 -26 -81 15 -192 66 -247 114 -48 42 -117 169 -107 198 3 10 1
18 -4 18 -12 0 -22 59 -11 66 4 2 11 -10 14 -28 4 -18 21 -62 38 -98 17 -36
31 -70 30 -77 0 -7 2 -11 6 -10 4 1 22 -13 40 -31 85 -84 220 -122 367 -102
110 14 244 53 316 92 73 39 151 121 186 195 24 52 27 69 27 163 -1 120 -21
185 -80 263 -32 42 -33 45 -14 50 15 4 17 2 10 -6 -13 -16 34 -71 52 -61 6 4
36 23 64 42 48 31 52 36 41 55 -11 22 -11 22 11 3 25 -22 28 -10 5 22 l-15 22
-52 -26 c-29 -15 -49 -23 -46 -20 5 6 160 104 166 106 0 0 11 -17 23 -37z
m-560 -238 c-14 -8 -29 -14 -35 -14 -5 0 1 6 15 14 14 8 30 14 35 14 6 0 -1
-6 -15 -14z m71 -35 c47 -26 91 -179 69 -244 -20 -62 -73 -74 -113 -27 -48 57
-68 221 -33 260 21 23 47 27 77 11z m477 -13 c2 -11 -3 -17 -17 -17 -23 0 -35
15 -26 31 10 15 39 6 43 -14z m46 -13 c25 -10 19 -22 -9 -16 -14 2 -25 8 -25
13 0 10 12 11 34 3z m37 -67 c-8 -8 -11 -7 -11 4 0 20 13 34 18 19 3 -7 -1
-17 -7 -23z m-1681 -27 c0 -5 -8 -10 -17 -10 -15 0 -16 2 -3 10 19 12 20 12
20 0z m-55 -70 c-10 -11 -20 -18 -23 -15 -7 6 18 35 31 35 5 0 2 -9 -8 -20z
m704 6 c18 -22 51 -127 53 -168 1 -25 -5 -45 -16 -56 -15 -15 -19 -15 -44 -2
-34 19 -69 90 -78 158 -7 52 -6 52 27 67 42 18 44 18 58 1z m-539 -76 c0 -5
-4 -10 -10 -10 -5 0 -10 5 -10 10 0 6 5 10 10 10 6 0 10 -4 10 -10z m251 -46
c7 -60 50 -135 90 -161 19 -13 57 -44 86 -70 l52 -48 -24 -25 c-31 -33 -31
-57 0 -100 25 -34 25 -50 -2 -50 -9 0 -52 -23 -95 -50 -43 -28 -94 -56 -113
-64 -51 -22 -205 -59 -212 -52 -3 3 0 52 7 108 24 197 24 211 2 255 l-21 40
25 24 c38 36 57 77 51 115 -4 25 0 37 19 55 13 12 26 30 29 40 4 11 19 19 38
22 57 7 62 4 68 -39z m-381 -29 c15 -18 6 -45 -13 -45 -20 0 -40 27 -33 45 7
19 30 19 46 0z m1320 7 c0 -14 -24 -32 -42 -32 -11 0 -32 -7 -48 -15 -25 -13
-30 -13 -30 -1 0 12 32 32 80 49 23 8 40 8 40 -1z m-50 -52 c0 -5 -5 -10 -11
-10 -5 0 -7 5 -4 10 3 6 8 10 11 10 2 0 4 -4 4 -10z m-610 -80 c0 -5 -4 -10
-10 -10 -5 0 -10 5 -10 10 0 6 5 10 10 10 6 0 10 -4 10 -10z m735 -120 c-3 -5
-14 -10 -23 -10 -15 0 -15 2 -2 10 20 13 33 13 25 0z m-1635 -190 c0 -5 -7
-10 -15 -10 -8 0 -15 5 -15 10 0 6 7 10 15 10 8 0 15 -4 15 -10z m1985 -1140
c-14 -27 -28 -50 -30 -50 -3 0 6 23 20 50 14 28 28 50 30 50 3 0 -6 -22 -20
-50z"/>
<path d="M2130 2530 c-9 -6 -10 -10 -3 -10 6 0 15 5 18 10 8 12 4 12 -15 0z"/>
<path d="M2020 2486 c0 -2 7 -7 16 -10 8 -3 12 -2 9 4 -6 10 -25 14 -25 6z"/>
<path d="M1950 2460 c0 -5 10 -10 23 -10 18 0 19 2 7 10 -19 13 -30 13 -30 0z"/>
</g>
</svg>
