<?xml version="1.0" standalone="no"?>
<!DOCTYPE svg PUBLIC "-//W3C//DTD SVG 20010904//EN"
 "http://www.w3.org/TR/2001/REC-SVG-20010904/DTD/svg10.dtd">
<svg version="1.0" xmlns="http://www.w3.org/2000/svg"
 width="336.000000pt" height="356.000000pt" viewBox="0 0 336.000000 356.000000"
 preserveAspectRatio="xMidYMid meet">
<metadata>
Created by potrace 1.16, written by Peter Selinger 2001-2019
</metadata>
<g transform="translate(0.000000,356.000000) scale(0.100000,-0.100000)"
fill="#000000" stroke="none">
<path d="M317 3311 c6 -53 -6 -99 -45 -176 -20 -39 -26 -65 -26 -121 -1 -61 3
-76 28 -114 26 -40 29 -52 32 -154 4 -133 7 -162 17 -172 4 -4 7 -32 7 -62 0
-45 -4 -57 -24 -73 -24 -19 -51 -85 -80 -199 -13 -48 -12 -59 3 -100 l17 -45
-32 -42 c-42 -55 -76 -146 -78 -208 -1 -43 6 -62 48 -135 160 -274 230 -346
388 -395 l57 -17 90 30 c50 17 91 29 91 26 0 -2 -16 -37 -36 -76 -59 -118
-173 -259 -398 -495 l-88 -93 37 -67 c40 -73 84 -133 149 -200 42 -44 60 -52
69 -30 3 9 18 12 51 8 37 -5 49 -11 59 -31 11 -22 8 -37 -24 -120 -54 -140
-56 -153 -23 -179 41 -32 98 -43 213 -39 139 4 214 32 232 87 24 70 80 161
100 161 13 0 33 21 61 65 36 56 48 67 82 76 119 30 225 71 220 84 -7 18 14 85
27 85 5 0 9 -1 9 -2 0 -32 42 -203 50 -208 6 -4 36 -13 66 -20 l53 -13 -7 -61
c-4 -34 -7 -81 -7 -105 l0 -45 80 -18 c188 -42 319 -60 399 -55 43 3 83 10 88
15 19 19 -1 58 -61 123 l-59 65 10 59 c5 33 10 60 11 61 1 1 46 16 100 33 53
18 95 37 92 42 -4 5 0 6 7 4 16 -6 144 39 141 49 -2 4 -35 23 -75 44 -40 21
-105 59 -145 85 -57 38 -73 54 -79 80 -4 20 -25 49 -55 77 -43 39 -144 189
-134 198 2 2 39 -9 83 -24 73 -24 84 -26 124 -14 24 7 60 14 81 17 l38 5 -26
-37 c-69 -102 3 -149 160 -106 295 81 577 356 592 578 12 167 -56 242 -228
251 -65 3 -106 -1 -175 -18 -125 -31 -282 -108 -347 -171 l-52 -50 -33 15
c-18 9 -39 16 -47 16 -8 0 -37 14 -65 31 -29 18 -59 29 -70 26 -29 -8 -78 29
-100 75 -11 24 -53 84 -94 134 l-73 91 28 38 c16 21 29 43 29 49 0 6 -18 27
-41 47 l-42 36 64 31 c35 17 71 36 79 41 8 5 28 13 43 16 39 8 124 90 153 147
71 139 66 322 -11 404 -16 18 -45 61 -62 96 -18 35 -53 86 -78 115 -33 38 -45
60 -46 85 0 27 -2 30 -9 13 -15 -34 -11 -43 34 -94 79 -88 128 -198 125 -280
-1 -20 -3 -27 -5 -16 -14 64 -28 104 -35 100 -4 -3 -13 4 -19 16 -7 11 -28 39
-48 62 -20 22 -29 38 -20 34 9 -3 19 -1 21 6 2 7 13 -6 25 -28 12 -22 21 -36
22 -31 0 14 -58 112 -76 127 -24 20 -44 20 -52 0 -6 -16 -10 -15 -47 6 -33 19
-35 27 -5 25 3 0 11 6 18 14 11 12 6 13 -32 8 -42 -6 -45 -5 -61 26 -21 40
-12 52 10 13 9 -15 13 -19 9 -8 -3 11 -10 34 -14 50 -4 17 -8 26 -9 22 -1 -9
-31 18 -31 28 0 10 43 -16 109 -68 38 -30 61 -42 56 -31 -13 28 -18 170 -7
190 7 12 11 -7 17 -67 11 -124 18 -76 10 67 -6 106 -9 125 -23 122 -10 -2 -25
-32 -41 -81 -14 -42 -29 -77 -33 -77 -5 0 -4 9 2 19 5 11 10 29 10 40 0 36
-34 44 -159 38 -172 -9 -407 -73 -536 -147 l-53 -30 -22 81 c-12 44 -19 83
-16 87 4 3 23 -3 44 -13 20 -11 41 -21 45 -23 5 -2 -5 23 -22 55 -37 74 -138
169 -159 149 -6 -7 11 -165 34 -314 14 -86 13 -94 -3 -117 -10 -13 -24 -25
-31 -25 -27 0 -113 -94 -144 -158 -29 -58 -33 -77 -36 -168 -4 -94 -2 -107 22
-161 31 -67 75 -116 120 -134 32 -12 96 -67 96 -81 0 -4 -12 -8 -26 -8 -33 0
-146 -29 -158 -40 -5 -5 -3 -38 4 -76 10 -53 10 -69 1 -72 -7 -2 -35 -19 -63
-38 -28 -19 -52 -33 -53 -32 -2 2 -15 28 -30 58 -15 30 -39 70 -53 88 -23 30
-23 34 -9 50 27 30 37 68 26 101 -10 28 -33 46 -47 37 -10 -6 -8 74 2 108 10
33 -8 94 -33 113 -24 19 -58 15 -74 -7 -13 -19 -15 -18 -21 26 -3 26 -6 72 -6
102 0 69 -29 253 -42 269 -7 9 -3 21 15 42 35 42 61 123 52 169 -9 56 -16 73
-24 67 -9 -5 -41 70 -41 96 0 13 -86 139 -96 139 -1 0 0 -22 3 -49z m669 -27
c10 -8 13 -13 7 -9 -7 3 -13 1 -13 -5 0 -7 8 -9 19 -5 20 6 31 -7 81 -89 l23
-39 -47 28 c-26 15 -49 25 -52 22 -3 -3 13 -80 36 -171 23 -91 39 -174 35
-185 -3 -10 1 -23 9 -30 9 -7 24 -37 36 -67 23 -63 27 -210 7 -257 -10 -25
-12 -13 -11 80 0 66 -1 79 -3 35 -3 -63 -6 -72 -18 -62 -8 7 -15 20 -15 29 0
14 -2 14 -10 1 -7 -11 -10 -5 -10 24 0 25 6 43 18 52 16 12 15 13 -4 8 -17 -5
-22 2 -34 47 -17 62 -74 129 -109 129 -13 0 -37 -9 -54 -21 -29 -18 -28 -17 6
14 42 39 99 53 144 37 l28 -10 -30 26 c-16 15 -23 24 -14 21 12 -4 18 2 22 21
3 15 1 32 -3 37 -5 6 -12 39 -16 75 -4 36 -20 110 -36 165 -15 55 -28 103 -28
107 0 13 15 9 36 -8z m-606 -58 c0 -55 -17 -62 -24 -10 -10 73 -8 83 9 60 8
-11 15 -34 15 -50z m29 -56 c0 -10 -3 -8 -9 5 -12 27 -12 43 0 25 5 -8 9 -22
9 -30z m1458 -12 c-3 -7 -5 -2 -5 12 0 14 2 19 5 13 2 -7 2 -19 0 -25z m-143
-27 c-72 -26 -114 -50 -114 -64 0 -6 25 -40 55 -73 30 -34 59 -74 65 -88 15
-41 -5 -30 -25 13 -17 38 -102 132 -90 100 4 -11 0 -18 -13 -21 -20 -6 -20
-10 -10 -93 3 -16 -5 -21 -47 -27 -49 -7 -139 -36 -202 -64 -40 -18 -63 -18
-92 2 -21 15 -24 15 -52 -12 -16 -15 -28 -33 -26 -39 3 -5 0 -18 -5 -27 -7
-14 -5 -16 9 -11 16 6 16 5 4 -10 -12 -15 -12 -17 2 -12 24 10 30 -12 11 -40
-9 -14 -18 -24 -21 -22 -2 2 -10 31 -19 63 -8 32 -22 70 -30 82 -9 13 -14 26
-11 28 2 2 10 -7 17 -21 17 -32 25 -31 47 1 25 36 44 56 78 82 17 12 22 19 13
16 -13 -4 -18 -1 -18 11 0 9 -4 14 -9 11 -5 -3 -17 11 -26 31 -17 35 -17 37 0
49 10 8 22 11 26 8 5 -3 9 2 9 10 0 16 -12 21 -23 10 -7 -7 -67 -14 -67 -8 0
8 98 52 163 73 116 39 236 59 347 59 l105 1 -51 -18z m119 -129 l-8 -44 -40
32 c-22 17 -47 36 -55 40 -13 8 -10 14 13 37 l27 28 0 -25 c0 -31 14 -55 28
-46 5 3 13 23 17 43 4 21 10 42 13 48 10 15 13 -64 5 -113z m-1498 68 c-4 -6
-1 -17 5 -25 7 -9 8 -15 2 -15 -12 0 -24 29 -16 41 3 5 7 9 10 9 3 0 2 -5 -1
-10z m1360 -170 c3 -5 1 -10 -4 -10 -6 0 -11 5 -11 10 0 6 2 10 4 10 3 0 8 -4
11 -10z m-1307 -68 c2 -7 -2 -10 -12 -6 -9 3 -16 2 -16 -4 0 -5 8 -12 19 -15
13 -3 20 -17 25 -53 4 -27 9 -66 12 -87 5 -33 4 -36 -13 -31 -17 5 -17 4 1
-10 11 -9 18 -17 15 -19 -10 -9 -99 -16 -99 -8 0 6 10 11 22 13 12 2 23 9 26
15 2 9 -5 11 -27 7 l-31 -6 0 80 c0 71 3 83 20 92 26 14 26 34 -1 27 -17 -5
-18 -3 -8 9 14 17 61 15 67 -4z m902 -52 c0 -5 -5 -10 -11 -10 -5 0 -7 5 -4
10 3 6 8 10 11 10 2 0 4 -4 4 -10z m143 -34 c-17 -12 -63 -27 -63 -21 0 2 14
12 32 23 34 22 63 19 31 -2z m-510 -28 c-2 -5 6 -17 17 -28 15 -15 20 -32 19
-72 -1 -29 -3 -45 -6 -35 -4 14 -8 16 -19 6 -11 -9 -14 -8 -14 9 0 27 -29 94
-30 67 0 -18 -2 -17 -17 5 -31 44 -24 62 20 58 18 -2 31 -6 30 -10z m-20 -100
c4 -12 2 -25 -2 -28 -5 -3 -10 -14 -12 -24 -8 -38 -29 -30 -29 11 0 55 32 85
43 41z m1196 -36 c10 -20 22 -61 26 -90 7 -52 7 -54 -16 -50 -22 3 -25 9 -31
72 -4 38 -9 80 -13 94 -8 34 11 19 34 -26z m-669 3 c16 -8 40 -34 54 -58 25
-42 45 -127 31 -127 -4 0 -24 14 -43 32 -37 32 -149 88 -177 88 -23 0 -18 19
14 51 34 33 75 38 121 14z m-1033 -37 c-3 -8 -6 -5 -6 6 -1 11 2 17 5 13 3 -3
4 -12 1 -19z m1509 -13 c15 -60 -37 -208 -94 -267 -52 -55 -98 -29 -89 51 6
52 65 181 100 219 29 31 75 30 83 -3z m151 -112 c-2 -21 -4 -6 -4 32 0 39 2
55 4 38 2 -18 2 -50 0 -70z m-1512 -3 c10 -11 16 -20 13 -20 -3 0 -13 9 -23
20 -10 11 -16 20 -13 20 3 0 13 -9 23 -20z m1496 -91 c-5 -13 -10 -19 -10 -12
-1 15 10 45 15 40 3 -2 0 -15 -5 -28z m-577 -38 c12 -11 61 -45 110 -75 l89
-56 -36 -15 c-20 -8 -55 -15 -78 -15 -51 0 -91 38 -108 104 -19 78 -14 91 23
57z m-312 -29 c3 7 12 -2 22 -22 l17 -35 -21 25 c-15 17 -20 19 -16 8 8 -26 1
-22 -20 10 -14 21 -14 24 -2 14 13 -10 17 -10 20 0z m828 -74 c-41 -80 -157
-179 -195 -164 -7 2 -16 1 -21 -4 -5 -4 -36 -10 -69 -13 -68 -7 -67 -6 30 22
95 27 185 88 232 155 21 30 39 52 41 51 2 -2 -6 -23 -18 -47z m-110 18 c0 -3
-4 -8 -10 -11 -5 -3 -10 -1 -10 4 0 6 5 11 10 11 6 0 10 -2 10 -4z m-540 -120
c59 -39 60 -50 1 -14 -56 33 -120 87 -132 111 -7 14 5 6 32 -20 24 -23 69 -58
99 -77z m-315 5 c34 -7 35 -9 10 -9 -16 0 -43 4 -60 8 -42 11 -1 11 50 1z
m-746 -51 c0 -10 -3 -8 -9 5 -12 27 -12 43 0 25 5 -8 9 -22 9 -30z m854 26 c8
-8 23 -12 34 -10 35 9 150 -57 136 -78 -3 -6 1 -14 8 -19 26 -16 -6 -8 -41 11
-19 10 -61 30 -92 45 -32 15 -55 32 -52 36 3 5 -5 13 -18 18 -16 7 -18 10 -6
10 9 1 23 -5 31 -13z m-475 -131 c27 -55 57 -125 66 -157 17 -59 22 -163 8
-154 -5 3 -9 -1 -9 -8 0 -10 6 -10 24 -2 21 10 24 16 20 51 -3 22 -8 49 -12
60 -4 13 -1 11 9 -5 28 -47 33 -211 5 -194 -5 3 -9 0 -9 -7 0 -7 -3 -10 -6 -6
-3 3 -1 22 6 42 14 42 5 59 -16 31 -8 -11 -14 -14 -14 -7 0 7 -5 9 -10 6 -6
-4 -8 -10 -5 -14 2 -5 -5 -17 -17 -27 -13 -12 -18 -13 -12 -4 5 8 9 31 9 50 2
87 6 120 15 120 6 0 11 -17 12 -37 1 -37 1 -37 5 -6 5 37 -29 158 -63 226 -23
44 -40 65 -28 32 4 -8 2 -21 -4 -28 -5 -6 -15 -30 -22 -52 -14 -46 -30 -66
-37 -47 -3 8 -11 4 -25 -13 -11 -14 -29 -30 -41 -37 -14 -7 -6 7 21 35 23 26
42 51 42 57 0 6 4 9 9 6 5 -3 8 0 8 7 -1 6 5 32 13 55 13 43 10 72 -15 137 -7
18 -6 18 8 5 9 -8 38 -60 65 -115z m487 29 c27 -18 60 -41 73 -52 l23 -18 -26
-12 c-24 -11 -34 -8 -96 24 -74 39 -107 74 -69 74 23 0 26 10 8 29 -18 18 20
-1 87 -45z m82 9 c11 -27 -13 -35 -38 -13 -13 12 -18 18 -10 14 10 -5 13 -3 8
8 -4 12 -1 14 15 10 11 -2 22 -11 25 -19z m-447 -47 c0 -3 -15 -14 -32 -26
l-33 -22 28 26 c27 25 37 31 37 22z m47 -27 c8 -8 17 -8 32 0 12 7 21 9 21 7
0 -9 -51 -56 -60 -56 -14 0 -12 18 3 23 6 2 -1 4 -16 4 -34 1 -46 11 -27 23
20 13 34 12 47 -1z m-660 -21 c-3 -8 -6 -5 -6 6 -1 11 2 17 5 13 3 -3 4 -12 1
-19z m1346 -67 c-2 -3 -18 10 -36 29 l-32 34 36 -30 c20 -16 34 -31 32 -33z
m-719 29 c7 -7 -2 -10 -26 -10 -24 0 -38 5 -42 16 -5 14 -1 16 26 10 18 -3 37
-11 42 -16z m-623 -5 c7 18 8 18 8 -5 1 -13 15 -39 33 -57 33 -35 24 -44 -17
-17 -22 14 -46 63 -44 88 1 6 4 2 7 -9 l5 -20 8 20z m1419 -85 c7 11 10 7 11
-20 1 -19 2 -39 4 -45 1 -5 3 -24 3 -41 2 -26 9 -35 42 -51 31 -16 40 -17 44
-7 3 8 13 14 22 14 12 0 15 -6 10 -26 -5 -18 -3 -24 4 -19 7 5 11 0 10 -11 -5
-42 1 -52 31 -58 23 -4 30 -10 25 -22 -3 -9 -6 -25 -6 -37 0 -20 0 -20 -15 -1
-14 19 -14 18 -15 -4 0 -12 9 -30 20 -39 11 -10 20 -27 20 -39 0 -18 -5 -21
-35 -17 -32 3 -35 1 -32 -19 2 -13 2 -17 0 -10 -3 6 -9 12 -14 12 -6 0 -8 -4
-5 -9 3 -5 -2 -8 -12 -7 -12 1 -17 -6 -17 -26 0 -37 -19 -55 -40 -38 -8 7 -15
19 -15 26 0 24 -46 39 -75 26 -23 -11 -27 -9 -35 14 -6 14 -10 32 -10 40 0 21
-27 28 -57 15 -31 -14 -41 -7 -25 19 7 11 12 31 12 45 0 20 -5 25 -25 25 -19
0 -25 5 -25 21 0 16 5 20 20 16 17 -4 20 0 20 28 0 37 17 56 31 34 5 -8 9 -42
9 -76 0 -41 5 -65 13 -70 8 -4 17 -16 20 -26 4 -10 12 -15 18 -12 6 4 20 -2
32 -13 12 -12 41 -24 63 -28 36 -5 45 -3 77 26 31 27 37 38 36 69 l-2 36 -7
-40 -7 -40 -3 45 -2 45 -8 -35 c-18 -75 -94 -90 -154 -30 -24 24 -32 42 -37
88 l-7 57 1 -62 c1 -35 -2 -64 -8 -65 -6 -2 -10 25 -10 67 0 44 -5 73 -12 78
-15 10 -6 35 18 47 15 9 21 5 34 -20 11 -21 23 -30 40 -30 25 0 33 14 15 25
-5 3 -10 29 -10 57 0 36 -5 55 -17 65 -10 8 -12 11 -4 7 14 -7 13 8 -5 63 -4
13 0 11 15 -7 18 -21 22 -23 31 -10z m-256 -170 c3 -19 3 -26 0 -16 -5 15 -8
16 -15 5 -5 -9 -8 18 -7 71 1 83 1 84 9 30 4 -30 10 -71 13 -90z m546 100 c12
-16 19 -30 16 -30 -2 0 -14 14 -26 30 -12 17 -19 30 -16 30 2 0 14 -13 26 -30z
m885 -40 c-16 -4 -64 -16 -105 -25 -41 -10 -82 -20 -90 -22 -11 -3 -10 -2 2 6
21 14 165 50 198 49 23 0 22 -1 -5 -8z m183 -150 c8 0 0 -12 -17 -26 -17 -14
-35 -23 -41 -19 -5 3 -10 2 -10 -3 0 -6 -7 -12 -15 -16 -13 -5 -14 -2 -4 16
12 22 12 22 -14 5 -43 -28 -42 -19 4 19 30 25 49 34 63 30 12 -3 27 -6 34 -6z
m-710 -83 c-15 -7 -52 -36 -82 -64 -61 -59 -82 -70 -41 -21 33 39 115 98 135
98 8 -1 3 -6 -12 -13z m112 -37 c0 -5 -7 -10 -16 -10 -8 0 -12 5 -9 10 3 6 10
10 16 10 5 0 9 -4 9 -10z m-1222 -40 c27 -48 27 -49 2 -43 -14 4 -22 -2 -30
-21 -11 -31 -29 -34 -31 -6 -1 11 -2 26 -3 33 -1 6 5 11 12 9 8 -1 11 2 7 7
-7 12 4 61 14 61 3 0 16 -18 29 -40z m582 36 c0 -3 -4 -8 -10 -11 -5 -3 -10
-1 -10 4 0 6 5 11 10 11 6 0 10 -2 10 -4z m1077 -111 c-9 -8 -18 -11 -22 -6
-3 6 3 14 12 20 24 13 29 6 10 -14z m-1398 -70 c17 -30 31 -60 31 -65 0 -19
-19 0 -40 38 -10 20 -20 30 -20 22 -1 -8 -7 -1 -14 15 -11 26 -7 43 11 45 0 0
15 -25 32 -55z m534 -74 c15 -18 20 -61 7 -61 -5 0 -10 11 -10 24 0 14 -4 28
-10 31 -5 3 -10 16 -9 28 0 15 2 17 6 7 3 -8 11 -21 16 -29z m-636 -13 c-3 -7
-5 -2 -5 12 0 14 2 19 5 13 2 -7 2 -19 0 -25z m-563 -81 c-44 -135 -77 -217
-85 -211 -5 3 -6 -1 -4 -9 6 -15 -83 -280 -96 -285 -4 -2 -5 -10 -2 -19 4 -10
2 -14 -5 -9 -14 9 -25 -28 -16 -57 6 -20 3 -19 -25 8 -48 45 -97 125 -104 168
-5 32 -2 42 21 66 15 15 21 19 13 9 -22 -28 -8 -31 62 -15 38 8 70 11 78 6 8
-5 17 -9 21 -9 8 0 49 122 43 128 -3 3 -5 1 -5 -4 0 -6 -9 -20 -19 -31 -17
-18 -25 -20 -66 -12 -26 5 -51 6 -56 3 -26 -16 1 23 92 131 55 66 115 144 132
173 37 62 47 47 21 -31z m524 56 c-10 -2 -26 -2 -35 0 -10 3 -2 5 17 5 19 0
27 -2 18 -5z m375 -20 c-13 -2 -33 -2 -45 0 -13 2 -3 4 22 4 25 0 35 -2 23 -4z
m-1072 -120 c-43 -61 -171 -196 -201 -215 -19 -11 19 35 91 111 68 72 125 131
127 131 2 0 -6 -12 -17 -27z m1394 -12 c3 -5 1 -12 -5 -16 -5 -3 -10 1 -10 9
0 18 6 21 15 7z m-745 -52 c-8 -14 -59 -33 -68 -25 -8 9 14 38 37 50 30 16 46
3 31 -25z m-123 -15 c-3 -3 -12 -4 -19 -1 -8 3 -5 6 6 6 11 1 17 -2 13 -5z
m46 -69 c-3 -9 -8 -14 -10 -11 -3 3 -2 9 2 15 9 16 15 13 8 -4z m1061 -33 c2
-4 -13 -6 -35 -4 -21 2 -39 6 -39 8 0 7 69 4 74 -4z m-112 -17 c-21 -9 -31
-19 -26 -26 4 -8 3 -9 -4 -5 -19 11 -14 26 11 36 37 15 54 10 19 -5z m198 -97
c19 -16 25 -25 14 -19 -12 5 -24 8 -26 5 -3 -2 -13 7 -22 21 -22 33 -9 31 34
-7z m-1270 -29 c0 -11 -7 -34 -16 -52 -17 -32 -17 -32 3 -14 18 16 21 16 27 2
3 -9 2 -13 -3 -10 -5 3 -12 1 -15 -4 -3 -5 6 -12 21 -15 17 -5 22 -11 16 -17
-6 -6 -19 -6 -37 1 -15 5 -31 10 -36 10 -12 0 -62 -84 -88 -150 l-23 -54 23
-17 22 -17 -28 5 c-15 3 -30 12 -33 19 -3 8 31 82 74 166 44 84 78 159 75 167
-3 8 0 11 7 7 6 -4 11 -16 11 -27z m-218 -45 c3 -3 -5 -16 -18 -29 -13 -13
-37 -53 -54 -89 -18 -37 -36 -64 -41 -61 -9 6 24 79 67 147 23 37 34 44 46 32z
m299 -51 c-6 -10 -22 -31 -36 -48 -22 -25 -22 -23 5 18 30 45 51 66 31 30z
m-411 -247 c-22 -58 -37 -76 -25 -29 10 42 35 97 40 91 3 -3 -4 -31 -15 -62z
m114 48 c3 -8 2 -13 -3 -9 -5 3 -12 -1 -14 -7 -3 -7 -6 -3 -6 10 -1 25 14 30
23 6z m119 -78 c34 -14 107 -90 107 -112 0 -20 -80 -45 -130 -40 -25 2 -70 7
-100 10 -41 4 -49 3 -30 -4 19 -7 12 -8 -30 -4 -78 7 -100 14 -100 30 0 21 69
93 109 114 43 23 128 26 174 6z m1167 -1 c14 -8 40 -14 58 -15 24 0 44 -11 77
-41 59 -54 58 -69 -2 -70 -43 -1 -45 -2 -18 -9 76 -19 -122 -8 -246 14 -165
30 -219 44 -219 57 0 6 8 8 18 5 9 -3 48 -12 87 -21 l70 -16 19 27 c20 28 102
84 120 84 6 -1 22 -7 36 -15z"/>
<path d="M1485 3114 c-129 -30 -135 -32 -126 -57 4 -12 6 -27 4 -34 -3 -7 7
-25 21 -40 23 -25 33 -28 78 -26 55 3 100 27 106 56 2 9 -8 28 -22 42 -14 14
-26 28 -26 30 0 2 15 5 33 7 17 2 31 7 29 13 -2 5 5 12 15 16 32 13 -48 8
-112 -7z"/>
<path d="M1349 2872 c-9 -9 -24 -23 -35 -29 -16 -11 -15 -11 9 -3 76 27 82 31
67 40 -19 12 -22 12 -41 -8z"/>
<path d="M341 2774 c0 -11 3 -14 6 -6 3 7 2 16 -1 19 -3 4 -6 -2 -5 -13z"/>
<path d="M343 2695 c0 -33 2 -45 4 -27 2 18 2 45 0 60 -2 15 -4 0 -4 -33z"/>
<path d="M1612 1568 c5 -13 58 -31 58 -19 0 7 -44 31 -56 31 -3 0 -4 -5 -2
-12z"/>
<path d="M1560 1510 c-26 -26 -25 -63 3 -93 34 -39 71 -42 96 -11 23 29 27 44
10 44 -5 0 -8 -4 -5 -8 2 -4 -13 -9 -35 -9 -30 -2 -42 3 -46 15 -4 9 -11 20
-17 24 -8 5 -7 8 1 8 7 0 10 7 6 17 -4 11 -3 14 5 9 7 -4 12 -1 12 8 0 21 -6
20 -30 -4z"/>
<path d="M1672 1491 c-11 -7 -11 -9 2 -14 10 -4 16 -1 16 8 0 17 -1 17 -18 6z"/>
<path d="M1096 1341 c-3 -5 1 -11 9 -14 9 -4 12 -1 8 9 -6 16 -10 17 -17 5z"/>
<path d="M702 1025 c-7 -14 -12 -36 -11 -48 0 -13 6 -4 14 23 16 50 14 63 -3
25z"/>
</g>
</svg>
