<?xml version="1.0" standalone="no"?>
<!DOCTYPE svg PUBLIC "-//W3C//DTD SVG 20010904//EN"
 "http://www.w3.org/TR/2001/REC-SVG-20010904/DTD/svg10.dtd">
<svg version="1.0" xmlns="http://www.w3.org/2000/svg"
 width="335.000000pt" height="373.000000pt" viewBox="0 0 335.000000 373.000000"
 preserveAspectRatio="xMidYMid meet">
<metadata>
Created by potrace 1.16, written by Peter Selinger 2001-2019
</metadata>
<g transform="translate(0.000000,373.000000) scale(0.100000,-0.100000)"
fill="#000000" stroke="none">
<path d="M870 3413 c0 -6 61 -122 189 -363 107 -200 137 -263 124 -267 -45
-15 -97 -70 -126 -131 -30 -64 -32 -73 -32 -187 0 -144 23 -219 78 -255 73
-47 129 -90 118 -90 -15 0 -83 43 -100 64 -7 9 -18 16 -24 16 -6 0 4 -16 23
-35 40 -41 105 -75 144 -75 16 0 44 -13 65 -29 20 -15 60 -42 90 -59 l54 -30
-51 -26 c-91 -46 -98 -73 -32 -113 17 -9 30 -20 30 -23 0 -3 -38 -37 -85 -75
-47 -39 -85 -74 -85 -79 0 -12 50 22 88 60 18 19 41 38 52 44 18 10 18 9 4
-17 -7 -16 -14 -52 -14 -81 l0 -52 -28 31 c-25 28 -31 30 -48 20 -18 -11 -18
-12 3 -6 18 5 25 1 35 -19 10 -23 8 -29 -10 -49 -12 -13 -22 -32 -22 -42 0
-28 -68 94 -230 416 -78 156 -146 288 -150 293 -8 8 -194 56 -523 135 -167 40
-179 42 -202 27 -13 -9 -33 -16 -43 -16 -11 0 -25 -6 -31 -14 -17 -20 -10 -71
9 -72 32 -3 35 -5 23 -12 -10 -6 -4 -23 23 -68 20 -32 78 -135 130 -227 76
-136 92 -172 84 -187 -16 -31 -11 -93 10 -120 11 -14 20 -36 20 -50 0 -14 7
-36 15 -50 17 -30 19 -22 5 16 -6 15 -8 34 -5 42 5 13 7 13 18 -1 17 -22 81
-37 165 -37 41 0 72 -4 72 -10 0 -13 -124 -13 -168 -1 -62 18 -29 -11 68 -61
60 -31 101 -59 112 -77 l19 -29 -26 -6 c-31 -8 -90 1 -125 19 -14 7 -47 36
-73 64 -57 61 -63 52 -7 -12 22 -25 60 -55 83 -66 32 -15 48 -32 61 -61 10
-23 31 -50 46 -62 16 -11 31 -31 34 -44 3 -12 26 -42 50 -67 84 -83 262 -110
369 -56 57 30 42 2 -19 -36 -118 -71 -360 -242 -413 -290 -33 -31 -68 -76 -84
-108 -28 -58 -70 -179 -82 -237 -7 -35 -7 -35 13 -16 12 10 21 26 20 35 -3 38
3 62 13 56 5 -4 19 1 30 11 10 9 19 13 19 8 0 -4 24 14 53 42 55 53 137 122
165 139 86 52 122 70 212 103 109 41 208 68 216 59 9 -9 -54 -105 -96 -147
-49 -49 -58 -70 -62 -148 -1 -33 -6 -58 -10 -56 -5 3 -17 -16 -28 -41 -25 -59
-25 -70 1 -25 11 19 17 26 14 15 -22 -64 -28 -76 -35 -65 -4 7 -17 -12 -30
-47 -15 -36 -46 -82 -83 -123 -81 -88 -93 -108 -78 -123 20 -20 148 -14 242
11 85 24 86 24 117 76 17 28 63 91 102 139 39 48 75 99 80 112 5 14 16 25 23
25 37 0 86 102 57 120 -8 5 16 36 81 100 52 50 101 95 109 100 29 15 55 -9 94
-85 36 -71 37 -77 21 -89 -33 -24 -14 -111 31 -141 13 -8 24 -21 24 -29 0 -7
31 -73 69 -147 38 -74 74 -153 80 -176 23 -86 170 -150 255 -112 36 17 38 41
9 148 -14 53 -28 109 -31 125 -3 21 -7 25 -14 15 -7 -10 -8 -7 -4 11 2 14 1
41 -4 60 -9 33 -9 32 -4 -10 3 -24 2 -41 -2 -37 -4 4 -15 -6 -25 -22 -28 -46
-122 -67 -151 -33 -30 34 -30 46 -1 19 29 -27 33 -28 72 -17 66 18 85 42 78
104 -3 28 -9 67 -13 86 -9 44 7 31 22 -18 7 -21 12 -28 13 -17 0 11 -6 37 -14
58 -9 26 -10 48 -5 68 11 36 -2 73 -34 109 -20 21 -23 32 -17 67 l6 42 75 -45
c41 -25 82 -53 91 -62 14 -15 69 -281 69 -334 0 -36 18 -24 44 29 16 34 21 52
12 44 -12 -11 -16 -7 -26 26 -6 21 -20 101 -31 178 -11 77 -23 142 -26 145
-19 18 38 -333 58 -356 10 -12 2 -44 -11 -44 -4 0 -10 21 -13 48 -3 26 -17
106 -31 177 -89 458 -96 499 -101 615 -2 47 -6 103 -9 125 l-6 40 19 -50 20
-50 -5 70 -5 70 53 35 c225 146 263 167 319 173 113 11 259 109 259 173 -1 67
-20 256 -30 294 -9 35 -18 45 -50 59 -28 11 -44 28 -59 59 -18 37 -19 47 -9
86 9 34 9 51 0 70 -12 27 -68 56 -108 56 -16 0 -28 10 -39 30 -21 41 -19 64
11 111 29 47 28 78 -7 144 -20 39 -107 131 -96 102 29 -76 10 -145 -44 -164
l-34 -13 25 19 c13 11 27 18 31 15 9 -5 17 64 8 74 -4 4 -19 35 -32 70 -20 47
-22 62 -12 62 8 0 23 -10 35 -22 11 -12 20 -17 20 -12 0 16 -44 54 -63 54 -9
0 -30 26 -52 63 -39 72 -44 93 -17 82 13 -5 14 -4 5 6 -10 10 -17 9 -32 -7
-18 -19 -18 -20 2 -48 l20 -28 -21 11 c-19 10 -22 9 -22 -8 0 -11 5 -32 10
-47 6 -15 9 -28 7 -31 -10 -9 -365 95 -420 123 -47 25 -226 103 -272 119 -41
14 -161 44 -167 41 -2 0 6 7 17 16 34 30 166 76 253 88 110 16 211 2 310 -45
85 -40 126 -69 206 -144 35 -34 52 -45 41 -29 -17 28 -96 98 -155 138 -19 13
-37 25 -39 26 -2 2 2 17 9 34 16 38 3 56 -47 66 -29 6 -34 3 -43 -21 -9 -23
-14 -26 -38 -21 -66 16 -218 18 -287 3 -144 -31 -271 -96 -289 -149 -8 -22 -5
-34 18 -68 15 -23 26 -43 24 -45 -2 -1 -22 -12 -45 -24 -23 -11 -68 -42 -98
-67 -31 -25 -58 -44 -60 -42 -1 2 -25 40 -54 85 -145 233 -341 472 -341 416z
m169 -188 c54 -71 139 -196 189 -277 87 -139 92 -150 86 -188 -6 -34 -9 -38
-22 -28 -8 8 -4 -9 12 -39 41 -82 56 -156 56 -279 0 -92 -4 -125 -26 -190 -14
-44 -30 -83 -36 -89 -8 -7 -9 -4 -3 10 59 158 59 167 -2 182 -33 7 -52 8 -60
1 -10 -8 -13 11 -13 88 0 58 -6 119 -15 147 -18 62 -54 124 -74 132 -10 4 -7
-3 7 -18 13 -13 32 -53 42 -88 22 -73 24 -89 10 -89 -5 0 -10 10 -10 23 0 35
-29 113 -49 131 -27 24 -48 2 -70 -74 -11 -36 -20 -56 -20 -45 -1 31 35 131
59 163 27 36 95 76 117 68 12 -5 13 -3 6 6 -6 7 -52 94 -103 193 -51 99 -110
209 -130 245 -44 77 -90 167 -90 176 0 17 49 -40 139 -161z m1078 89 c1 -5 -4
-17 -12 -27 -11 -15 -17 -16 -34 -7 -23 12 -27 30 -10 47 12 12 51 3 56 -13z
m-639 -229 c-3 -3 -9 2 -12 12 -6 14 -5 15 5 6 7 -7 10 -15 7 -18z m275 -100
c80 -24 187 -63 239 -86 99 -43 143 -71 68 -43 -66 25 -283 25 -364 0 -133
-40 -246 -119 -306 -213 l-27 -42 -26 59 c-14 33 -22 62 -17 65 4 3 11 20 14
39 6 29 2 42 -23 76 -16 23 -28 47 -25 53 8 19 101 89 157 120 69 36 119 32
310 -28z m499 -226 c48 -33 63 -51 94 -113 33 -69 37 -83 41 -183 13 -284
-117 -464 -387 -534 -156 -40 -356 -12 -535 76 -49 25 -105 57 -123 72 l-32
28 25 49 c14 27 25 61 25 75 0 22 5 18 30 -26 37 -65 134 -147 218 -185 171
-78 375 -77 531 1 215 109 293 380 176 612 -26 50 -114 147 -165 182 -24 17
-23 17 10 1 19 -9 61 -34 92 -55z m-169 15 c55 -28 131 -90 150 -123 22 -38
13 -41 -16 -5 -11 14 -38 39 -60 55 -36 26 -40 27 -62 13 -20 -13 -28 -14 -51
-2 -41 20 -53 46 -30 64 25 18 30 18 69 -2z m-406 -238 c22 -40 30 -218 13
-270 -16 -50 -45 -64 -79 -38 -31 23 -38 51 -40 163 -1 94 11 145 41 171 24
22 44 14 65 -26z m913 -68 c0 -25 -16 -22 -24 5 -11 41 -7 54 9 33 8 -11 15
-28 15 -38z m-422 19 c48 -58 -7 -303 -71 -315 -48 -9 -59 50 -32 178 26 123
68 179 103 137z m256 -133 c-4 -15 0 -23 14 -26 14 -4 31 6 59 34 71 74 126
90 205 59 l28 -10 -23 -25 c-12 -13 -47 -59 -77 -101 -58 -82 -110 -118 -153
-107 -12 3 -16 7 -9 10 16 5 15 32 -4 78 -9 22 -16 41 -15 44 0 3 -7 5 -17 5
-14 0 -17 11 -19 65 -1 55 0 59 7 30 5 -19 6 -45 4 -56z m-1299 -124 c34 -33
35 -33 55 -15 11 10 20 14 20 8 0 -5 -9 -18 -19 -27 -19 -17 -21 -17 -61 15
-30 24 -44 46 -55 83 -21 69 -18 81 5 21 11 -28 36 -66 55 -85z m125 65 c-7
-9 -15 -13 -17 -11 -7 7 7 26 19 26 6 0 6 -6 -2 -15z m1460 -3 c0 -4 -15 -16
-32 -26 l-33 -19 24 26 c24 27 41 34 41 19z m-1820 -42 c18 -12 2 -12 -25 0
-13 6 -15 9 -5 9 8 0 22 -4 30 -9z m-10 -24 c0 -3 -4 -8 -10 -11 -5 -3 -10 -1
-10 4 0 6 5 11 10 11 6 0 10 -2 10 -4z m1580 -17 c0 -6 -4 -7 -10 -4 -14 9
-12 -19 2 -33 7 -7 20 -12 30 -12 22 0 24 -32 3 -50 -9 -7 -15 -29 -15 -51 0
-42 -2 -44 -80 -76 -51 -21 -69 -19 -70 8 0 4 -13 12 -30 19 -38 16 -38 27 1
48 54 29 98 72 125 123 24 43 44 56 44 28z m218 9 c7 -7 12 -21 12 -32 -1 -18
-3 -17 -16 8 -12 21 -19 25 -27 17 -6 -6 -20 -11 -31 -11 -34 0 -6 18 45 29 3
0 10 -4 17 -11z m-1931 -34 c-3 -3 -12 -4 -19 -1 -8 3 -5 6 6 6 11 1 17 -2 13
-5z m70 -21 c10 -10 13 -14 7 -10 -7 5 -25 12 -41 17 -23 7 -24 8 -7 9 12 1
30 -7 41 -16z m2021 -10 c24 -22 42 -137 42 -270 0 -89 -1 -92 -28 -112 -37
-26 -56 -20 -151 42 -42 28 -81 50 -88 50 -7 0 -13 3 -13 6 0 3 23 6 50 7 53
1 76 14 82 49 3 18 -2 19 -64 16 l-68 -3 0 44 0 44 58 12 c61 13 146 61 156
89 4 8 1 22 -5 29 -17 20 5 17 29 -3z m-947 -15 c49 -6 89 -16 89 -21 0 -5
-15 -24 -34 -43 -44 -44 -91 -47 -128 -6 -44 47 -64 100 -32 88 8 -3 55 -11
105 -18z m319 -3 c0 -1 -9 -5 -19 -8 -13 -3 -18 -1 -14 9 4 10 33 10 33 -1z
m-1195 -76 c9 -17 15 -33 13 -35 -3 -2 -12 12 -21 31 -21 43 -13 47 8 4z m37
-176 c54 -109 91 -189 82 -178 -24 31 -195 375 -186 375 4 0 51 -89 104 -197z
m1094 162 c-11 -8 -25 -15 -30 -15 -6 1 0 7 14 15 32 19 40 18 16 0z m158 -65
c14 -13 -3 -30 -30 -30 -34 0 -198 -84 -324 -167 -107 -69 -126 -82 -206 -141
-25 -19 -48 -32 -51 -29 -9 10 19 109 36 126 9 9 71 49 139 90 96 58 133 75
165 77 65 2 71 3 63 12 -4 4 27 23 71 44 75 35 112 40 137 18z m163 -30 c1
-22 11 -60 22 -86 19 -42 19 -45 3 -39 -9 4 -21 8 -27 9 -25 4 -35 19 -31 49
13 106 30 140 33 67z m-37 23 c0 -3 -7 -14 -16 -24 -17 -18 -37 -191 -27 -229
3 -11 0 -20 -6 -20 -7 0 -11 20 -11 50 0 28 -2 50 -4 50 -3 0 -53 -49 -112
-110 -59 -60 -112 -110 -117 -110 -6 0 -8 29 -5 73 4 52 3 65 -4 47 -5 -14
-10 -52 -10 -85 0 -50 -2 -57 -13 -42 -17 24 -31 22 -115 -19 -58 -27 -82 -34
-108 -29 -18 3 -30 10 -27 15 3 5 -5 21 -18 36 -23 26 -24 26 -56 10 -18 -10
-41 -14 -52 -11 -20 7 -20 7 3 32 54 58 395 263 407 245 4 -7 16 -1 33 17 15
15 40 33 55 38 15 6 64 25 108 42 85 32 95 35 95 24z m-1034 -72 c-8 -12 112
-55 147 -53 32 3 32 1 8 -39 -11 -17 -17 -39 -14 -48 3 -9 -5 0 -19 19 -17 25
-31 34 -47 33 -13 -2 -20 1 -16 7 3 6 3 15 -1 22 -5 8 -9 6 -14 -7 -6 -16 -10
-14 -44 16 -35 30 -37 34 -20 46 21 15 27 17 20 4z m1277 2 c-13 -2 -33 -2
-45 0 -13 2 -3 4 22 4 25 0 35 -2 23 -4z m-115 -82 c45 -42 40 -48 -8 -10 -22
18 -40 34 -40 36 0 10 19 -1 48 -26z m-141 -38 c-3 -10 -5 -2 -5 17 0 19 2 27
5 18 2 -10 2 -26 0 -35z m-1257 -14 c12 -23 20 -43 18 -45 -3 -2 -14 17 -26
41 -27 56 -20 60 8 4z m262 -65 l0 -36 20 28 c22 32 21 26 -16 -61 l-26 -60 0
41 c0 51 11 136 17 130 3 -3 5 -21 5 -42z m1058 -6 c15 -21 17 -28 6 -19 -16
13 -41 51 -33 51 2 0 14 -15 27 -32z m266 -3 c-21 -16 -91 -29 -127 -23 -15 2
4 10 51 20 95 20 99 20 76 3z m-198 -44 c11 -7 10 -9 -3 -14 -9 -4 -14 -3 -10
2 3 5 -1 12 -7 14 -7 3 -8 6 -3 6 6 0 16 -3 23 -8z m-1068 -61 c-6 -11 -12
-20 -14 -20 -2 0 -2 9 1 20 3 11 9 20 15 20 5 0 4 -9 -2 -20z m174 5 c-4 -8
-8 -15 -10 -15 -2 0 -4 7 -4 15 0 8 4 15 10 15 5 0 7 -7 4 -15z m802 -14 c-3
-4 -48 -34 -100 -65 -52 -31 -98 -61 -101 -66 -10 -16 -25 -11 -24 8 0 10 3
12 6 5 3 -9 19 -2 48 20 49 36 56 48 23 40 -45 -11 -10 7 68 35 43 16 80 30
82 31 2 0 1 -3 -2 -8z m-358 -70 c4 -41 8 -51 23 -51 11 0 19 -4 19 -10 0 -5
-4 -10 -9 -10 -6 0 -7 -24 -4 -55 5 -47 3 -58 -13 -70 -17 -12 -25 -10 -70 16
-28 16 -60 29 -70 29 -14 0 -16 -2 -6 -9 17 -10 -21 -57 -66 -84 -27 -15 -32
-16 -45 -2 -12 11 -16 12 -20 2 -2 -6 -8 -9 -12 -5 -4 4 0 27 9 50 27 71 29
72 75 61 l41 -11 -23 28 c-12 15 -25 23 -28 18 -3 -5 -18 3 -32 18 -30 30 -36
21 -10 -15 12 -18 13 -23 2 -19 -8 2 -23 20 -34 40 -16 29 -17 41 -8 61 11 23
14 24 60 16 45 -8 53 -6 123 30 44 23 79 36 84 31 5 -5 11 -32 14 -59z m-320
33 c-7 -15 -14 -21 -16 -15 -5 16 5 41 17 41 7 0 6 -10 -1 -26z m-90 -19 c7
12 12 15 12 6 0 -7 27 -39 60 -71 44 -42 60 -65 60 -84 0 -14 -4 -26 -8 -26
-5 0 -16 -6 -26 -13 -16 -11 -16 -15 -1 -50 8 -21 27 -43 40 -49 18 -8 25 -19
25 -40 0 -25 3 -28 20 -23 15 5 21 0 27 -25 l8 -30 83 40 c93 45 104 47 123
24 12 -15 14 -14 20 7 13 44 10 -48 -6 -191 -14 -134 -29 -227 -37 -235 -2 -2
-35 18 -74 45 -87 60 -189 112 -275 138 -72 22 -253 47 -269 37 -18 -11 -10
17 38 140 40 102 51 121 71 123 15 2 21 0 17 -7 -9 -14 4 -14 24 -1 13 9 13
10 0 10 -8 0 -4 6 10 13 41 21 37 44 -10 63 -31 13 -40 21 -35 33 22 52 43
121 38 121 -3 0 -22 -12 -41 -27 -20 -15 -33 -20 -30 -12 2 8 24 24 48 37 34
17 47 31 54 55 l9 32 7 -30 c5 -28 6 -29 18 -10z m142 20 c0 -3 -7 -13 -15
-22 -8 -10 -21 -27 -30 -38 -8 -11 -13 -13 -10 -5 16 52 26 70 40 70 8 0 15
-2 15 -5z m-942 -23 c25 -16 25 -74 0 -121 -29 -57 -64 -82 -120 -88 -41 -5
-48 -2 -82 31 -51 52 -48 64 17 58 41 -3 64 1 97 17 38 18 45 19 53 6 17 -30
37 -17 37 25 0 22 -4 40 -9 40 -5 0 -11 9 -14 20 -5 21 0 25 21 12z m62 -27
c0 -7 15 -22 34 -33 37 -22 46 -49 46 -138 l0 -54 -78 0 c-63 0 -82 4 -95 18
-15 16 -15 19 3 30 11 6 31 35 46 64 21 41 25 60 20 94 -4 36 -3 42 9 38 8 -4
15 -12 15 -19z m37 -1 c-3 -3 -12 -4 -19 -1 -8 3 -5 6 6 6 11 1 17 -2 13 -5z
m110 -28 c58 -16 112 -66 113 -105 0 -19 -3 -21 -14 -12 -19 16 -69 3 -62 -16
3 -8 6 -19 6 -24 0 -6 5 -7 10 -4 13 8 13 -15 0 -35 -8 -13 -10 -13 -10 1 0
24 -66 152 -94 182 -28 31 -22 32 51 13z m203 -10 c0 -2 -8 -10 -17 -17 -16
-13 -17 -12 -4 4 13 16 21 21 21 13z m-87 -23 c-7 -2 -19 -2 -25 0 -7 3 -2 5
12 5 14 0 19 -2 13 -5z m322 -13 c-3 -5 -16 -15 -28 -21 -22 -12 -22 -12 -3
10 19 21 43 30 31 11z m-141 -25 c-3 -14 -5 -25 -3 -25 2 0 20 4 38 10 38 11
31 0 -11 -18 -22 -9 -28 -9 -28 1 -1 20 -40 -33 -40 -54 0 -10 -4 -19 -10 -19
-16 0 -11 25 10 52 11 14 24 37 30 52 12 33 22 34 14 1z m426 -74 c0 -23 -16
-36 -25 -21 -9 14 1 40 15 40 5 0 10 -9 10 -19z m265 -39 c-6 -6 -73 29 -87
46 -7 9 10 3 39 -13 29 -16 50 -31 48 -33z m-459 27 c8 -13 -13 -29 -38 -29
-11 0 -15 6 -11 20 6 21 37 27 49 9z m-559 -31 c-3 -7 -5 -2 -5 12 0 14 2 19
5 13 2 -7 2 -19 0 -25z m33 7 c0 -8 -2 -15 -4 -15 -2 0 -6 7 -10 15 -3 8 -1
15 4 15 6 0 10 -7 10 -15z m-329 -37 c17 -24 18 -29 6 -19 -18 14 -42 51 -33
51 3 0 15 -15 27 -32z m1227 15 c19 -37 -22 -73 -58 -51 -28 18 -25 35 8 52
35 20 40 19 50 -1z m-699 -39 c-13 -15 -58 -52 -99 -83 -97 -72 -254 -228
-313 -311 -44 -63 -153 -168 -141 -135 4 8 1 22 -6 30 -6 8 -9 19 -6 24 4 6
-2 15 -13 21 -21 11 -37 -2 -26 -20 4 -6 1 -9 -6 -8 -7 2 -23 -12 -36 -31 -12
-19 -23 -30 -23 -24 0 19 79 119 121 153 24 19 100 73 170 120 186 125 319
223 358 264 39 40 58 40 20 0z m61 -8 c0 -12 -5 -7 -19 24 -11 24 -11 24 3 6
9 -11 16 -24 16 -30z m-231 -49 c-2 -1 -13 -9 -24 -17 -19 -14 -19 -14 -6 3 7
9 18 17 24 17 6 0 8 -1 6 -3z m291 -22 c0 -8 -4 -15 -10 -15 -5 0 -7 7 -4 15
4 8 8 15 10 15 2 0 4 -7 4 -15z m-463 -1 c-3 -3 -12 -4 -19 -1 -8 3 -5 6 6 6
11 1 17 -2 13 -5z m351 -179 c-6 -14 -15 -25 -20 -25 -5 0 -1 11 8 25 9 14 18
25 20 25 2 0 -2 -11 -8 -25z m-53 -34 c-27 -11 -85 -22 -85 -16 0 6 61 23 85
23 l20 1 -20 -8z m56 -28 c-5 -10 -17 -27 -26 -38 -16 -19 -17 -19 -3 5 26 46
29 50 34 50 3 0 0 -8 -5 -17z m29 -128 c6 -3 10 -23 9 -43 0 -26 -3 -31 -8
-19 -6 17 -8 17 -20 -5 -7 -13 -29 -36 -47 -52 l-35 -29 -34 19 c-31 17 -34
22 -32 59 2 32 8 42 30 53 15 7 27 18 27 24 0 11 90 5 110 -7z m576 -30 c-4
-11 1 -15 17 -15 12 -1 47 -9 77 -20 48 -16 57 -17 71 -4 23 21 36 17 43 -11
6 -24 26 -36 26 -15 0 19 18 10 23 -12 9 -32 1 -34 -32 -10 l-30 22 -9 -53 -9
-52 -7 38 c-5 20 -13 37 -20 37 -31 0 -86 -23 -86 -35 0 -21 -4 -19 -37 13
-15 16 -36 33 -46 38 -17 10 -17 13 -2 52 10 23 19 42 22 42 3 0 3 -7 -1 -15z
m-1315 -156 c-5 -13 -10 -19 -10 -12 -1 15 10 45 15 40 3 -2 0 -15 -5 -28z
m583 -24 c5 -22 4 -26 -4 -15 -5 8 -10 24 -10 34 0 26 6 18 14 -19z m899 -35
c-4 -5 -26 -11 -48 -14 l-40 -5 40 13 c25 8 42 20 44 32 4 18 5 18 9 0 2 -10
0 -22 -5 -26z m-945 -145 c23 0 35 -3 29 -7 -29 -18 -97 6 -97 34 0 7 6 3 14
-7 10 -14 26 -20 54 -20z m872 -8 c0 -16 -18 3 -23 25 -6 22 -5 22 8 4 8 -11
15 -24 15 -29z m-910 -47 c40 -16 41 -16 21 -34 -14 -13 -28 -16 -50 -11 -43
9 -54 27 -40 59 9 18 15 23 20 14 4 -6 26 -19 49 -28z m1104 -85 c-8 -45 -40
-61 -90 -45 -54 18 -53 58 1 61 11 0 36 6 55 13 19 8 36 12 38 11 2 -2 0 -19
-4 -40z"/>
<path d="M2626 2409 c4 -7 1 -10 -7 -7 -7 2 -29 -11 -48 -29 -25 -23 -37 -29
-42 -21 -5 7 -11 9 -15 5 -4 -4 -3 -12 3 -18 8 -8 22 -4 49 15 21 14 46 26 56
26 9 0 29 5 45 11 l28 12 -25 7 c-38 12 -52 11 -44 -1z"/>
<path d="M1925 1829 c-4 -6 -5 -12 -2 -15 2 -3 7 2 10 11 7 17 1 20 -8 4z"/>
<path d="M1790 1729 c0 -5 5 -7 10 -4 6 3 10 8 10 11 0 2 -4 4 -10 4 -5 0 -10
-5 -10 -11z"/>
<path d="M2193 1847 c-18 -23 -35 -51 -39 -62 -9 -26 3 -14 50 53 45 62 35 70
-11 9z"/>
<path d="M2037 1442 c-21 -23 -21 -32 -1 -32 8 0 12 5 9 10 -3 6 1 10 9 10 9
0 16 -4 16 -10 0 -5 5 -10 10 -10 6 0 10 11 10 25 0 30 -29 34 -53 7z"/>
<path d="M1960 1430 c-13 -8 -12 -10 3 -10 9 0 17 5 17 10 0 12 -1 12 -20 0z"/>
<path d="M1700 1310 c0 -5 4 -10 9 -10 6 0 13 5 16 10 3 6 -1 10 -9 10 -9 0
-16 -4 -16 -10z"/>
<path d="M1942 1224 c10 -10 20 -16 22 -13 3 3 -5 11 -17 18 -21 13 -21 12 -5
-5z"/>
<path d="M585 1520 c3 -5 8 -10 11 -10 2 0 4 5 4 10 0 6 -5 10 -11 10 -5 0 -7
-4 -4 -10z"/>
<path d="M2280 1288 c0 -29 13 -59 20 -48 4 7 17 -3 35 -27 16 -21 59 -69 95
-108 101 -107 181 -202 248 -293 69 -94 137 -210 128 -219 -3 -3 -63 -15 -133
-25 -71 -11 -132 -24 -138 -30 -7 -7 -1 -9 20 -4 17 3 82 13 145 22 63 9 119
20 124 24 13 12 -56 135 -134 238 -38 51 -123 152 -188 225 -65 73 -142 160
-170 195 -29 35 -52 57 -52 50z"/>
<path d="M2320 1172 c14 -48 22 -62 30 -57 5 3 13 -3 19 -12 9 -16 10 -16 11
5 0 31 -14 56 -44 75 -24 16 -24 16 -16 -11z"/>
<path d="M607 542 c-32 -33 -36 -54 -6 -26 20 18 44 54 36 54 -2 0 -15 -13
-30 -28z"/>
<path d="M2474 498 l-29 -33 30 25 c17 14 34 28 40 32 5 5 5 8 -1 8 -6 0 -23
-15 -40 -32z"/>
</g>
</svg>
